<svg xmlns="http://www.w3.org/2000/svg" width="486.793" height="638.541" viewBox="-72 -72 365.095 478.906"><g stroke="#000" stroke-miterlimit="10" stroke-width=".4"><path fill="none" stroke="#1f2933" stroke-width=".9" d="M106.917 227.449-48.635 382.974M113.638 227.449l158.99 158.99"/><g stroke="#1f2933" stroke-width=".9"><path fill="none" d="M-48.608-56.505C110.278-3.533 110.278-3.533 266.094-55.472"/><path fill="#1f2933" stroke-width=".8999550000000001" d="m268.643-56.322-3.986-.28 1.65 1.058-.685 1.838Z"/></g><g fill="#fff" stroke="#1f2933" stroke-width=".9"><path d="M-71.82 406.186h22.762v-22.762H-71.82Z"/><g fill="#000" stroke="none"><text x="-401.872" y="622.427" font-family="cmmi10" font-size="10" transform="translate(336.332 -226.22)">x</text><text x="-396.157" y="623.927" font-family="cmr7" font-size="7" transform="translate(336.332 -226.22)">1</text></g></g><g fill="#fff" stroke="#1f2933" stroke-width=".9"><path d="M292.375 394.805c0-6.286-5.095-11.381-11.381-11.381s-11.381 5.095-11.381 11.381 5.095 11.381 11.381 11.381 11.381-5.095 11.381-11.381Zm-11.381 0"/><g fill="#000" stroke="none"><text x="-401.872" y="622.427" font-family="cmmi10" font-size="10" transform="translate(677.765 -226.22)">x</text><text x="-396.157" y="623.927" font-family="cmr7" font-size="7" transform="translate(677.765 -226.22)">2</text></g></g><g fill="#fff" stroke="#1f2933" stroke-width=".9"><path d="M-71.82-49.058h22.762V-71.82H-71.82Z"/><g fill="#000" stroke="none"><text x="-401.872" y="622.427" font-family="cmmi10" font-size="10" transform="translate(336.865 -681.463)">z</text><text x="-397.221" y="623.927" font-family="cmr7" font-size="7" transform="translate(336.865 -681.463)">1</text></g></g><g fill="#fff" stroke="#1f2933" stroke-width=".9"><path d="M292.375-60.439c0-6.286-5.095-11.381-11.381-11.381s-11.381 5.095-11.381 11.381 5.095 11.381 11.381 11.381 11.381-5.095 11.381-11.38Zm-11.381 0"/><g fill="#000" stroke="none"><text x="-401.872" y="622.427" font-family="cmmi10" font-size="10" transform="translate(678.298 -681.463)">z</text><text x="-397.221" y="623.927" font-family="cmr7" font-size="7" transform="translate(678.298 -681.463)">2</text></g></g><g fill="#111827" stroke="#111827"><path d="M114.83 224.089a4.552 4.552 0 1 0-9.105 0 4.552 4.552 0 0 0 9.105 0Zm-4.552 0"/></g></g></svg>
