<svg xmlns="http://www.w3.org/2000/svg" width="164.329" height="164.329" viewBox="-72 -72 123.247 123.247"><g stroke="#000" stroke-miterlimit="10" stroke-width=".4"><g stroke="#1f2933" stroke-width=".9"><path fill="none" d="M-48.608 39.146H23.44"/><path fill="#1f2933" d="m26.126 39.146-3.693-1.527 1.231 1.527-1.231 1.526Z"/></g><g stroke="#1f2933" stroke-width=".9"><path fill="none" d="M-56.819 27.883c21.987-68.405 21.987-68.405 34.049-78.338"/><path fill="#1f2933" stroke-width=".899946" d="m-20.696-52.163-3.822 1.17 1.921.395.02 1.961Z"/></g><g fill="#fff" stroke="#1f2933" stroke-width=".9"><path d="M-49.058 39.146c0-6.286-5.095-11.381-11.38-11.381-6.287 0-11.382 5.095-11.382 11.38s5.095 11.382 11.381 11.382 11.381-5.096 11.381-11.381Zm-11.38 0"/><g fill="#000" stroke="none"><text x="-60.439" y="39.146" font-family="cmmi10" font-size="10" transform="translate(-4.568 1.403)">z</text><text x="-55.788" y="40.646" font-family="cmr7" font-size="7" transform="translate(-4.568 1.403)">1</text></g></g><g fill="#fff" stroke="#1f2933" stroke-width=".9"><path d="M27.765 50.527h22.762V27.765H27.765Z"/><text x="-60.439" y="39.146" fill="#000" stroke="none" font-family="cmmi10" font-size="10" transform="translate(96.954 1.18)">y</text></g><g fill="#fff" stroke="#1f2933" stroke-width=".9"><path d="M.734-60.439c0-6.286-5.095-11.381-11.38-11.381s-11.382 5.095-11.382 11.381 5.096 11.381 11.381 11.381S.734-54.153.734-60.438Zm-11.38 0"/><g fill="#000" stroke="none"><text x="-60.439" y="39.146" font-family="cmmi10" font-size="10" transform="translate(45.224 -98.182)">z</text><text x="-55.788" y="40.646" font-family="cmr7" font-size="7" transform="translate(45.224 -98.182)">2</text></g></g></g></svg>
