<svg xmlns="http://www.w3.org/2000/svg" width="344.53" height="171.187" viewBox="-72 -72 258.397 128.39"><g stroke="#000" stroke-miterlimit="10" stroke-width=".4"><path fill="none" stroke="gray" stroke-dasharray="3.0,3.0" stroke-width=".9" d="M-23.45 22.668v-93.895M78.98 22.668v-93.895"/><path fill="none" stroke="#1f2933" stroke-width=".9" d="M-71.82-20.012h28.453M-43.367-20.012h54.06M10.693-20.012h48.37M59.063-20.012v27.03M59.063-20.012h59.75M118.813-20.012h54.06M172.874-20.012v27.03"/><g stroke="none" font-size="10"><text x="-71.82" y="45.43" font-family="cmmi10" transform="translate(5.7 -110.755)">k</text><text x="-64.077" y="45.43" font-family="cmsy10" transform="translate(5.7 -110.755)">¡</text><text x="-54.077" y="45.43" font-family="cmr10" transform="translate(5.7 -110.755)">2</text></g><g stroke="none" font-size="10"><text x="-71.82" y="45.43" font-family="cmmi10" transform="translate(91.059 -110.755)">k</text><text x="-64.077" y="45.43" font-family="cmsy10" transform="translate(91.059 -110.755)">¡</text><text x="-54.077" y="45.43" font-family="cmr10" transform="translate(91.059 -110.755)">1</text></g><text x="-71.82" y="45.43" stroke="none" font-family="cmmi10" font-size="10" transform="translate(202.1 -110.339)">k</text><g stroke="none" font-size="10"><text x="-71.82" y="45.43" font-family="cmr10" transform="translate(138.577 8.19)">(</text><text x="-67.931" y="45.43" font-family="cmmi10" transform="translate(138.577 8.19)">a</text><text x="-62.645" y="45.43" font-family="cmr10" transform="translate(138.577 8.19)">)</text></g><g fill="#ececec" stroke="#1f2933" stroke-width=".9"><path fill="#ececec" d="M-30.564-20.012c0-7.07-5.732-12.803-12.803-12.803s-12.804 5.732-12.804 12.803 5.732 12.804 12.804 12.804c7.071 0 12.803-5.732 12.803-12.804Zm-12.803 0"/><g fill="#000" stroke="none"><text x="-71.82" y="45.43" font-family="cmmi7" font-size="7" transform="translate(23.227 -64.851)">x</text><text x="-67.285" y="46.43" font-family="cmsy5" font-size="5" transform="translate(23.227 -64.851)">¡</text></g></g><g fill="#cfc" stroke="#1f2933" stroke-width=".9"><path fill="#cfc" d="M-2.111-7.208h25.607v-25.607H-2.11Z"/><g fill="#000" stroke="none"><text x="-71.82" y="45.43" font-family="cmmi7" font-size="7" transform="translate(77.605 -63.928)">f</text><text x="-67.921" y="46.43" font-family="cmsy5" font-size="5" transform="translate(77.605 -63.928)">¡</text></g></g><g fill="#ececec" stroke="#1f2933" stroke-width=".9"><path fill="#ececec" d="M71.867-20.012c0-7.07-5.733-12.803-12.804-12.803s-12.804 5.732-12.804 12.803S51.991-7.208 59.063-7.208c7.071 0 12.804-5.732 12.804-12.804Zm-12.804 0"/><g fill="#000" stroke="none"><text x="-71.82" y="45.43" font-family="cmmi7" font-size="7" transform="translate(125.657 -64.851)">x</text><text x="-67.285" y="46.43" font-family="cmsy5" font-size="5" transform="translate(125.657 -64.851)">¡</text></g></g><g fill="#fcc" stroke="#1f2933" stroke-width=".9"><path fill="#fcc" d="M46.26 19.822h25.607V-5.785H46.259Z"/><g fill="#000" stroke="none"><text x="-71.82" y="45.43" font-family="cmmi7" font-size="7" transform="translate(126.477 -36.507)">f</text><text x="-67.136" y="42.412" font-family="cmmi5" font-size="5" transform="translate(126.477 -36.507)">z</text></g></g><g fill="#cfc" stroke="#1f2933" stroke-width=".9"><path fill="#cfc" d="M106.01-7.208h25.607v-25.607H106.01Z"/><text x="-71.82" y="45.43" fill="#000" stroke="none" font-family="cmmi7" font-size="7" transform="translate(188.291 -63.691)">f</text></g><g fill="#ececec" stroke="#1f2933" stroke-width=".9"><path fill="#ececec" d="M185.677-20.012c0-7.07-5.732-12.803-12.803-12.803s-12.804 5.732-12.804 12.803 5.732 12.804 12.804 12.804c7.071 0 12.803-5.732 12.803-12.804Zm-12.803 0"/><text x="-71.82" y="45.43" fill="#000" stroke="none" font-family="cmmi7" font-size="7" transform="translate(242.426 -63.934)">x</text></g><g fill="#fcc" stroke="#1f2933" stroke-width=".9"><path fill="#fcc" d="M160.07 19.822h25.607V-5.785H160.07Z"/><g fill="#000" stroke="none"><text x="-71.82" y="45.43" font-family="cmmi7" font-size="7" transform="translate(240.287 -36.507)">f</text><text x="-67.136" y="42.412" font-family="cmmi5" font-size="5" transform="translate(240.287 -36.507)">z</text></g></g></g></svg>
