<svg xmlns="http://www.w3.org/2000/svg" width="431.785" height="171.187" viewBox="-72 -72 323.838 128.39"><g stroke="#000" stroke-miterlimit="10" stroke-width=".4"><path fill="none" stroke="gray" stroke-dasharray="3.0,3.0" stroke-width=".9" d="M-20.605 28.358v-99.585"/><path fill="none" stroke="#1f2933" stroke-width=".9" d="M-71.82-45.619h28.453M-43.367-45.619h48.37M5.002-45.619h34.144M39.146-45.619l42.679 18.494M-71.82 16.977h28.453M-43.367 16.977h48.37M5.002 16.977h34.144M39.146 16.977 81.825-1.517M81.825-27.125l45.524 2.846M81.825-1.517l45.524 12.804M127.35-24.28l31.297-8.535M127.35-24.28l31.297 7.114M127.35 11.287l31.297-9.959M127.35 11.287l31.297 7.113M187.1-24.28l-28.453-8.535M187.1-24.28 158.647 1.329M187.1 11.287l-28.453-28.453M187.1 11.287 158.647 18.4M187.1-24.28h51.215M187.1 11.287h51.215"/><g stroke="none" font-size="10"><text x="-71.82" y="45.43" font-family="cmmi10" transform="translate(19.927 -110.755)">k</text><text x="-64.077" y="45.43" font-family="cmsy10" transform="translate(19.927 -110.755)">¡</text><text x="-54.077" y="45.43" font-family="cmr10" transform="translate(19.927 -110.755)">1</text></g><text x="-71.82" y="45.43" stroke="none" font-family="cmmi10" font-size="10" transform="translate(130.967 -110.339)">k</text><g stroke="none" font-family="cmr10" font-size="10"><text x="-71.82" y="37.43" transform="translate(24.218 -53.645)">.</text><text x="-71.82" y="41.43" transform="translate(24.218 -53.645)">.</text><text x="-71.82" y="45.43" transform="translate(24.218 -53.645)">.</text></g><g stroke="none" font-family="cmr10" font-size="10"><text x="-71.82" y="37.43" transform="translate(92.505 -53.645)">.</text><text x="-71.82" y="41.43" transform="translate(92.505 -53.645)">.</text><text x="-71.82" y="45.43" transform="translate(92.505 -53.645)">.</text></g><g stroke="none" font-family="cmr10" font-size="10"><text x="-71.82" y="37.43" transform="translate(226.233 -53.645)">.</text><text x="-71.82" y="41.43" transform="translate(226.233 -53.645)">.</text><text x="-71.82" y="45.43" transform="translate(226.233 -53.645)">.</text></g><g stroke="none" font-family="cmr10" font-size="10"><text x="-71.82" y="37.43" transform="translate(317.282 -53.645)">.</text><text x="-71.82" y="41.43" transform="translate(317.282 -53.645)">.</text><text x="-71.82" y="45.43" transform="translate(317.282 -53.645)">.</text></g><g stroke="none" font-family="cmr10" font-size="10"><text x="-71.82" y="37.43" transform="translate(271.758 -29.46)">.</text><text x="-71.82" y="41.43" transform="translate(271.758 -29.46)">.</text><text x="-71.82" y="45.43" transform="translate(271.758 -29.46)">.</text></g><g stroke="none" font-family="cmr10" font-size="10"><text x="-71.82" y="37.43" transform="translate(271.758 -76.408)">.</text><text x="-71.82" y="41.43" transform="translate(271.758 -76.408)">.</text><text x="-71.82" y="45.43" transform="translate(271.758 -76.408)">.</text></g><g stroke="none" font-size="5"><text x="-71.82" y="45.43" font-family="cmmi5" transform="translate(240.414 -83.436)">Ã</text><text x="-67.167" y="46.93" font-family="cmr5" transform="translate(240.414 -83.436)">1</text><text x="-63.764" y="46.93" font-family="cmmi5" transform="translate(240.414 -83.436)">;</text><text x="-61.473" y="46.93" font-family="cmr5" transform="translate(240.414 -83.436)">1</text></g><g stroke="none" font-size="5"><text x="-71.82" y="45.43" font-family="cmmi5" transform="translate(233.748 -63.533)">Ã</text><text x="-67.167" y="46.93" font-family="cmr5" transform="translate(233.748 -63.533)">1</text><text x="-63.764" y="46.93" font-family="cmmi5" transform="translate(233.748 -63.533)">;n</text><text x="-57.069" y="47.93" font-family="cmmi5" transform="translate(233.748 -63.533)">m</text></g><g stroke="none" font-size="5"><text x="-71.82" y="45.43" font-family="cmmi5" transform="translate(232.325 -43.616)">Ã</text><text x="-67.167" y="46.93" font-family="cmmi5" transform="translate(232.325 -43.616)">n</text><text x="-62.763" y="47.93" font-family="cmmi5" transform="translate(232.325 -43.616)">m</text><text x="-56.123" y="46.93" font-family="cmmi5" transform="translate(232.325 -43.616)">;</text><text x="-53.831" y="46.93" font-family="cmr5" transform="translate(232.325 -43.616)">1</text></g><g stroke="none" font-family="cmmi5" font-size="5"><text x="-71.82" y="45.43" transform="translate(225.66 -24.871)">Ã</text><text x="-67.167" y="46.43" transform="translate(225.66 -24.871)">n</text><text x="-62.763" y="47.43" transform="translate(225.66 -24.871)">m</text><text x="-56.123" y="46.43" transform="translate(225.66 -24.871)">;n</text><text x="-49.427" y="47.43" transform="translate(225.66 -24.871)">m</text></g><g stroke="none" font-size="10"><text x="-71.82" y="45.43" font-family="cmr10" transform="translate(136.211 8.19)">(</text><text x="-67.931" y="45.43" font-family="cmmi10" transform="translate(136.211 8.19)">c</text><text x="-63.604" y="45.43" font-family="cmr10" transform="translate(136.211 8.19)">)</text></g><g fill="#ececec" stroke="#1f2933" stroke-width=".9"><path fill="#ececec" d="M-30.564-45.619c0-7.071-5.732-12.804-12.803-12.804s-12.804 5.733-12.804 12.804 5.732 12.804 12.804 12.804c7.071 0 12.803-5.732 12.803-12.804Zm-12.803 0"/><g fill="#000" stroke="none"><text x="-71.82" y="45.43" font-family="cmmi7" font-size="7" transform="translate(23.227 -89.345)">x</text><text x="-67.285" y="42.412" font-family="cmr5" font-size="5" transform="translate(23.227 -89.345)">1</text><text x="-67.285" y="47.43" font-family="cmsy5" font-size="5" transform="translate(23.227 -89.345)">¡</text></g></g><g fill="#cfc" stroke="#1f2933" stroke-width=".9"><path fill="#cfc" d="M-7.801-32.815h25.607v-25.608H-7.801Z"/><g fill="#000" stroke="none"><text x="-71.82" y="45.43" font-family="cmmi7" font-size="7" transform="translate(72.529 -88.61)">f</text><text x="-67.136" y="42.412" font-family="cmr5" font-size="5" transform="translate(72.529 -88.61)">1</text></g></g><g fill="#ececec" stroke="#1f2933" stroke-width=".9"><path fill="#ececec" d="M51.95-45.619c0-7.071-5.733-12.804-12.804-12.804S26.342-52.69 26.342-45.619s5.732 12.804 12.804 12.804c7.07 0 12.803-5.732 12.803-12.804Zm-12.804 0"/><g fill="#000" stroke="none"><text x="-71.82" y="45.43" font-family="cmmi7" font-size="7" transform="translate(106.747 -87.929)">x</text><text x="-67.285" y="42.412" font-family="cmr5" font-size="5" transform="translate(106.747 -87.929)">1</text></g></g><g fill="#fcc" stroke="#1f2933" stroke-width=".9"><path fill="#fcc" d="M69.02-14.321h25.608v-25.607H69.021Z"/><g fill="#000" stroke="none"><text x="-71.82" y="45.43" font-family="cmmi7" font-size="7" transform="translate(149.617 -70.115)">g</text><text x="-67.668" y="42.412" font-family="cmr5" font-size="5" transform="translate(149.617 -70.115)">1</text></g></g><g fill="#ececec" stroke="#1f2933" stroke-width=".9"><path fill="#ececec" d="M-30.564 16.977c0-7.071-5.732-12.804-12.803-12.804s-12.804 5.733-12.804 12.804 5.732 12.804 12.804 12.804c7.071 0 12.803-5.733 12.803-12.804Zm-12.803 0"/><g fill="#000" stroke="none"><text x="-71.82" y="45.43" font-family="cmmi7" font-size="7" transform="translate(21.808 -27.349)">x</text><text x="-67.285" y="42.019" font-family="cmmi5" font-size="5" transform="translate(21.808 -27.349)">n</text><text x="-62.881" y="43.019" font-family="cmmi5" font-size="5" transform="translate(21.808 -27.349)">s</text><text x="-67.285" y="47.952" font-family="cmsy5" font-size="5" transform="translate(21.808 -27.349)">¡</text></g></g><g fill="#cfc" stroke="#1f2933" stroke-width=".9"><path fill="#cfc" d="M-7.801 29.78h25.607V4.174H-7.801Z"/><g fill="#000" stroke="none"><text x="-71.82" y="45.43" font-family="cmmi7" font-size="7" transform="translate(70.103 -26.548)">f</text><text x="-67.136" y="42.412" font-family="cmmi5" font-size="5" transform="translate(70.103 -26.548)">n</text><text x="-62.732" y="43.412" font-family="cmmi5" font-size="5" transform="translate(70.103 -26.548)">s</text></g></g><g fill="#ececec" stroke="#1f2933" stroke-width=".9"><path fill="#ececec" d="M51.95 16.977c0-7.071-5.733-12.804-12.804-12.804S26.342 9.906 26.342 16.977s5.732 12.804 12.804 12.804c7.07 0 12.803-5.733 12.803-12.804Zm-12.804 0"/><g fill="#000" stroke="none"><text x="-71.82" y="45.43" font-family="cmmi7" font-size="7" transform="translate(104.32 -25.867)">x</text><text x="-67.285" y="42.412" font-family="cmmi5" font-size="5" transform="translate(104.32 -25.867)">n</text><text x="-62.881" y="43.412" font-family="cmmi5" font-size="5" transform="translate(104.32 -25.867)">s</text></g></g><g fill="#fcc" stroke="#1f2933" stroke-width=".9"><path fill="#fcc" d="M69.02 11.287h25.608v-25.608H69.021Z"/><g fill="#000" stroke="none"><text x="-71.82" y="45.43" font-family="cmmi7" font-size="7" transform="translate(147.191 -45.042)">g</text><text x="-67.668" y="42.412" font-family="cmmi5" font-size="5" transform="translate(147.191 -45.042)">n</text><text x="-63.264" y="43.412" font-family="cmmi5" font-size="5" transform="translate(147.191 -45.042)">s</text></g></g><g fill="#ececec" stroke="#1f2933" stroke-width=".9"><path fill="#ececec" d="M140.153-24.28c0-7.07-5.732-12.803-12.804-12.803-7.071 0-12.804 5.732-12.804 12.804 0 7.071 5.733 12.803 12.804 12.803s12.804-5.732 12.804-12.803Zm-12.804 0"/><g fill="#000" stroke="none"><text x="-71.82" y="45.43" font-family="cmmi7" font-size="7" transform="translate(195.049 -66.59)">a</text><text x="-67.482" y="42.412" font-family="cmr5" font-size="5" transform="translate(195.049 -66.59)">1</text></g></g><g fill="#ececec" stroke="#1f2933" stroke-width=".9"><path fill="#ececec" d="M199.904-24.28c0-7.07-5.732-12.803-12.804-12.803-7.071 0-12.804 5.732-12.804 12.804 0 7.071 5.733 12.803 12.804 12.803s12.804-5.732 12.804-12.803Zm-12.804 0"/><g fill="#000" stroke="none"><text x="-71.82" y="45.43" font-family="cmmi7" font-size="7" transform="translate(255.21 -66.59)">b</text><text x="-68.303" y="42.412" font-family="cmr5" font-size="5" transform="translate(255.21 -66.59)">1</text></g></g><g fill="#ececec" stroke="#1f2933" stroke-width=".9"><path fill="#ececec" d="M140.153 11.287c0-7.072-5.732-12.804-12.804-12.804-7.071 0-12.804 5.732-12.804 12.804 0 7.071 5.733 12.803 12.804 12.803s12.804-5.732 12.804-12.803Zm-12.804 0"/><g fill="#000" stroke="none"><text x="-71.82" y="45.43" font-family="cmmi7" font-size="7" transform="translate(191.228 -31.558)">a</text><text x="-67.482" y="42.412" font-family="cmmi5" font-size="5" transform="translate(191.228 -31.558)">n</text><text x="-63.078" y="43.412" font-family="cmmi5" font-size="5" transform="translate(191.228 -31.558)">m</text></g></g><g fill="#ececec" stroke="#1f2933" stroke-width=".9"><path fill="#ececec" d="M199.904 11.287c0-7.072-5.732-12.804-12.804-12.804-7.071 0-12.804 5.732-12.804 12.804 0 7.071 5.733 12.803 12.804 12.803s12.804-5.732 12.804-12.803Zm-12.804 0"/><g fill="#000" stroke="none"><text x="-71.82" y="45.43" font-family="cmmi7" font-size="7" transform="translate(251.39 -31.558)">b</text><text x="-68.303" y="42.412" font-family="cmmi5" font-size="5" transform="translate(251.39 -31.558)">n</text><text x="-63.899" y="43.412" font-family="cmmi5" font-size="5" transform="translate(251.39 -31.558)">m</text></g></g><g fill="#fcc" stroke="#1f2933" stroke-width=".9"><path fill="#fcc" d="M152.4-28.547h12.495v-8.536H152.4Z"/><g fill="#000" stroke="none" font-size="7"><text x="-71.82" y="45.43" font-family="cmmi7" transform="translate(224.42 -76.67)">p</text><text x="-67.698" y="45.43" font-family="cmr7" transform="translate(224.42 -76.67)">11</text></g></g><g fill="#fcc" stroke="#1f2933" stroke-width=".9"><path fill="#fcc" d="M151.921-12.898h13.452v-8.536h-13.452Z"/><g fill="#000" stroke="none" font-size="7"><text x="-71.82" y="45.43" font-family="cmmi7" transform="translate(223.942 -61.02)">p</text><text x="-67.698" y="45.43" font-family="cmr7" transform="translate(223.942 -61.02)">1</text><text x="-63.712" y="45.43" font-family="cmmi7" transform="translate(223.942 -61.02)">n</text></g></g><g fill="#fcc" stroke="#1f2933" stroke-width=".9"><path fill="#fcc" d="M151.921 5.596h13.452V-2.94h-13.452Z"/><g fill="#000" stroke="none" font-size="7"><text x="-71.82" y="45.43" font-family="cmmi7" transform="translate(223.942 -42.527)">pn</text><text x="-62.754" y="45.43" font-family="cmr7" transform="translate(223.942 -42.527)">1</text></g></g><g fill="#fcc" stroke="#1f2933" stroke-width=".9"><path fill="#fcc" d="M151.443 22.668h14.409v-8.536h-14.41Z"/><text x="-71.82" y="45.43" fill="#000" stroke="none" font-family="cmmi7" font-size="7" transform="translate(223.463 -26.204)">pnn</text></g><g fill="#fcc" stroke="#1f2933" stroke-width=".9"><path fill="#fcc" d="M225.511-11.476h25.607v-25.607h-25.607Z"/><g fill="#000" stroke="none"><text x="-71.82" y="45.43" font-family="cmmi7" font-size="7" transform="translate(305.842 -66.59)">h</text><text x="-67.138" y="42.412" font-family="cmr5" font-size="5" transform="translate(305.842 -66.59)">1</text></g></g><g fill="#fcc" stroke="#1f2933" stroke-width=".9"><path fill="#fcc" d="M225.511 24.09h25.607V-1.517h-25.607Z"/><g fill="#000" stroke="none"><text x="-71.82" y="45.43" font-family="cmmi7" font-size="7" transform="translate(302.022 -31.558)">h</text><text x="-67.138" y="42.412" font-family="cmmi5" font-size="5" transform="translate(302.022 -31.558)">n</text><text x="-62.734" y="43.412" font-family="cmmi5" font-size="5" transform="translate(302.022 -31.558)">m</text></g></g></g></svg>
