<svg xmlns="http://www.w3.org/2000/svg" width="714.282" height="346.293" viewBox="-72 -72 535.712 259.72"><g stroke="#000" stroke-miterlimit="10" stroke-width=".4"><path fill="none" stroke="silver" stroke-width=".8" d="M-71.87 187.05V-71.87h534.912v258.92ZM463.042-71.87"/><path fill="none" stroke="#000" stroke-width=".8" d="M27.8-36.304h-42.364M33.32-36.304h42.364M31.728-33.802l5.285 11.324M141.61-36.304H99.247M147.132-36.304h42.363M145.538-33.802l5.286 11.324M255.421-36.304h-42.363M260.943-36.304h42.363M259.35-33.802l5.285 11.324M59.097 14.91H13.888M64.619 14.91h45.209M63.092 12.441l19.105-38.208M60.193 12.708 51.41 1.084M60.538 17.335l-11.621 21.36M175.753 14.91H133.39M181.275 14.91h42.364M179.635 12.388l16.857-37.927M176.706 12.824 166.53 1.084M177.053 17.252 163.67 38.695M289.564 14.91h-42.363M295.086 14.91h42.364M293.446 12.388l16.857-37.927M290.517 12.824l-10.176-11.74M290.864 17.252 277.48 38.695M50.561 86.042h-13.91M56.083 86.042h13.91M164.372 86.042h-13.91M169.894 86.042h13.91M278.183 86.042h-13.91M283.705 86.042h13.91M69.273 101.67l5.142-6.429M65.824 105.981l-5.143 6.428M183.084 101.67l5.142-6.429M179.635 105.981l-5.143 6.428M296.895 101.67l5.142-6.429M293.446 105.981l-5.143 6.428M107.467 86.042H93.556M112.988 86.042H126.9M109.722 83.328 89.62-24.722M110.663 83.316l9.085-56.773M109.132 88.576 92.56 126.9M110.81 88.74l8.252 38.159M221.278 86.042h-13.911M226.8 86.042h13.91M223.533 83.328l-20.102-108.05M224.474 83.316l9.085-56.773M222.943 88.576 206.37 126.9M224.622 88.74l8.25 38.159M335.089 86.042h-13.911M340.61 86.042h13.911M337.344 83.328l-20.102-108.05M338.285 83.316l9.085-56.773M336.754 88.576 320.182 126.9M338.433 88.74l8.25 38.159"/><g fill="#ffffd1" stroke="#8c1d18" stroke-width=".8"><path fill="#ffffd1" d="M-37.727-24.923h22.763v-22.762h-22.763Z"/><g fill="#000" stroke="none"><text x="-71.87" y="174.246" font-family="cmsy10" font-size="10" transform="translate(40.218 -207.883)">V</text><text x="-65.742" y="175.746" font-family="cmr7" font-size="7" transform="translate(40.218 -207.883)">0</text></g></g><g fill="#ffffd1" stroke="#8c1d18" stroke-width=".8"><path fill="#ffffd1" d="M98.847-36.304c0-6.286-5.096-11.381-11.381-11.381s-11.382 5.095-11.382 11.38c0 6.287 5.096 11.382 11.382 11.382s11.38-5.095 11.38-11.381Zm-11.381 0"/><g fill="#000" stroke="none"><text x="-71.87" y="174.246" font-family="cmsy10" font-size="10" transform="translate(153.853 -207.883)">V</text><text x="-65.742" y="175.746" font-family="cmmi7" font-size="7" transform="translate(153.853 -207.883)">a</text></g></g><g fill="#ffffd1" stroke="#8c1d18" stroke-width=".8"><path fill="#ffffd1" d="M212.658-36.304c0-6.286-5.096-11.381-11.382-11.381s-11.38 5.095-11.38 11.38c0 6.287 5.095 11.382 11.38 11.382s11.382-5.095 11.382-11.381Zm-11.382 0"/><g fill="#000" stroke="none"><text x="-71.87" y="174.246" font-family="cmsy10" font-size="10" transform="translate(268.074 -207.883)">V</text><text x="-65.742" y="175.746" font-family="cmmi7" font-size="7" transform="translate(268.074 -207.883)">b</text></g></g><g fill="#ffffd1" stroke="#8c1d18" stroke-width=".8"><path fill="#ffffd1" d="M326.469-36.304c0-6.286-5.096-11.381-11.382-11.381s-11.38 5.095-11.38 11.38c0 6.287 5.095 11.382 11.38 11.382s11.382-5.095 11.382-11.381Zm-11.382 0"/><g fill="#000" stroke="none"><text x="-71.87" y="174.246" font-family="cmsy10" font-size="10" transform="translate(381.857 -207.883)">V</text><text x="-65.742" y="175.746" font-family="cmmi7" font-size="7" transform="translate(381.857 -207.883)">c</text></g></g><g fill="#ffffd1" stroke="#8c1d18" stroke-width=".8"><path fill="#ffffd1" d="M31.129.684h22.762v-22.762H31.13Z"/><g fill="#000" stroke="none"><text x="-70.014" y="174.246" font-family="cmr10" font-size="10" transform="translate(109.905 -182.576)">_</text><text x="-71.87" y="174.246" font-family="cmmi10" font-size="10" transform="translate(109.905 -182.576)">q</text><text x="-67.406" y="175.746" font-family="cmr7" font-size="7" transform="translate(109.905 -182.576)">1</text></g></g><g fill="#ffffd1" stroke="#8c1d18" stroke-width=".8"><path fill="#ffffd1" d="M144.94.684h22.762v-22.762H144.94Z"/><g fill="#000" stroke="none"><text x="-70.014" y="174.246" font-family="cmr10" font-size="10" transform="translate(223.716 -182.576)">_</text><text x="-71.87" y="174.246" font-family="cmmi10" font-size="10" transform="translate(223.716 -182.576)">q</text><text x="-67.406" y="175.746" font-family="cmr7" font-size="7" transform="translate(223.716 -182.576)">2</text></g></g><g fill="#ffffd1" stroke="#8c1d18" stroke-width=".8"><path fill="#ffffd1" d="M258.751.684h22.762v-22.762h-22.762Z"/><g fill="#000" stroke="none"><text x="-70.014" y="174.246" font-family="cmr10" font-size="10" transform="translate(337.527 -182.576)">_</text><text x="-71.87" y="174.246" font-family="cmmi10" font-size="10" transform="translate(337.527 -182.576)">q</text><text x="-67.406" y="175.746" font-family="cmr7" font-size="7" transform="translate(337.527 -182.576)">3</text></g></g><g fill="#d1ffd1" stroke="#8c1d18" stroke-width=".8"><path fill="#d1ffd1" d="M-9.274 26.292h22.762V3.529H-9.274Z"/><g fill="#000" stroke="none"><text x="-69.506" y="171.718" font-family="cmr10" font-size="10" transform="translate(68.67 -155.482)">_</text><text x="-71.87" y="174.246" font-family="cmsy10" font-size="10" transform="translate(68.67 -155.482)">V</text><text x="-65.742" y="175.746" font-family="cmr7" font-size="7" transform="translate(68.67 -155.482)">0</text></g></g><g fill="#d1ffd1" stroke="#8c1d18" stroke-width=".8"><path fill="#d1ffd1" d="M132.99 14.91c0-6.285-5.096-11.38-11.381-11.38s-11.381 5.095-11.381 11.38 5.095 11.382 11.38 11.382 11.382-5.096 11.382-11.381Zm-11.381 0"/><g fill="#000" stroke="none"><text x="-69.506" y="171.718" font-family="cmr10" font-size="10" transform="translate(187.996 -155.482)">_</text><text x="-71.87" y="174.246" font-family="cmsy10" font-size="10" transform="translate(187.996 -155.482)">V</text><text x="-65.742" y="175.746" font-family="cmmi7" font-size="7" transform="translate(187.996 -155.482)">a</text></g></g><g fill="#d1ffd1" stroke="#8c1d18" stroke-width=".8"><path fill="#d1ffd1" d="M246.8 14.91c0-6.285-5.095-11.38-11.38-11.38s-11.381 5.095-11.381 11.38 5.095 11.382 11.38 11.382 11.382-5.096 11.382-11.381Zm-11.38 0"/><g fill="#000" stroke="none"><text x="-69.506" y="171.718" font-family="cmr10" font-size="10" transform="translate(302.217 -155.482)">_</text><text x="-71.87" y="174.246" font-family="cmsy10" font-size="10" transform="translate(302.217 -155.482)">V</text><text x="-65.742" y="175.746" font-family="cmmi7" font-size="7" transform="translate(302.217 -155.482)">b</text></g></g><g fill="#d1ffd1" stroke="#8c1d18" stroke-width=".8"><path fill="#d1ffd1" d="M360.612 14.91c0-6.285-5.096-11.38-11.381-11.38S337.85 8.624 337.85 14.91s5.095 11.382 11.38 11.382 11.382-5.096 11.382-11.381Zm-11.381 0"/><g fill="#000" stroke="none"><text x="-69.506" y="171.718" font-family="cmr10" font-size="10" transform="translate(416 -155.482)">_</text><text x="-71.87" y="174.246" font-family="cmsy10" font-size="10" transform="translate(416 -155.482)">V</text><text x="-65.742" y="175.746" font-family="cmmi7" font-size="7" transform="translate(416 -155.482)">c</text></g></g><g fill="#d1ffd1" stroke="#8c1d18" stroke-width=".8"><path fill="#d1ffd1" d="M31.129 61.858h22.762V39.095H31.13Z"/><g fill="#000" stroke="none"><text x="-71.125" y="174.246" font-family="cmr10" font-size="10" transform="translate(109.905 -121.403)">Ä</text><text x="-71.87" y="174.246" font-family="cmmi10" font-size="10" transform="translate(109.905 -121.403)">q</text><text x="-67.406" y="175.746" font-family="cmr7" font-size="7" transform="translate(109.905 -121.403)">1</text></g></g><g fill="#d1ffd1" stroke="#8c1d18" stroke-width=".8"><path fill="#d1ffd1" d="M144.94 61.858h22.762V39.095H144.94Z"/><g fill="#000" stroke="none"><text x="-71.125" y="174.246" font-family="cmr10" font-size="10" transform="translate(223.716 -121.403)">Ä</text><text x="-71.87" y="174.246" font-family="cmmi10" font-size="10" transform="translate(223.716 -121.403)">q</text><text x="-67.406" y="175.746" font-family="cmr7" font-size="7" transform="translate(223.716 -121.403)">2</text></g></g><g fill="#d1ffd1" stroke="#8c1d18" stroke-width=".8"><path fill="#d1ffd1" d="M258.751 61.858h22.762V39.095h-22.762Z"/><g fill="#000" stroke="none"><text x="-71.125" y="174.246" font-family="cmr10" font-size="10" transform="translate(337.527 -121.403)">Ä</text><text x="-71.87" y="174.246" font-family="cmmi10" font-size="10" transform="translate(337.527 -121.403)">q</text><text x="-67.406" y="175.746" font-family="cmr7" font-size="7" transform="translate(337.527 -121.403)">3</text></g></g><g fill="#d1ffff" stroke="#8c1d18" stroke-width=".8"><path fill="#d1ffff" d="M36.25 86.042c0-6.285-5.095-11.38-11.38-11.38-6.287 0-11.382 5.095-11.382 11.38s5.095 11.381 11.381 11.381 11.381-5.095 11.381-11.38Zm-11.38 0"/><g fill="#000" stroke="none"><text x="-71.87" y="174.246" font-family="cmsy10" font-size="10" transform="translate(87.722 -86.218)">F</text><text x="-64.683" y="175.746" font-family="cmr7" font-size="7" transform="translate(87.722 -86.218)">0</text><text x="-60.696" y="175.746" font-family="cmmi7" font-size="7" transform="translate(87.722 -86.218)">;</text><text x="-58.321" y="175.746" font-family="cmr7" font-size="7" transform="translate(87.722 -86.218)">1</text></g></g><g fill="#d1ffff" stroke="#8c1d18" stroke-width=".8"><path fill="#d1ffff" d="M93.156 86.042c0-6.285-5.096-11.38-11.381-11.38s-11.381 5.095-11.381 11.38 5.095 11.381 11.38 11.381 11.382-5.095 11.382-11.38Zm-11.381 0"/><g fill="#000" stroke="none"><text x="-71.87" y="174.246" font-family="cmsy10" font-size="10" transform="translate(144.452 -86.218)">F</text><text x="-64.683" y="175.746" font-family="cmmi7" font-size="7" transform="translate(144.452 -86.218)">a;</text><text x="-57.97" y="175.746" font-family="cmr7" font-size="7" transform="translate(144.452 -86.218)">1</text></g></g><g fill="#d1ffff" stroke="#8c1d18" stroke-width=".8"><path fill="#d1ffff" d="M150.061 86.042c0-6.285-5.095-11.38-11.38-11.38-6.287 0-11.382 5.095-11.382 11.38s5.095 11.381 11.381 11.381 11.381-5.095 11.381-11.38Zm-11.38 0"/><g fill="#000" stroke="none"><text x="-71.87" y="174.246" font-family="cmsy10" font-size="10" transform="translate(201.357 -86.218)">F</text><text x="-64.683" y="175.746" font-family="cmmi7" font-size="7" transform="translate(201.357 -86.218)">a;</text><text x="-57.97" y="175.746" font-family="cmr7" font-size="7" transform="translate(201.357 -86.218)">2</text></g></g><g fill="#d1ffff" stroke="#8c1d18" stroke-width=".8"><path fill="#d1ffff" d="M206.967 86.042c0-6.285-5.096-11.38-11.381-11.38s-11.381 5.095-11.381 11.38 5.095 11.381 11.38 11.381 11.382-5.095 11.382-11.38Zm-11.381 0"/><g fill="#000" stroke="none"><text x="-71.87" y="174.246" font-family="cmsy10" font-size="10" transform="translate(258.673 -86.218)">F</text><text x="-64.683" y="175.746" font-family="cmmi7" font-size="7" transform="translate(258.673 -86.218)">b;</text><text x="-58.791" y="175.746" font-family="cmr7" font-size="7" transform="translate(258.673 -86.218)">2</text></g></g><g fill="#d1ffff" stroke="#8c1d18" stroke-width=".8"><path fill="#d1ffff" d="M263.872 86.042c0-6.285-5.095-11.38-11.38-11.38-6.287 0-11.382 5.095-11.382 11.38s5.095 11.381 11.381 11.381 11.381-5.095 11.381-11.38Zm-11.38 0"/><g fill="#000" stroke="none"><text x="-71.87" y="174.246" font-family="cmsy10" font-size="10" transform="translate(315.578 -86.218)">F</text><text x="-64.683" y="175.746" font-family="cmmi7" font-size="7" transform="translate(315.578 -86.218)">b;</text><text x="-58.791" y="175.746" font-family="cmr7" font-size="7" transform="translate(315.578 -86.218)">3</text></g></g><g fill="#d1ffff" stroke="#8c1d18" stroke-width=".8"><path fill="#d1ffff" d="M320.778 86.042c0-6.285-5.096-11.38-11.381-11.38s-11.382 5.095-11.382 11.38 5.096 11.381 11.382 11.381 11.38-5.095 11.38-11.38Zm-11.381 0"/><g fill="#000" stroke="none"><text x="-71.87" y="174.246" font-family="cmsy10" font-size="10" transform="translate(372.455 -86.218)">F</text><text x="-64.683" y="175.746" font-family="cmmi7" font-size="7" transform="translate(372.455 -86.218)">c;</text><text x="-58.734" y="175.746" font-family="cmr7" font-size="7" transform="translate(372.455 -86.218)">3</text></g></g><g fill="#d1ffff" stroke="#8c1d18" stroke-width=".8"><path fill="#d1ffff" d="M354.921 97.423h22.762V74.661h-22.762Z"/><g fill="#000" stroke="none"><text x="-71.87" y="174.246" font-family="cmsy10" font-size="10" transform="translate(429.844 -86.218)">F</text><text x="-64.683" y="175.746" font-family="cmmi7" font-size="7" transform="translate(429.844 -86.218)">c;t</text></g></g><g fill="#d1ffff" stroke="#8c1d18" stroke-width=".8"><path fill="#d1ffff" d="M64.703 121.608c0-6.285-5.095-11.38-11.381-11.38s-11.381 5.095-11.381 11.38 5.095 11.381 11.38 11.381c6.287 0 11.382-5.095 11.382-11.38Zm-11.381 0"/><g fill="#000" stroke="none"><text x="-71.87" y="174.246" font-family="cmmi10" font-size="10" transform="translate(120.763 -51.235)">¿</text><text x="-67.498" y="175.746" font-family="cmr7" font-size="7" transform="translate(120.763 -51.235)">1</text></g></g><g fill="#d1ffff" stroke="#8c1d18" stroke-width=".8"><path fill="#d1ffff" d="M178.514 121.608c0-6.285-5.095-11.38-11.381-11.38s-11.381 5.095-11.381 11.38 5.095 11.381 11.38 11.381c6.287 0 11.382-5.095 11.382-11.38Zm-11.381 0"/><g fill="#000" stroke="none"><text x="-71.87" y="174.246" font-family="cmmi10" font-size="10" transform="translate(234.574 -51.235)">¿</text><text x="-67.498" y="175.746" font-family="cmr7" font-size="7" transform="translate(234.574 -51.235)">2</text></g></g><g fill="#d1ffff" stroke="#8c1d18" stroke-width=".8"><path fill="#d1ffff" d="M292.325 121.608c0-6.285-5.095-11.38-11.381-11.38s-11.381 5.095-11.381 11.38 5.095 11.381 11.38 11.381c6.287 0 11.382-5.095 11.382-11.38Zm-11.381 0"/><g fill="#000" stroke="none"><text x="-71.87" y="174.246" font-family="cmmi10" font-size="10" transform="translate(348.385 -51.235)">¿</text><text x="-67.498" y="175.746" font-family="cmr7" font-size="7" transform="translate(348.385 -51.235)">3</text></g></g><g fill="#d1ffff" stroke="#8c1d18" stroke-width=".8"><path fill="#d1ffff" d="M76.084 150.061h22.763V127.3H76.084Z"/><g fill="#000" stroke="none"><text x="-71.87" y="174.246" font-family="cmmi10" font-size="10" transform="translate(152.527 -34.163)">m</text><text x="-63.09" y="175.746" font-family="cmmi7" font-size="7" transform="translate(152.527 -34.163)">a</text></g></g><g fill="#d1ffff" stroke="#8c1d18" stroke-width=".8"><path fill="#d1ffff" d="M189.895 150.061h22.763V127.3h-22.763Z"/><g fill="#000" stroke="none"><text x="-71.87" y="174.246" font-family="cmmi10" font-size="10" transform="translate(266.748 -34.163)">m</text><text x="-63.09" y="175.746" font-family="cmmi7" font-size="7" transform="translate(266.748 -34.163)">b</text></g></g><g fill="#d1ffff" stroke="#8c1d18" stroke-width=".8"><path fill="#d1ffff" d="M303.706 150.061h22.763V127.3h-22.763Z"/><g fill="#000" stroke="none"><text x="-71.87" y="174.246" font-family="cmmi10" font-size="10" transform="translate(380.53 -34.163)">m</text><text x="-63.09" y="175.746" font-family="cmmi7" font-size="7" transform="translate(380.53 -34.163)">c</text></g></g><g fill="#d1ffff" stroke="#8c1d18" stroke-width=".8"><path fill="#d1ffff" d="M110.228 150.061h22.762V127.3h-22.762Z"/><g fill="#000" stroke="none"><text x="-71.87" y="174.246" font-family="cmsy10" font-size="10" transform="translate(188.086 -32.9)">G</text><text x="-65.921" y="175.746" font-family="cmmi7" font-size="7" transform="translate(188.086 -32.9)">a</text></g></g><g fill="#d1ffff" stroke="#8c1d18" stroke-width=".8"><path fill="#d1ffff" d="M224.039 150.061H246.8V127.3h-22.762Z"/><g fill="#000" stroke="none"><text x="-71.87" y="174.246" font-family="cmsy10" font-size="10" transform="translate(302.307 -32.9)">G</text><text x="-65.921" y="175.746" font-family="cmmi7" font-size="7" transform="translate(302.307 -32.9)">b</text></g></g><g fill="#d1ffff" stroke="#8c1d18" stroke-width=".8"><path fill="#d1ffff" d="M337.85 150.061h22.762V127.3H337.85Z"/><g fill="#000" stroke="none"><text x="-71.87" y="174.246" font-family="cmsy10" font-size="10" transform="translate(416.09 -32.9)">G</text><text x="-65.921" y="175.746" font-family="cmmi7" font-size="7" transform="translate(416.09 -32.9)">c</text></g></g><g stroke="none"><text x="-71.87" y="174.246" font-family="cmsy9" font-size="9" transform="translate(131.748 3.563)">F</text><text x="-65.243" y="175.246" font-family="cmmi6" font-size="6" transform="translate(131.748 3.563)">p;j</text><text x="-52.624" y="174.246" font-family="cmr9" font-size="9" transform="translate(131.748 3.563)">=</text><text x="-42.86" y="174.246" font-family="cmsy9" font-size="9" transform="translate(131.748 3.563)">¡</text><text x="-35.665" y="174.246" font-family="cmr9" font-size="9" transform="translate(131.748 3.563)">[</text><text x="-33.096" y="174.246" font-family="cmmi9" font-size="9" transform="translate(131.748 3.563)">Ad</text><text x="-21.367" y="175.246" font-family="cmmi6" font-size="6" transform="translate(131.748 3.563)">T</text><text x="-16.98" y="176.246" font-family="cmmi5" font-size="5" transform="translate(131.748 3.563)">cp</text><text x="-9.035" y="174.246" font-family="cmr9" font-size="9" transform="translate(131.748 3.563)">]</text><text x="-6.465" y="170.423" font-family="cmmi6" font-size="6" transform="translate(131.748 3.563)">T</text><text x="-.606" y="174.246" font-family="cmsy9" font-size="9" transform="translate(131.748 3.563)">F</text><text x="6.021" y="175.246" font-family="cmmi6" font-size="6" transform="translate(131.748 3.563)">c;j</text><text x="26.362" y="167.496" font-family="cmex9" font-size="9" transform="translate(131.748 3.563)">P</text><text x="36.126" y="176.996" font-family="cmmi6" font-size="6" transform="translate(131.748 3.563)">j</text><text x="39.544" y="176.996" font-family="cmsy6" font-size="6" transform="translate(131.748 3.563)">2N</text><text x="50.577" y="178.262" font-family="cmmi5" font-size="5" transform="translate(131.748 3.563)">i</text><text x="55.787" y="174.246" font-family="cmsy9" font-size="9" transform="translate(131.748 3.563)">F</text><text x="62.414" y="175.246" font-family="cmmi6" font-size="6" transform="translate(131.748 3.563)">i;j</text><text x="73.338" y="174.246" font-family="cmr9" font-size="9" transform="translate(131.748 3.563)">+</text><text x="82.588" y="174.246" font-family="cmmi9" font-size="9" transform="translate(131.748 3.563)">m</text><text x="90.738" y="175.246" font-family="cmmi6" font-size="6" transform="translate(131.748 3.563)">i</text><text x="93.911" y="174.246" font-family="cmmi9" font-size="9" transform="translate(131.748 3.563)">R</text><text x="100.973" y="170.423" font-family="cmmi6" font-size="6" transform="translate(131.748 3.563)">T</text><text x="100.91" y="175.918" font-family="cmmi6" font-size="6" transform="translate(131.748 3.563)">i</text><text x="106.832" y="174.246" font-family="cmmi9" font-size="9" transform="translate(131.748 3.563)">g</text><text x="111.566" y="170.423" font-family="cmmi6" font-size="6" transform="translate(131.748 3.563)">s</text><text x="118.142" y="174.246" font-family="cmr9" font-size="9" transform="translate(131.748 3.563)">=</text><text x="127.906" y="174.246" font-family="cmsy9" font-size="9" transform="translate(131.748 3.563)">G</text><text x="133.404" y="175.246" font-family="cmmi6" font-size="6" transform="translate(131.748 3.563)">i</text><text x="138.766" y="171.971" font-family="cmr9" font-size="9" transform="translate(131.748 3.563)">_</text><text x="136.578" y="174.246" font-family="cmsy9" font-size="9" transform="translate(131.748 3.563)">V</text><text x="142.266" y="175.246" font-family="cmmi6" font-size="6" transform="translate(131.748 3.563)">i</text><text x="147.496" y="174.246" font-family="cmr9" font-size="9" transform="translate(131.748 3.563)">+</text><text x="156.745" y="174.246" font-family="cmmi9" font-size="9" transform="translate(131.748 3.563)">ad</text><text x="166.438" y="170.423" font-family="cmmi6" font-size="6" transform="translate(131.748 3.563)">T</text><text x="166.438" y="176.043" font-family="cmsy6" font-size="6" transform="translate(131.748 3.563)">V</text><text x="171.15" y="177.308" font-family="cmmi5" font-size="5" transform="translate(131.748 3.563)">i</text><text x="174.818" y="174.246" font-family="cmr9" font-size="9" transform="translate(131.748 3.563)">(</text><text x="178.415" y="174.246" font-family="cmsy9" font-size="9" transform="translate(131.748 3.563)">G</text><text x="183.913" y="175.246" font-family="cmmi6" font-size="6" transform="translate(131.748 3.563)">i</text><text x="187.087" y="174.246" font-family="cmsy9" font-size="9" transform="translate(131.748 3.563)">V</text><text x="192.775" y="175.246" font-family="cmmi6" font-size="6" transform="translate(131.748 3.563)">i</text><text x="195.949" y="174.246" font-family="cmr9" font-size="9" transform="translate(131.748 3.563)">)</text></g><g fill="#000" stroke="#000"><path fill="#000" stroke="#000" d="M33.12-36.304a2.56 2.56 0 1 0-5.12 0 2.56 2.56 0 0 0 5.12 0Zm-2.56 0"/></g><g fill="#000" stroke="#000"><path fill="#000" stroke="#000" d="M146.932-36.304a2.56 2.56 0 1 0-5.122 0 2.56 2.56 0 0 0 5.122 0Zm-2.561 0"/></g><g fill="#000" stroke="#000"><path fill="#000" stroke="#000" d="M260.743-36.304a2.56 2.56 0 1 0-5.122 0 2.56 2.56 0 0 0 5.122 0Zm-2.561 0"/></g><g fill="#000" stroke="#000"><path fill="#000" stroke="#000" d="M64.419 14.91a2.56 2.56 0 1 0-5.122 0 2.56 2.56 0 0 0 5.122 0Zm-2.561 0"/></g><g fill="#000" stroke="#000"><path fill="#000" stroke="#000" d="M181.075 14.91a2.56 2.56 0 1 0-5.121 0 2.56 2.56 0 0 0 5.12 0Zm-2.56 0"/></g><g fill="#000" stroke="#000"><path fill="#000" stroke="#000" d="M294.886 14.91a2.56 2.56 0 1 0-5.122 0 2.56 2.56 0 0 0 5.122 0Zm-2.56 0"/></g><g fill="#000" stroke="#000"><path fill="#000" stroke="#000" d="M55.883 86.042a2.56 2.56 0 1 0-5.122 0 2.56 2.56 0 0 0 5.122 0Zm-2.561 0"/></g><g fill="#000" stroke="#000"><path fill="#000" stroke="#000" d="M169.694 86.042a2.56 2.56 0 1 0-5.122 0 2.56 2.56 0 0 0 5.122 0Zm-2.561 0"/></g><g fill="#000" stroke="#000"><path fill="#000" stroke="#000" d="M283.505 86.042a2.56 2.56 0 1 0-5.122 0 2.56 2.56 0 0 0 5.122 0Zm-2.561 0"/></g><g fill="#000" stroke="#000"><path fill="#000" stroke="#000" d="M70.109 103.825a2.56 2.56 0 1 0-5.121 0 2.56 2.56 0 0 0 5.121 0Zm-2.56 0"/></g><g fill="#000" stroke="#000"><path fill="#000" stroke="#000" d="M183.92 103.825a2.56 2.56 0 1 0-5.121 0 2.56 2.56 0 0 0 5.121 0Zm-2.56 0"/></g><g fill="#000" stroke="#000"><path fill="#000" stroke="#000" d="M297.73 103.825a2.56 2.56 0 1 0-5.12 0 2.56 2.56 0 0 0 5.12 0Zm-2.56 0"/></g><g fill="#000" stroke="#000"><path fill="#000" stroke="#000" d="M112.788 86.042a2.56 2.56 0 1 0-5.121 0 2.56 2.56 0 0 0 5.121 0Zm-2.56 0"/></g><g fill="#000" stroke="#000"><path fill="#000" stroke="#000" d="M226.6 86.042a2.56 2.56 0 1 0-5.122 0 2.56 2.56 0 0 0 5.121 0Zm-2.562 0"/></g><g fill="#000" stroke="#000"><path fill="#000" stroke="#000" d="M340.41 86.042a2.56 2.56 0 1 0-5.121 0 2.56 2.56 0 0 0 5.121 0Zm-2.56 0"/></g></g></svg>
