<svg xmlns="http://www.w3.org/2000/svg" width="555.706" height="270.419" viewBox="-72 -72 416.779 202.814"><g stroke="#000" stroke-miterlimit="10" stroke-width=".4"><path fill="none" stroke="#000" stroke-width=".8" d="M-6.629-29.19h-39.234M-4.321-33.101l-7.051-12.762M2.307-29.19h10.781M107.182-29.19H39.496M109.49-33.101l-7.051-12.762M116.118-29.19H126.9M220.993-29.19h-67.686M223.3-33.101l-7.05-12.762M229.929-29.19h10.781M-6.629 22.024h-39.234M2.307 22.024h44.924M.009 18.118l19.87-35.767M-3.052 17.646l-12.925-63.509M-4.581 18.268l-5.574-8.648M107.182 22.024H73.64M116.118 22.024h44.924M113.82 18.118l19.87-35.767M110.76 17.646 97.833-45.863M109.23 18.268l-5.574-8.648M220.993 22.024H187.45M229.929 22.024h44.924M227.63 18.118l19.872-35.767M224.57 17.646l-12.925-63.509M223.04 18.268l-5.573-8.648M-6.629 64.703h-13.057M2.307 64.703h13.057M107.182 64.703H94.125M116.118 64.703h13.057M220.993 64.703h-13.057M229.929 64.703h13.057M50.277 64.703H48.6M59.213 64.703h1.676M53.449 60.427 30.121-16.555M55.335 60.274l3.355-25.163M54.745 69.17v34.967M164.088 64.703h-1.677M173.024 64.703h1.676M167.26 60.427l-23.328-76.982M169.146 60.274l3.355-25.163M168.556 69.17v34.967M277.899 64.703h-1.677M286.835 64.703h24.438M281.07 60.427l-23.327-76.982M282.957 60.274l3.355-25.163M282.367 69.17v34.967M1.768 81.07l15.603-8.453M-2.16 87.665v-.6M115.579 81.07l15.603-8.453M111.65 87.665v-.6M229.39 81.07l15.603-8.453M225.461 87.665v-.6"/><g fill="#fee2e2" stroke="#8c1d18" stroke-width=".8"><path d="M-46.263-29.19c0-7.072-5.732-12.805-12.803-12.805S-71.87-36.262-71.87-29.19s5.732 12.804 12.804 12.804c7.071 0 12.803-5.732 12.803-12.804Zm-12.803 0"/><g fill="#000" stroke="none"><text x="-87.519" y="138.68" font-family="cmsy7" font-size="7" transform="translate(23.982 -165.98)">V</text><text x="-82.48" y="139.68" font-family="cmr5" font-size="5" transform="translate(23.982 -165.98)">0</text></g></g><g fill="#fee2e2" stroke="#8c1d18" stroke-width=".8"><path d="M39.096-29.19c0-7.072-5.733-12.805-12.804-12.805S13.488-36.262 13.488-29.19s5.733 12.804 12.804 12.804 12.804-5.732 12.804-12.804Zm-12.804 0"/><g fill="#000" stroke="none"><text x="-87.519" y="138.68" font-family="cmsy7" font-size="7" transform="translate(109.105 -165.98)">V</text><text x="-82.48" y="139.68" font-family="cmmi5" font-size="5" transform="translate(109.105 -165.98)">a</text></g></g><g fill="#fee2e2" stroke="#8c1d18" stroke-width=".8"><path d="M152.907-29.19c0-7.072-5.733-12.805-12.804-12.805s-12.804 5.733-12.804 12.804 5.733 12.804 12.804 12.804 12.804-5.732 12.804-12.804Zm-12.804 0"/><g fill="#000" stroke="none"><text x="-87.519" y="138.68" font-family="cmsy7" font-size="7" transform="translate(223.269 -166.01)">V</text><text x="-82.48" y="139.741" font-family="cmmi5" font-size="5" transform="translate(223.269 -166.01)">b</text></g></g><g fill="#fee2e2" stroke="#8c1d18" stroke-width=".8"><path d="M266.718-29.19c0-7.072-5.733-12.805-12.804-12.805S241.11-36.262 241.11-29.19s5.733 12.804 12.804 12.804 12.804-5.732 12.804-12.804Zm-12.804 0"/><g fill="#000" stroke="none"><text x="-87.519" y="138.68" font-family="cmsy7" font-size="7" transform="translate(337.04 -165.98)">V</text><text x="-82.48" y="139.68" font-family="cmmi5" font-size="5" transform="translate(337.04 -165.98)">c</text></g></g><g fill="#fee2e2" stroke="#8c1d18" stroke-width=".8"><path d="M-31.467-46.263H-5.86V-71.87h-25.607Z"/><g fill="#000" stroke="none"><text x="-86.047" y="138.68" font-family="cmr7" font-size="7" transform="translate(65.072 -196.073)">_</text><text x="-87.519" y="138.68" font-family="cmmi7" font-size="7" transform="translate(65.072 -196.073)">q</text><text x="-83.854" y="139.68" font-family="cmr5" font-size="5" transform="translate(65.072 -196.073)">1</text></g></g><g fill="#fee2e2" stroke="#8c1d18" stroke-width=".8"><path d="M82.344-46.263h25.607V-71.87H82.344Z"/><g fill="#000" stroke="none"><text x="-86.047" y="138.68" font-family="cmr7" font-size="7" transform="translate(178.883 -196.073)">_</text><text x="-87.519" y="138.68" font-family="cmmi7" font-size="7" transform="translate(178.883 -196.073)">q</text><text x="-83.854" y="139.68" font-family="cmr5" font-size="5" transform="translate(178.883 -196.073)">2</text></g></g><g fill="#fee2e2" stroke="#8c1d18" stroke-width=".8"><path d="M196.155-46.263h25.607V-71.87h-25.607Z"/><g fill="#000" stroke="none"><text x="-86.047" y="138.68" font-family="cmr7" font-size="7" transform="translate(292.694 -196.073)">_</text><text x="-87.519" y="138.68" font-family="cmmi7" font-size="7" transform="translate(292.694 -196.073)">q</text><text x="-83.854" y="139.68" font-family="cmr5" font-size="5" transform="translate(292.694 -196.073)">3</text></g></g><g fill="#fee2e2" stroke="#8c1d18" stroke-width=".8"><path d="M-46.263 22.024c0-7.072-5.732-12.804-12.803-12.804S-71.87 14.952-71.87 22.024c0 7.071 5.732 12.804 12.804 12.804 7.071 0 12.803-5.733 12.803-12.804Zm-12.803 0"/><g fill="#000" stroke="none"><text x="-85.623" y="136.911" font-family="cmr7" font-size="7" transform="translate(23.982 -113.918)">_</text><text x="-87.519" y="138.68" font-family="cmsy7" font-size="7" transform="translate(23.982 -113.918)">V</text><text x="-82.48" y="139.68" font-family="cmr5" font-size="5" transform="translate(23.982 -113.918)">0</text></g></g><g fill="#fee2e2" stroke="#8c1d18" stroke-width=".8"><path d="M73.239 22.024c0-7.072-5.732-12.804-12.804-12.804-7.071 0-12.804 5.732-12.804 12.804 0 7.071 5.733 12.804 12.804 12.804S73.24 29.095 73.24 22.024Zm-12.804 0"/><g fill="#000" stroke="none"><text x="-85.623" y="136.911" font-family="cmr7" font-size="7" transform="translate(143.248 -113.918)">_</text><text x="-87.519" y="138.68" font-family="cmsy7" font-size="7" transform="translate(143.248 -113.918)">V</text><text x="-82.48" y="139.68" font-family="cmmi5" font-size="5" transform="translate(143.248 -113.918)">a</text></g></g><g fill="#fee2e2" stroke="#8c1d18" stroke-width=".8"><path d="M187.05 22.024c0-7.072-5.732-12.804-12.804-12.804-7.071 0-12.804 5.732-12.804 12.804 0 7.071 5.733 12.804 12.804 12.804s12.804-5.733 12.804-12.804Zm-12.804 0"/><g fill="#000" stroke="none"><text x="-85.623" y="136.911" font-family="cmr7" font-size="7" transform="translate(257.412 -113.948)">_</text><text x="-87.519" y="138.68" font-family="cmsy7" font-size="7" transform="translate(257.412 -113.948)">V</text><text x="-82.48" y="139.741" font-family="cmmi5" font-size="5" transform="translate(257.412 -113.948)">b</text></g></g><g fill="#fee2e2" stroke="#8c1d18" stroke-width=".8"><path d="M300.86 22.024c0-7.072-5.732-12.804-12.803-12.804s-12.804 5.732-12.804 12.804c0 7.071 5.733 12.804 12.804 12.804s12.804-5.733 12.804-12.804Zm-12.803 0"/><g fill="#000" stroke="none"><text x="-85.623" y="136.911" font-family="cmr7" font-size="7" transform="translate(371.183 -113.918)">_</text><text x="-87.519" y="138.68" font-family="cmsy7" font-size="7" transform="translate(371.183 -113.918)">V</text><text x="-82.48" y="139.68" font-family="cmmi5" font-size="5" transform="translate(371.183 -113.918)">c</text></g></g><g fill="#fee2e2" stroke="#8c1d18" stroke-width=".8"><path d="M-31.467 9.22H-5.86v-25.607h-25.607Z"/><g fill="#000" stroke="none"><text x="-86.908" y="138.68" font-family="cmr7" font-size="7" transform="translate(65.072 -140.59)">Ä</text><text x="-87.519" y="138.68" font-family="cmmi7" font-size="7" transform="translate(65.072 -140.59)">q</text><text x="-83.854" y="139.68" font-family="cmr5" font-size="5" transform="translate(65.072 -140.59)">1</text></g></g><g fill="#fee2e2" stroke="#8c1d18" stroke-width=".8"><path d="M82.344 9.22h25.607v-25.607H82.344Z"/><g fill="#000" stroke="none"><text x="-86.908" y="138.68" font-family="cmr7" font-size="7" transform="translate(178.883 -140.59)">Ä</text><text x="-87.519" y="138.68" font-family="cmmi7" font-size="7" transform="translate(178.883 -140.59)">q</text><text x="-83.854" y="139.68" font-family="cmr5" font-size="5" transform="translate(178.883 -140.59)">2</text></g></g><g fill="#fee2e2" stroke="#8c1d18" stroke-width=".8"><path d="M196.155 9.22h25.607v-25.607h-25.607Z"/><g fill="#000" stroke="none"><text x="-86.908" y="138.68" font-family="cmr7" font-size="7" transform="translate(292.694 -140.59)">Ä</text><text x="-87.519" y="138.68" font-family="cmmi7" font-size="7" transform="translate(292.694 -140.59)">q</text><text x="-83.854" y="139.68" font-family="cmr5" font-size="5" transform="translate(292.694 -140.59)">3</text></g></g><g fill="#fee2e2" stroke="#8c1d18" stroke-width=".8"><path d="M-20.086 64.703c0-8.957-7.26-16.218-16.218-16.218s-16.218 7.26-16.218 16.218 7.26 16.218 16.218 16.218 16.218-7.261 16.218-16.218Zm-16.218 0"/><g fill="#000" stroke="none"><text x="-87.519" y="138.68" font-family="cmsy8" font-size="8" transform="translate(43.126 -72.383)">F</text><text x="-81.452" y="139.791" font-family="cmr6" font-size="6" transform="translate(43.126 -72.383)">0</text><text x="-77.786" y="139.791" font-family="cmmi6" font-size="6" transform="translate(43.126 -72.383)">;</text><text x="-75.508" y="139.791" font-family="cmr6" font-size="6" transform="translate(43.126 -72.383)">1</text></g></g><g fill="#fee2e2" stroke="#8c1d18" stroke-width=".8"><path d="M48.2 64.703c0-8.957-7.26-16.218-16.218-16.218s-16.218 7.26-16.218 16.218S23.025 80.92 31.982 80.92 48.2 73.66 48.2 64.703Zm-16.218 0"/><g fill="#000" stroke="none"><text x="-87.519" y="138.68" font-family="cmsy8" font-size="8" transform="translate(111.221 -72.383)">F</text><text x="-81.452" y="139.791" font-family="cmmi6" font-size="6" transform="translate(111.221 -72.383)">a;</text><text x="-75.125" y="139.791" font-family="cmr6" font-size="6" transform="translate(111.221 -72.383)">1</text></g></g><g fill="#fee2e2" stroke="#8c1d18" stroke-width=".8"><path d="M93.725 64.703c0-8.957-7.26-16.218-16.218-16.218s-16.218 7.26-16.218 16.218 7.26 16.218 16.218 16.218 16.218-7.261 16.218-16.218Zm-16.218 0"/><g fill="#000" stroke="none"><text x="-87.519" y="138.68" font-family="cmsy8" font-size="8" transform="translate(156.746 -72.383)">F</text><text x="-81.452" y="139.791" font-family="cmmi6" font-size="6" transform="translate(156.746 -72.383)">a;</text><text x="-75.125" y="139.791" font-family="cmr6" font-size="6" transform="translate(156.746 -72.383)">2</text></g></g><g fill="#fee2e2" stroke="#8c1d18" stroke-width=".8"><path d="M162.011 64.703c0-8.957-7.26-16.218-16.218-16.218s-16.218 7.26-16.218 16.218 7.261 16.218 16.218 16.218 16.218-7.261 16.218-16.218Zm-16.218 0"/><g fill="#000" stroke="none"><text x="-87.519" y="138.68" font-family="cmsy8" font-size="8" transform="translate(225.414 -72.533)">F</text><text x="-81.452" y="140.091" font-family="cmmi6" font-size="6" transform="translate(225.414 -72.533)">b;</text><text x="-75.888" y="140.091" font-family="cmr6" font-size="6" transform="translate(225.414 -72.533)">2</text></g></g><g fill="#fee2e2" stroke="#8c1d18" stroke-width=".8"><path d="M207.536 64.703c0-8.957-7.261-16.218-16.218-16.218S175.1 55.745 175.1 64.703s7.26 16.218 16.218 16.218 16.218-7.261 16.218-16.218Zm-16.218 0"/><g fill="#000" stroke="none"><text x="-87.519" y="138.68" font-family="cmsy8" font-size="8" transform="translate(270.938 -72.533)">F</text><text x="-81.452" y="140.091" font-family="cmmi6" font-size="6" transform="translate(270.938 -72.533)">b;</text><text x="-75.888" y="140.091" font-family="cmr6" font-size="6" transform="translate(270.938 -72.533)">3</text></g></g><g fill="#fee2e2" stroke="#8c1d18" stroke-width=".8"><path d="M275.822 64.703c0-8.957-7.26-16.218-16.218-16.218s-16.218 7.26-16.218 16.218 7.261 16.218 16.218 16.218 16.218-7.261 16.218-16.218Zm-16.218 0"/><g fill="#000" stroke="none"><text x="-87.519" y="138.68" font-family="cmsy8" font-size="8" transform="translate(339.19 -72.383)">F</text><text x="-81.452" y="139.791" font-family="cmmi6" font-size="6" transform="translate(339.19 -72.383)">c;</text><text x="-75.82" y="139.791" font-family="cmr6" font-size="6" transform="translate(339.19 -72.383)">3</text></g></g><g fill="#fee2e2" stroke="#8c1d18" stroke-width=".8"><path d="M311.673 80.92h32.436V48.486h-32.436Z"/><g fill="#000" stroke="none"><text x="-87.519" y="138.68" font-family="cmsy8" font-size="8" transform="translate(407.88 -72.327)">F</text><text x="-81.452" y="139.68" font-family="cmmi6" font-size="6" transform="translate(407.88 -72.327)">c;t</text></g></g><g fill="#fee2e2" stroke="#8c1d18" stroke-width=".8"><path d="M-14.965 113.073h25.608V87.465h-25.608Z"/><g fill="#000" stroke="none"><text x="-87.519" y="138.68" font-family="cmmi7" font-size="7" transform="translate(81.563 -37.404)">¿</text><text x="-83.831" y="139.68" font-family="cmr5" font-size="5" transform="translate(81.563 -37.404)">1</text></g></g><g fill="#fee2e2" stroke="#8c1d18" stroke-width=".8"><path d="M98.846 113.073h25.608V87.465H98.846Z"/><g fill="#000" stroke="none"><text x="-87.519" y="138.68" font-family="cmmi7" font-size="7" transform="translate(195.374 -37.404)">¿</text><text x="-83.831" y="139.68" font-family="cmr5" font-size="5" transform="translate(195.374 -37.404)">2</text></g></g><g fill="#fee2e2" stroke="#8c1d18" stroke-width=".8"><path d="M212.657 113.073h25.608V87.465h-25.608Z"/><g fill="#000" stroke="none"><text x="-87.519" y="138.68" font-family="cmmi7" font-size="7" transform="translate(309.185 -37.404)">¿</text><text x="-83.831" y="139.68" font-family="cmr5" font-size="5" transform="translate(309.185 -37.404)">3</text></g></g><g fill="#fee2e2" stroke="#8c1d18" stroke-width=".8"><path d="M41.941 130.144h25.607v-25.607H41.941Z"/><g fill="#000" stroke="none"><text x="-87.519" y="138.68" font-family="cmmi7" font-size="7" transform="translate(132.528 -19.435)">m</text><text x="-80.423" y="139.68" font-family="cmmi5" font-size="5" transform="translate(132.528 -19.435)">a</text><text x="-76.051" y="138.68" font-family="cmmi7" font-size="7" transform="translate(132.528 -19.435)">g</text><text x="-71.898" y="135.662" font-family="cmmi5" font-size="5" transform="translate(132.528 -19.435)">s</text></g></g><g fill="#fee2e2" stroke="#8c1d18" stroke-width=".8"><path d="M155.752 130.144h25.607v-25.607h-25.607Z"/><g fill="#000" stroke="none"><text x="-87.519" y="138.68" font-family="cmmi7" font-size="7" transform="translate(246.692 -19.435)">m</text><text x="-80.423" y="139.741" font-family="cmmi5" font-size="5" transform="translate(246.692 -19.435)">b</text><text x="-76.756" y="138.68" font-family="cmmi7" font-size="7" transform="translate(246.692 -19.435)">g</text><text x="-72.604" y="135.662" font-family="cmmi5" font-size="5" transform="translate(246.692 -19.435)">s</text></g></g><g fill="#fee2e2" stroke="#8c1d18" stroke-width=".8"><path d="M269.563 130.144h25.607v-25.607h-25.607Z"/><g fill="#000" stroke="none"><text x="-87.519" y="138.68" font-family="cmmi7" font-size="7" transform="translate(360.462 -19.435)">m</text><text x="-80.423" y="139.68" font-family="cmmi5" font-size="5" transform="translate(360.462 -19.435)">c</text><text x="-76.676" y="138.68" font-family="cmmi7" font-size="7" transform="translate(360.462 -19.435)">g</text><text x="-72.523" y="135.662" font-family="cmmi5" font-size="5" transform="translate(360.462 -19.435)">s</text></g></g><g fill="#000" stroke="#000"><path fill="#000" stroke="#000" d="M2.107-29.19a4.268 4.268 0 1 0-8.536 0 4.268 4.268 0 0 0 8.536 0Zm-4.268 0"/></g><g fill="#000" stroke="#000"><path fill="#000" stroke="#000" d="M115.918-29.19a4.268 4.268 0 1 0-8.536 0 4.268 4.268 0 0 0 8.536 0Zm-4.268 0"/></g><g fill="#000" stroke="#000"><path fill="#000" stroke="#000" d="M229.73-29.19a4.268 4.268 0 1 0-8.537 0 4.268 4.268 0 0 0 8.536 0Zm-4.269 0"/></g><g fill="#000" stroke="#000"><path fill="#000" stroke="#000" d="M2.107 22.024a4.268 4.268 0 1 0-8.536 0 4.268 4.268 0 0 0 8.536 0Zm-4.268 0"/></g><g fill="#000" stroke="#000"><path fill="#000" stroke="#000" d="M115.918 22.024a4.268 4.268 0 1 0-8.536 0 4.268 4.268 0 0 0 8.536 0Zm-4.268 0"/></g><g fill="#000" stroke="#000"><path fill="#000" stroke="#000" d="M229.73 22.024a4.268 4.268 0 1 0-8.537 0 4.268 4.268 0 0 0 8.536 0Zm-4.269 0"/></g><g fill="#000" stroke="#000"><path fill="#000" stroke="#000" d="M2.107 64.703a4.268 4.268 0 1 0-8.536 0 4.268 4.268 0 0 0 8.536 0Zm-4.268 0"/></g><g fill="#000" stroke="#000"><path fill="#000" stroke="#000" d="M115.918 64.703a4.268 4.268 0 1 0-8.536 0 4.268 4.268 0 0 0 8.536 0Zm-4.268 0"/></g><g fill="#000" stroke="#000"><path fill="#000" stroke="#000" d="M229.73 64.703a4.268 4.268 0 1 0-8.537 0 4.268 4.268 0 0 0 8.536 0Zm-4.269 0"/></g><g fill="#000" stroke="#000"><path fill="#000" stroke="#000" d="M59.013 64.703a4.268 4.268 0 1 0-8.536 0 4.268 4.268 0 0 0 8.536 0Zm-4.268 0"/></g><g fill="#000" stroke="#000"><path fill="#000" stroke="#000" d="M172.824 64.703a4.268 4.268 0 1 0-8.536 0 4.268 4.268 0 0 0 8.536 0Zm-4.268 0"/></g><g fill="#000" stroke="#000"><path fill="#000" stroke="#000" d="M286.635 64.703a4.268 4.268 0 1 0-8.536 0 4.268 4.268 0 0 0 8.536 0Zm-4.268 0"/></g><g fill="#000" stroke="#000"><path fill="#000" stroke="#000" d="M2.107 83.197a4.268 4.268 0 1 0-8.536 0 4.268 4.268 0 0 0 8.536 0Zm-4.268 0"/></g><g fill="#000" stroke="#000"><path fill="#000" stroke="#000" d="M115.918 83.197a4.268 4.268 0 1 0-8.536 0 4.268 4.268 0 0 0 8.536 0Zm-4.268 0"/></g><g fill="#000" stroke="#000"><path fill="#000" stroke="#000" d="M229.73 83.197a4.268 4.268 0 1 0-8.537 0 4.268 4.268 0 0 0 8.536 0Zm-4.269 0"/></g></g></svg>
