<svg xmlns="http://www.w3.org/2000/svg" width="281.934" height="204.163" viewBox="-72 -72 211.45 153.122"><g stroke="#000" stroke-miterlimit="10" stroke-width=".4"><g stroke="#1f2933" stroke-dasharray="3.0,3.0" stroke-width=".9"><path fill="none" d="M22.727-45.763-1.754-15.53"/><path fill="#1f2933" stroke-dasharray="none" stroke-width=".899973" d="m-3.445-13.443 3.51-1.91-1.961-.003-.411-1.918Z"/><g fill="#fff"><path stroke="none" d="M5.855-29.905h7v-8.445h-7Z"/><text x="-51.903" y="60.485" fill="#000" stroke="none" font-family="cmr10" font-size="10" transform="translate(58.758 -91.39)">0</text></g></g><g stroke="#1f2933" stroke-width=".9"><path fill="none" d="M44.183-45.763 68.665-15.53"/><path fill="#1f2933" stroke-width=".899973" d="m70.356-13.443-1.138-3.831-.412 1.918-1.961.003Z"/><g fill="#fff"><path stroke="none" d="M54.055-29.905h7v-8.445h-7Z"/><text x="-51.903" y="60.485" fill="#000" stroke="none" font-family="cmr10" font-size="10" transform="translate(106.958 -91.39)">1</text></g></g><g stroke="#1f2933" stroke-dasharray="3.0,3.0" stroke-width=".9"><path fill="none" d="m-23.117 13.988-16.026 25.886"/><path fill="#1f2933" stroke-dasharray="none" stroke-width=".899964" d="m-40.558 42.158 3.243-2.337-1.947.244-.65-1.85Z"/><g fill="#fff"><path stroke="none" d="M-36.89 28.424h7v-8.445h-7Z"/><text x="-51.903" y="60.485" fill="#000" stroke="none" font-family="cmr10" font-size="10" transform="translate(16.013 -33.062)">0</text></g></g><g stroke="#1f2933" stroke-width=".9"><path fill="none" d="M-9.235 13.988 1.144 38.204"/><path fill="#1f2933" stroke-width=".8999550000000001" d="m2.202 40.673-.051-3.996-.918 1.733-1.889-.53Z"/><g fill="#fff"><path stroke="none" d="M-4.618 27.933h7v-8.445h-7Z"/><text x="-51.903" y="60.485" fill="#000" stroke="none" font-family="cmr10" font-size="10" transform="translate(48.285 -33.553)">1</text></g></g><g stroke="#1f2933" stroke-dasharray="3.0,3.0" stroke-width=".9"><path fill="none" d="M76.145 13.988 65.766 38.204"/><path fill="#1f2933" stroke-dasharray="none" stroke-width=".8999550000000001" d="m64.708 40.673 2.858-2.793-1.888.53-.918-1.733Z"/><g fill="#fff"><path stroke="none" d="M64.528 27.933h7v-8.445h-7Z"/><text x="-51.903" y="60.485" fill="#000" stroke="none" font-family="cmr10" font-size="10" transform="translate(117.431 -33.553)">0</text></g></g><g stroke="#1f2933" stroke-width=".9"><path fill="none" d="m90.027 13.988 16.027 25.886"/><path fill="#1f2933" stroke-width=".899964" d="m107.468 42.158-.646-3.944-.65 1.85-1.946-.243Z"/><g fill="#fff"><path stroke="none" d="M96.8 28.424h7v-8.445h-7Z"/><text x="-51.903" y="60.485" fill="#000" stroke="none" font-family="cmr10" font-size="10" transform="translate(149.704 -33.062)">1</text></g></g><g fill="#fff" stroke="#1f2933" stroke-width=".9"><path d="M20.651-46.213H46.26V-71.82H20.65Z"/><g fill="#000" stroke="none"><text x="-51.903" y="60.485" font-family="cmmi10" font-size="10" transform="translate(78.725 -118.099)">m</text><text x="-43.123" y="61.985" font-family="cmr7" font-size="7" transform="translate(78.725 -118.099)">0</text></g></g><g fill="#fff" stroke="#1f2933" stroke-width=".9"><path d="M-27.718 13.538h25.607v-25.607h-25.607Z"/><g fill="#000" stroke="none"><text x="-51.903" y="60.485" font-family="cmmi10" font-size="10" transform="translate(30.356 -58.348)">m</text><text x="-43.123" y="61.985" font-family="cmr7" font-size="7" transform="translate(30.356 -58.348)">1</text></g></g><g fill="#fff" stroke="#1f2933" stroke-width=".9"><path d="M69.021 13.538h25.607v-25.607H69.021Z"/><g fill="#000" stroke="none"><text x="-51.903" y="60.485" font-family="cmmi10" font-size="10" transform="translate(127.095 -58.348)">m</text><text x="-43.123" y="61.985" font-family="cmr7" font-size="7" transform="translate(127.095 -58.348)">1</text></g></g><g fill="#fff" stroke="#1f2933" stroke-width=".9"><path d="M-31.986 60.485c0-11-8.917-19.917-19.917-19.917S-71.82 49.485-71.82 60.485s8.917 19.917 19.917 19.917 19.917-8.917 19.917-19.917Zm-19.917 0"/><g fill="#000" stroke="none"><text x="-51.903" y="60.485" font-family="cmmi7" font-size="7" transform="translate(-15.223 1.75)">p</text><text x="-47.781" y="60.485" font-family="cmr7" font-size="7" transform="translate(-15.223 1.75)">(</text><text x="-44.656" y="60.485" font-family="cmmi7" font-size="7" transform="translate(-15.223 1.75)">X</text><text x="-38.098" y="61.485" font-family="cmmi5" font-size="5" transform="translate(-15.223 1.75)">i</text><text x="-34.93" y="60.485" font-family="cmsy7" font-size="7" transform="translate(-15.223 1.75)">j</text><text x="-32.555" y="60.485" font-family="cmr7" font-size="7" transform="translate(-15.223 1.75)">00)</text></g></g><g fill="#fff" stroke="#1f2933" stroke-width=".9"><path d="M30.61 60.485c0-11-8.917-19.917-19.917-19.917S-9.224 49.485-9.224 60.485s8.917 19.917 19.917 19.917S30.61 71.485 30.61 60.485Zm-19.917 0"/><g fill="#000" stroke="none"><text x="-51.903" y="60.485" font-family="cmmi7" font-size="7" transform="translate(47.373 1.75)">p</text><text x="-47.781" y="60.485" font-family="cmr7" font-size="7" transform="translate(47.373 1.75)">(</text><text x="-44.656" y="60.485" font-family="cmmi7" font-size="7" transform="translate(47.373 1.75)">X</text><text x="-38.098" y="61.485" font-family="cmmi5" font-size="5" transform="translate(47.373 1.75)">i</text><text x="-34.93" y="60.485" font-family="cmsy7" font-size="7" transform="translate(47.373 1.75)">j</text><text x="-32.555" y="60.485" font-family="cmr7" font-size="7" transform="translate(47.373 1.75)">01)</text></g></g><g fill="#fff" stroke="#1f2933" stroke-width=".9"><path d="M76.134 60.485c0-11-8.917-19.917-19.917-19.917S36.3 49.485 36.3 60.485s8.917 19.917 19.917 19.917 19.917-8.917 19.917-19.917Zm-19.917 0"/><g fill="#000" stroke="none"><text x="-51.903" y="60.485" font-family="cmmi7" font-size="7" transform="translate(92.898 1.75)">p</text><text x="-47.781" y="60.485" font-family="cmr7" font-size="7" transform="translate(92.898 1.75)">(</text><text x="-44.656" y="60.485" font-family="cmmi7" font-size="7" transform="translate(92.898 1.75)">X</text><text x="-38.098" y="61.485" font-family="cmmi5" font-size="5" transform="translate(92.898 1.75)">i</text><text x="-34.93" y="60.485" font-family="cmsy7" font-size="7" transform="translate(92.898 1.75)">j</text><text x="-32.555" y="60.485" font-family="cmr7" font-size="7" transform="translate(92.898 1.75)">10)</text></g></g><g fill="#fff" stroke="#1f2933" stroke-width=".9"><path d="M138.73 60.485c0-11-8.917-19.917-19.917-19.917s-19.917 8.917-19.917 19.917 8.917 19.917 19.917 19.917 19.917-8.917 19.917-19.917Zm-19.917 0"/><g fill="#000" stroke="none"><text x="-51.903" y="60.485" font-family="cmmi7" font-size="7" transform="translate(155.494 1.75)">p</text><text x="-47.781" y="60.485" font-family="cmr7" font-size="7" transform="translate(155.494 1.75)">(</text><text x="-44.656" y="60.485" font-family="cmmi7" font-size="7" transform="translate(155.494 1.75)">X</text><text x="-38.098" y="61.485" font-family="cmmi5" font-size="5" transform="translate(155.494 1.75)">i</text><text x="-34.93" y="60.485" font-family="cmsy7" font-size="7" transform="translate(155.494 1.75)">j</text><text x="-32.555" y="60.485" font-family="cmr7" font-size="7" transform="translate(155.494 1.75)">11)</text></g></g></g></svg>
