<svg xmlns="http://www.w3.org/2000/svg" width="164.329" height="35.39" viewBox="-72 -72 123.247 26.542"><g stroke="#000" stroke-miterlimit="10" stroke-width=".4"><path fill="none" stroke="#1f2933" stroke-width=".9" d="M-60.439-60.439c49.792 13.278 49.792 13.278 99.585 0"/><g fill="#fff" stroke="#1f2933" stroke-width=".9"><path d="M-49.058-60.439c0-6.286-5.095-11.381-11.38-11.381-6.287 0-11.382 5.095-11.382 11.381s5.095 11.381 11.381 11.381 11.381-5.095 11.381-11.38Zm-11.38 0"/><g fill="#000" stroke="none"><text x="-60.439" y="-60.439" font-family="cmmi10" font-size="10" transform="translate(-5.1 1.403)">x</text><text x="-54.724" y="-58.939" font-family="cmr7" font-size="7" transform="translate(-5.1 1.403)">1</text></g></g><g fill="#fff" stroke="#1f2933" stroke-width=".9"><path d="M50.527-60.439c0-6.286-5.096-11.381-11.381-11.381s-11.381 5.095-11.381 11.381 5.095 11.381 11.38 11.381 11.382-5.095 11.382-11.38Zm-11.381 0"/><g fill="#000" stroke="none"><text x="-60.439" y="-60.439" font-family="cmmi10" font-size="10" transform="translate(94.484 1.403)">x</text><text x="-54.724" y="-58.939" font-family="cmr7" font-size="7" transform="translate(94.484 1.403)">2</text></g></g><g fill="#111827" stroke="#111827"><path d="M-6.094-50.48a4.552 4.552 0 1 0-9.105 0 4.552 4.552 0 0 0 9.105 0Zm-4.553 0"/></g></g></svg>
