<svg xmlns="http://www.w3.org/2000/svg" width="556.977" height="171.187" viewBox="-72 -72 417.733 128.39"><g stroke="#000" stroke-miterlimit="10" stroke-width=".4"><path fill="none" stroke="gray" stroke-dasharray="3.0,3.0" stroke-width=".9" d="M-.688 28.358v-99.585"/><path fill="none" stroke="#666" stroke-width=".9" d="M111.7 26.936v-71.132h233.312v71.132Zm233.312-71.132"/><path fill="none" stroke="#666" stroke-width=".9" d="M127.35 35.471V-35.66h204.859v71.132ZM332.208-35.66"/><path fill="none" stroke="#1f2933" stroke-width=".9" d="M-71.82-45.619h34.143M-37.677-45.619H30.61M30.61-45.619h36.988M67.598-45.619l31.298 18.494M98.896-27.125l31.299 2.846M-71.82 16.977h34.143M-37.677 16.977H30.61M30.61 16.977h36.988M67.598 16.977 98.896-1.517M98.896-1.517l31.299 12.804M67.598-45.619l59.751 8.536M67.598-45.619l59.751 18.494M67.598 16.977 127.35 1.328M67.598 16.977l59.751 8.536M130.195-24.28h79.667M130.195 11.287h79.667M209.862-24.28l31.298-8.535M209.862-24.28l31.298 7.114M209.862 11.287l31.298-9.959M209.862 11.287 241.16 18.4M269.613-24.28l-28.453-8.535M269.613-24.28 241.16 1.329M269.613 11.287 241.16-17.166M269.613 11.287 241.16 18.4M269.613-24.28h51.215M269.613 11.287h51.215"/><g stroke="none" font-size="10"><text x="-71.82" y="45.43" font-family="cmmi10" transform="translate(25.617 -110.755)">k</text><text x="-64.077" y="45.43" font-family="cmsy10" transform="translate(25.617 -110.755)">¡</text><text x="-54.077" y="45.43" font-family="cmr10" transform="translate(25.617 -110.755)">1</text></g><text x="-71.82" y="45.43" stroke="none" font-family="cmmi10" font-size="10" transform="translate(190.718 -110.339)">k</text><g stroke="none" font-family="cmr10" font-size="10"><text x="-71.82" y="37.43" transform="translate(31.332 -53.645)">.</text><text x="-71.82" y="41.43" transform="translate(31.332 -53.645)">.</text><text x="-71.82" y="45.43" transform="translate(31.332 -53.645)">.</text></g><g stroke="none" font-family="cmr10" font-size="10"><text x="-71.82" y="37.43" transform="translate(135.184 -53.645)">.</text><text x="-71.82" y="41.43" transform="translate(135.184 -53.645)">.</text><text x="-71.82" y="45.43" transform="translate(135.184 -53.645)">.</text></g><g stroke="none" font-family="cmr10" font-size="10"><text x="-71.82" y="37.43" transform="translate(294.52 -53.645)">.</text><text x="-71.82" y="41.43" transform="translate(294.52 -53.645)">.</text><text x="-71.82" y="45.43" transform="translate(294.52 -53.645)">.</text></g><g stroke="none" font-family="cmr10" font-size="10"><text x="-71.82" y="37.43" transform="translate(385.569 -53.645)">.</text><text x="-71.82" y="41.43" transform="translate(385.569 -53.645)">.</text><text x="-71.82" y="45.43" transform="translate(385.569 -53.645)">.</text></g><g stroke="none" font-family="cmr10" font-size="10"><text x="-71.82" y="37.43" transform="translate(338.621 -29.46)">.</text><text x="-71.82" y="41.43" transform="translate(338.621 -29.46)">.</text><text x="-71.82" y="45.43" transform="translate(338.621 -29.46)">.</text></g><g stroke="none" font-family="cmr10" font-size="10"><text x="-71.82" y="37.43" transform="translate(338.621 -76.408)">.</text><text x="-71.82" y="41.43" transform="translate(338.621 -76.408)">.</text><text x="-71.82" y="45.43" transform="translate(338.621 -76.408)">.</text></g><g stroke="none"><text x="-71.82" y="45.43" font-family="cmmi9" font-size="9" transform="translate(382.378 -83.92)">s</text><text x="-64.942" y="45.43" font-family="cmr9" font-size="9" transform="translate(382.378 -83.92)">=</text><text x="-55.178" y="45.43" font-family="cmmi9" font-size="9" transform="translate(382.378 -83.92)">n</text><text x="-49.598" y="46.43" font-family="cmmi6" font-size="6" transform="translate(382.378 -83.92)">s</text></g><g stroke="none" font-size="9"><text x="-71.82" y="45.43" font-family="cmmi9" transform="translate(374.901 -71.077)">s</text><text x="-64.942" y="45.43" font-family="cmr9" transform="translate(374.901 -71.077)">=</text><text x="-55.178" y="45.43" font-family="cmr9" transform="translate(374.901 -71.077)">1</text></g><g stroke="none" font-size="5"><text x="-71.82" y="45.43" font-family="cmmi5" transform="translate(305.855 -83.436)">Ã</text><text x="-67.167" y="46.93" font-family="cmr5" transform="translate(305.855 -83.436)">1</text><text x="-63.764" y="46.93" font-family="cmmi5" transform="translate(305.855 -83.436)">;</text><text x="-61.473" y="46.93" font-family="cmr5" transform="translate(305.855 -83.436)">1</text></g><g stroke="none" font-size="5"><text x="-71.82" y="45.43" font-family="cmmi5" transform="translate(300.612 -63.533)">Ã</text><text x="-67.167" y="46.93" font-family="cmr5" transform="translate(300.612 -63.533)">1</text><text x="-63.764" y="46.93" font-family="cmmi5" transform="translate(300.612 -63.533)">;n</text><text x="-57.069" y="47.93" font-family="cmmi5" transform="translate(300.612 -63.533)">m</text></g><g stroke="none" font-size="5"><text x="-71.82" y="45.43" font-family="cmmi5" transform="translate(299.189 -43.616)">Ã</text><text x="-67.167" y="46.93" font-family="cmmi5" transform="translate(299.189 -43.616)">n</text><text x="-62.763" y="47.93" font-family="cmmi5" transform="translate(299.189 -43.616)">m</text><text x="-56.123" y="46.93" font-family="cmmi5" transform="translate(299.189 -43.616)">;</text><text x="-53.831" y="46.93" font-family="cmr5" transform="translate(299.189 -43.616)">1</text></g><g stroke="none" font-family="cmmi5" font-size="5"><text x="-71.82" y="45.43" transform="translate(292.523 -24.871)">Ã</text><text x="-67.167" y="46.43" transform="translate(292.523 -24.871)">n</text><text x="-62.763" y="47.43" transform="translate(292.523 -24.871)">m</text><text x="-56.123" y="46.43" transform="translate(292.523 -24.871)">;n</text><text x="-49.427" y="47.43" transform="translate(292.523 -24.871)">m</text></g><g stroke="none" font-size="10"><text x="-71.82" y="45.43" font-family="cmr10" transform="translate(195.523 8.19)">(</text><text x="-67.931" y="45.43" font-family="cmmi10" transform="translate(195.523 8.19)">d</text><text x="-62.726" y="45.43" font-family="cmr10" transform="translate(195.523 8.19)">)</text></g><g fill="#ececec" stroke="#1f2933" stroke-width=".9"><path fill="#ececec" d="M-24.873-45.619c0-7.071-5.732-12.804-12.804-12.804-7.071 0-12.804 5.733-12.804 12.804s5.733 12.804 12.804 12.804 12.804-5.732 12.804-12.804Zm-12.804 0"/><g fill="#000" stroke="none"><text x="-71.82" y="45.43" font-family="cmmi7" font-size="7" transform="translate(28.917 -89.345)">x</text><text x="-67.285" y="42.412" font-family="cmr5" font-size="5" transform="translate(28.917 -89.345)">1</text><text x="-67.285" y="47.43" font-family="cmsy5" font-size="5" transform="translate(28.917 -89.345)">¡</text></g></g><g fill="#cfc" stroke="#1f2933" stroke-width=".9"><path fill="#cfc" d="M17.806-32.815h25.608v-25.608H17.806Z"/><g fill="#000" stroke="none"><text x="-71.82" y="45.43" font-family="cmmi7" font-size="7" transform="translate(98.137 -88.61)">f</text><text x="-67.136" y="42.412" font-family="cmr5" font-size="5" transform="translate(98.137 -88.61)">1</text></g></g><g fill="#ececec" stroke="#1f2933" stroke-width=".9"><path fill="#ececec" d="M80.402-45.619c0-7.071-5.732-12.804-12.804-12.804-7.071 0-12.803 5.733-12.803 12.804s5.732 12.804 12.803 12.804 12.804-5.732 12.804-12.804Zm-12.804 0"/><g fill="#000" stroke="none"><text x="-71.82" y="45.43" font-family="cmmi7" font-size="7" transform="translate(135.2 -87.929)">x</text><text x="-67.285" y="42.412" font-family="cmr5" font-size="5" transform="translate(135.2 -87.929)">1</text></g></g><g fill="#fcc" stroke="#1f2933" stroke-width=".9"><path fill="#fcc" d="M86.093-14.321H111.7v-25.607H86.093Z"/><g fill="#000" stroke="none" font-size="7"><text x="-71.82" y="45.43" font-family="cmmi7" transform="translate(165.362 -70.805)">g</text><text x="-67.668" y="45.43" font-family="cmr7" transform="translate(165.362 -70.805)">1</text><text x="-63.681" y="45.43" font-family="cmmi7" transform="translate(165.362 -70.805)">l</text></g></g><g fill="#fcc" stroke="#1f2933" stroke-width=".9"><path fill="#fcc" d="M117.39-11.476h25.608v-25.607h-25.607Z"/><g fill="#000" stroke="none"><text x="-71.82" y="45.43" font-family="cmmi7" font-size="7" transform="translate(197.987 -67.27)">g</text><text x="-67.668" y="42.412" font-family="cmr5" font-size="5" transform="translate(197.987 -67.27)">1</text></g></g><g fill="#ececec" stroke="#1f2933" stroke-width=".9"><path fill="#ececec" d="M-24.873 16.977c0-7.071-5.732-12.804-12.804-12.804-7.071 0-12.804 5.733-12.804 12.804s5.733 12.804 12.804 12.804 12.804-5.733 12.804-12.804Zm-12.804 0"/><g fill="#000" stroke="none"><text x="-71.82" y="45.43" font-family="cmmi7" font-size="7" transform="translate(27.498 -27.349)">x</text><text x="-67.285" y="42.019" font-family="cmmi5" font-size="5" transform="translate(27.498 -27.349)">n</text><text x="-62.881" y="43.019" font-family="cmmi5" font-size="5" transform="translate(27.498 -27.349)">s</text><text x="-67.285" y="47.952" font-family="cmsy5" font-size="5" transform="translate(27.498 -27.349)">¡</text></g></g><g fill="#cfc" stroke="#1f2933" stroke-width=".9"><path fill="#cfc" d="M17.806 29.78h25.608V4.174H17.806Z"/><g fill="#000" stroke="none"><text x="-71.82" y="45.43" font-family="cmmi7" font-size="7" transform="translate(95.71 -26.548)">f</text><text x="-67.136" y="42.412" font-family="cmmi5" font-size="5" transform="translate(95.71 -26.548)">n</text><text x="-62.732" y="43.412" font-family="cmmi5" font-size="5" transform="translate(95.71 -26.548)">s</text></g></g><g fill="#ececec" stroke="#1f2933" stroke-width=".9"><path fill="#ececec" d="M80.402 16.977c0-7.071-5.732-12.804-12.804-12.804-7.071 0-12.803 5.733-12.803 12.804s5.732 12.804 12.803 12.804 12.804-5.733 12.804-12.804Zm-12.804 0"/><g fill="#000" stroke="none"><text x="-71.82" y="45.43" font-family="cmmi7" font-size="7" transform="translate(132.774 -25.867)">x</text><text x="-67.285" y="42.412" font-family="cmmi5" font-size="5" transform="translate(132.774 -25.867)">n</text><text x="-62.881" y="43.412" font-family="cmmi5" font-size="5" transform="translate(132.774 -25.867)">s</text></g></g><g fill="#fcc" stroke="#1f2933" stroke-width=".9"><path fill="#fcc" d="M86.093 11.287H111.7v-25.608H86.093Z"/><g fill="#000" stroke="none" font-family="cmmi7" font-size="7"><text x="-71.82" y="45.43" transform="translate(164.884 -45.197)">g</text><text x="-67.668" y="45.43" transform="translate(164.884 -45.197)">nl</text></g></g><g fill="#fcc" stroke="#1f2933" stroke-width=".9"><path fill="#fcc" d="M117.39 24.09h25.608V-1.517h-25.607Z"/><g fill="#000" stroke="none"><text x="-71.82" y="45.43" font-family="cmmi7" font-size="7" transform="translate(195.561 -32.238)">g</text><text x="-67.668" y="42.412" font-family="cmmi5" font-size="5" transform="translate(195.561 -32.238)">n</text><text x="-63.264" y="43.412" font-family="cmmi5" font-size="5" transform="translate(195.561 -32.238)">s</text></g></g><g fill="#ececec" stroke="#1f2933" stroke-width=".9"><path fill="#ececec" d="M222.666-24.28c0-7.07-5.733-12.803-12.804-12.803s-12.804 5.732-12.804 12.804c0 7.071 5.733 12.803 12.804 12.803s12.804-5.732 12.804-12.803Zm-12.804 0"/><g fill="#000" stroke="none"><text x="-71.82" y="45.43" font-family="cmmi7" font-size="7" transform="translate(277.562 -66.59)">a</text><text x="-67.482" y="42.412" font-family="cmr5" font-size="5" transform="translate(277.562 -66.59)">1</text></g></g><g fill="#ececec" stroke="#1f2933" stroke-width=".9"><path fill="#ececec" d="M282.417-24.28c0-7.07-5.733-12.803-12.804-12.803s-12.804 5.732-12.804 12.804c0 7.071 5.733 12.803 12.804 12.803s12.804-5.732 12.804-12.803Zm-12.804 0"/><g fill="#000" stroke="none"><text x="-71.82" y="45.43" font-family="cmmi7" font-size="7" transform="translate(337.723 -66.59)">b</text><text x="-68.303" y="42.412" font-family="cmr5" font-size="5" transform="translate(337.723 -66.59)">1</text></g></g><g fill="#ececec" stroke="#1f2933" stroke-width=".9"><path fill="#ececec" d="M222.666 11.287c0-7.072-5.733-12.804-12.804-12.804s-12.804 5.732-12.804 12.804c0 7.071 5.733 12.803 12.804 12.803s12.804-5.732 12.804-12.803Zm-12.804 0"/><g fill="#000" stroke="none"><text x="-71.82" y="45.43" font-family="cmmi7" font-size="7" transform="translate(273.741 -31.558)">a</text><text x="-67.482" y="42.412" font-family="cmmi5" font-size="5" transform="translate(273.741 -31.558)">n</text><text x="-63.078" y="43.412" font-family="cmmi5" font-size="5" transform="translate(273.741 -31.558)">m</text></g></g><g fill="#ececec" stroke="#1f2933" stroke-width=".9"><path fill="#ececec" d="M282.417 11.287c0-7.072-5.733-12.804-12.804-12.804s-12.804 5.732-12.804 12.804c0 7.071 5.733 12.803 12.804 12.803s12.804-5.732 12.804-12.803Zm-12.804 0"/><g fill="#000" stroke="none"><text x="-71.82" y="45.43" font-family="cmmi7" font-size="7" transform="translate(333.903 -31.558)">b</text><text x="-68.303" y="42.412" font-family="cmmi5" font-size="5" transform="translate(333.903 -31.558)">n</text><text x="-63.899" y="43.412" font-family="cmmi5" font-size="5" transform="translate(333.903 -31.558)">m</text></g></g><g fill="#fcc" stroke="#1f2933" stroke-width=".9"><path fill="#fcc" d="M234.913-28.547h12.494v-8.536h-12.494Z"/><g fill="#000" stroke="none" font-size="7"><text x="-71.82" y="45.43" font-family="cmmi7" transform="translate(306.933 -76.67)">p</text><text x="-67.698" y="45.43" font-family="cmr7" transform="translate(306.933 -76.67)">11</text></g></g><g fill="#fcc" stroke="#1f2933" stroke-width=".9"><path fill="#fcc" d="M234.434-12.898h13.452v-8.536h-13.452Z"/><g fill="#000" stroke="none" font-size="7"><text x="-71.82" y="45.43" font-family="cmmi7" transform="translate(306.454 -61.02)">p</text><text x="-67.698" y="45.43" font-family="cmr7" transform="translate(306.454 -61.02)">1</text><text x="-63.712" y="45.43" font-family="cmmi7" transform="translate(306.454 -61.02)">n</text></g></g><g fill="#fcc" stroke="#1f2933" stroke-width=".9"><path fill="#fcc" d="M234.434 5.596h13.452V-2.94h-13.452Z"/><g fill="#000" stroke="none" font-size="7"><text x="-71.82" y="45.43" font-family="cmmi7" transform="translate(306.454 -42.527)">pn</text><text x="-62.754" y="45.43" font-family="cmr7" transform="translate(306.454 -42.527)">1</text></g></g><g fill="#fcc" stroke="#1f2933" stroke-width=".9"><path fill="#fcc" d="M233.956 22.668h14.409v-8.536h-14.41Z"/><text x="-71.82" y="45.43" fill="#000" stroke="none" font-family="cmmi7" font-size="7" transform="translate(305.976 -26.204)">pnn</text></g><g fill="#fcc" stroke="#1f2933" stroke-width=".9"><path fill="#fcc" d="M308.024-11.476h25.608v-25.607h-25.608Z"/><g fill="#000" stroke="none"><text x="-71.82" y="45.43" font-family="cmmi7" font-size="7" transform="translate(388.356 -66.59)">h</text><text x="-67.138" y="42.412" font-family="cmr5" font-size="5" transform="translate(388.356 -66.59)">1</text></g></g><g fill="#fcc" stroke="#1f2933" stroke-width=".9"><path fill="#fcc" d="M308.024 24.09h25.608V-1.517h-25.608Z"/><g fill="#000" stroke="none"><text x="-71.82" y="45.43" font-family="cmmi7" font-size="7" transform="translate(384.535 -31.558)">h</text><text x="-67.138" y="42.412" font-family="cmmi5" font-size="5" transform="translate(384.535 -31.558)">n</text><text x="-62.734" y="43.412" font-family="cmmi5" font-size="5" transform="translate(384.535 -31.558)">m</text></g></g></g></svg>
