<svg xmlns="http://www.w3.org/2000/svg" width="192.448" height="135.543" viewBox="-72 -72 144.336 101.657"><g stroke="#000" stroke-miterlimit="10" stroke-width=".4"><path fill="none" stroke="#1f2933" stroke-width=".9" d="M-23.5-59.016H2.88M-66.18-16.337h26.38M-26.546 23.297v-26.38M13.088-16.337h-26.38M19.179-16.337h26.38M16.133-19.382v-26.38M58.813 23.297v-26.38"/><g fill="#fff" stroke="#1f2933" stroke-width=".9"><path d="M-13.742-16.337c0-7.072-5.732-12.804-12.804-12.804-7.071 0-12.803 5.732-12.803 12.804 0 7.071 5.732 12.804 12.803 12.804s12.804-5.733 12.804-12.804Zm-12.804 0"/><g fill="#000" stroke="none"><text x="-26.546" y="-16.337" font-family="cmmi9" font-size="9" transform="translate(-4.705 1.438)">x</text><text x="-21.303" y="-15.337" font-family="cmr6" font-size="6" transform="translate(-4.705 1.438)">0</text></g></g><g fill="#fff" stroke="#1f2933" stroke-width=".9"><path d="M71.616-16.337c0-7.072-5.732-12.804-12.803-12.804s-12.804 5.732-12.804 12.804c0 7.071 5.732 12.804 12.804 12.804 7.071 0 12.803-5.733 12.803-12.804Zm-12.803 0"/><g fill="#000" stroke="none"><text x="-26.546" y="-16.337" font-family="cmmi9" font-size="9" transform="translate(80.653 1.438)">x</text><text x="-21.303" y="-15.337" font-family="cmr6" font-size="6" transform="translate(80.653 1.438)">1</text></g></g><g fill="#fff" stroke="#1f2933" stroke-width=".9"><path d="M3.33-46.213h25.607V-71.82H3.33Z"/><g fill="#000" stroke="none"><text x="-26.546" y="-16.337" font-family="cmmi9" font-size="9" transform="translate(36.521 -41.242)">m</text><text x="-18.396" y="-15.337" font-family="cmr6" font-size="6" transform="translate(36.521 -41.242)">1</text></g></g><g fill="#111827" stroke="#111827"><path d="M-29.39-56.171h5.69v-5.69h-5.69Z"/></g><g fill="#111827" stroke="#111827"><path d="M-72.07-13.492h5.69v-5.69h-5.69Z"/></g><g fill="#111827" stroke="#111827"><path d="M-29.39 29.187h5.69v-5.69h-5.69Z"/></g><g fill="#111827" stroke="#111827"><path d="M13.288-13.492h5.69v-5.69h-5.69Z"/></g><g fill="#111827" stroke="#111827"><path d="M55.967 29.187h5.69v-5.69h-5.69Z"/></g></g></svg>
