<svg xmlns="http://www.w3.org/2000/svg" width="164.329" height="164.329" viewBox="-72 -72 123.247 123.247"><g stroke="#000" stroke-miterlimit="10" stroke-width=".4"><g stroke="#1f2933" stroke-width=".9"><path fill="none" d="M39.146 27.315v-72.047"/><path fill="#1f2933" d="m39.146-47.42-1.527 3.694 1.527-1.231 1.526 1.231Z"/></g><path fill="none" stroke="#1f2933" stroke-width=".9" d="m-14.007-7.286-34.603 34.6M-7.286-7.286 30.78 30.78"/><g fill="#fff" stroke="#1f2933" stroke-width=".9"><path d="M-71.82 50.527h22.762V27.765H-71.82Z"/><g fill="#000" stroke="none"><text x="-60.439" y="39.146" font-family="cmmi10" font-size="10" transform="translate(-4.623 1.403)">u</text><text x="-54.714" y="40.646" font-family="cmmi7" font-size="7" transform="translate(-4.623 1.403)">t</text></g></g><g fill="#fff" stroke="#1f2933" stroke-width=".9"><path d="M50.527 39.146c0-6.286-5.096-11.381-11.381-11.381s-11.381 5.095-11.381 11.38 5.095 11.382 11.38 11.382 11.382-5.096 11.382-11.381Zm-11.381 0"/><g fill="#000" stroke="none"><text x="-60.439" y="39.146" font-family="cmmi10" font-size="10" transform="translate(94.967 1.403)">x</text><text x="-54.724" y="40.646" font-family="cmmi7" font-size="7" transform="translate(94.967 1.403)">t</text></g></g><g fill="#fff" stroke="#1f2933" stroke-width=".9"><path d="M50.527-60.439c0-6.286-5.096-11.381-11.381-11.381s-11.381 5.095-11.381 11.381 5.095 11.381 11.38 11.381 11.382-5.095 11.382-11.38Zm-11.381 0"/><g fill="#000" stroke="none"><text x="-60.439" y="39.146" font-family="cmmi10" font-size="10" transform="translate(95.74 -96.862)">`</text><text x="-56.272" y="40.646" font-family="cmmi7" font-size="7" transform="translate(95.74 -96.862)">t</text></g></g><g fill="#111827" stroke="#111827"><path d="M-6.094-10.647a4.552 4.552 0 1 0-9.105 0 4.552 4.552 0 0 0 9.105 0Zm-4.553 0"/></g></g></svg>
