<svg xmlns="http://www.w3.org/2000/svg" width="164.329" height="164.329" viewBox="-72 -72 123.247 123.247"><g stroke="#000" stroke-miterlimit="10" stroke-width=".4"><g stroke="#1f2933" stroke-width=".9"><path fill="none" d="m-55.148 28.564 37.478-74.956"/><path fill="#1f2933" stroke-width=".8999280000000001" d="m-16.469-48.795-3.017 2.62 1.916-.418.815 1.784Z"/></g><g stroke="#1f2933" stroke-width=".9"><path fill="none" d="M33.233 27.315-3.623-46.391"/><path fill="#1f2933" stroke-width=".8999550000000001" d="m-4.825-48.795.287 3.986.814-1.784 1.917.419Z"/></g><g fill="#fff" stroke="#1f2933" stroke-width=".9"><path d="M-49.058 39.146c0-6.286-5.095-11.381-11.38-11.381-6.287 0-11.382 5.095-11.382 11.38s5.095 11.382 11.381 11.382 11.381-5.096 11.381-11.381Zm-11.38 0"/><g fill="#000" stroke="none"><text x="-60.439" y="39.146" font-family="cmmi10" font-size="10" transform="translate(-5.1 1.403)">x</text><text x="-54.724" y="40.646" font-family="cmr7" font-size="7" transform="translate(-5.1 1.403)">1</text></g></g><g fill="#fff" stroke="#1f2933" stroke-width=".9"><path d="M27.765 50.527h22.762V27.765H27.765Z"/><g fill="#000" stroke="none"><text x="-60.439" y="39.146" font-family="cmmi10" font-size="10" transform="translate(94.484 1.403)">x</text><text x="-54.724" y="40.646" font-family="cmr7" font-size="7" transform="translate(94.484 1.403)">2</text></g></g><g fill="#fff" stroke="#1f2933" stroke-width=".9"><path d="M.734-60.439c0-6.286-5.095-11.381-11.38-11.381s-11.382 5.095-11.382 11.381 5.096 11.381 11.381 11.381S.734-54.153.734-60.438Zm-11.38 0"/><g fill="#000" stroke="none"><text x="-60.439" y="39.146" font-family="cmmi10" font-size="10" transform="translate(46.057 -96.862)">l</text><text x="-57.455" y="40.646" font-family="cmr7" font-size="7" transform="translate(46.057 -96.862)">1</text></g></g></g></svg>
