<svg xmlns="http://www.w3.org/2000/svg" width="333.528" height="127.563" viewBox="-72 -72 250.146 95.672"><g stroke="#000" stroke-miterlimit="10" stroke-width=".4"><path fill="none" stroke="gray" stroke-dasharray="3.0,3.0" stroke-width=".9" d="M-.688 22.668v-93.895zm0-93.895"/><path fill="none" stroke="#1f2933" stroke-width=".9" d="M-71.82-48.464h28.453ZM-71.82 11.287h28.453Zm28.453 0"/><path fill="none" stroke="#cfc" stroke-width=".9" d="M9.355-48.464h-40.607M29.103-48.464h13.576"/><path fill="none" stroke="#fcc" stroke-width=".9" d="m98.981-35.672-32.55-9.424M118.729-30.594l35.212 7.923"/><path fill="none" stroke="#cfc" stroke-width=".9" d="M9.355 11.287h-40.607M29.103 11.287h13.576"/><path fill="none" stroke="#fcc" stroke-width=".9" d="m98.981-1.506-32.55 9.424M118.729-7.077l35.35-9.722M165.76-2.286v-5.61"/><g stroke="none" font-size="10"><text x="-71.82" y="45.43" font-family="cmmi10" transform="translate(31.308 -110.755)">k</text><text x="-64.077" y="45.43" font-family="cmsy10" transform="translate(31.308 -110.755)">¡</text><text x="-54.077" y="45.43" font-family="cmr10" transform="translate(31.308 -110.755)">1</text></g><text x="-71.82" y="45.43" stroke="none" font-family="cmmi10" font-size="10" transform="translate(190.718 -110.339)">k</text><g stroke="none" font-family="cmr10" font-size="10"><text x="-71.82" y="37.43" transform="translate(35.6 -55.068)">.</text><text x="-71.82" y="41.43" transform="translate(35.6 -55.068)">.</text><text x="-71.82" y="45.43" transform="translate(35.6 -55.068)">.</text></g><g stroke="none" font-family="cmr10" font-size="10"><text x="-71.82" y="37.43" transform="translate(135.184 -55.068)">.</text><text x="-71.82" y="41.43" transform="translate(135.184 -55.068)">.</text><text x="-71.82" y="45.43" transform="translate(135.184 -55.068)">.</text></g><g fill="#ececec" stroke="#1f2933" stroke-width=".9"><path fill="#ececec" d="M-31.702-48.464c0-6.443-5.222-11.666-11.665-11.666s-11.666 5.223-11.666 11.666S-49.81-36.8-43.367-36.8s11.665-5.222 11.665-11.665Zm-11.665 0"/><g fill="#000" stroke="none"><text x="-71.82" y="45.43" font-family="cmmi10" font-size="10" transform="translate(22.22 -91.477)">x</text><text x="-66.105" y="41.801" font-family="cmr7" font-size="7" transform="translate(22.22 -91.477)">1</text><text x="-66.105" y="47.902" font-family="cmsy7" font-size="7" transform="translate(22.22 -91.477)">¡</text></g></g><g fill="#ececec" stroke="#1f2933" stroke-width=".9"><path fill="#ececec" d="M66.46-48.464c0-6.443-5.223-11.666-11.665-11.666-6.443 0-11.666 5.223-11.666 11.666S48.352-36.8 54.795-36.8c6.442 0 11.665-5.222 11.665-11.665Zm-11.665 0"/><g fill="#000" stroke="none"><text x="-71.82" y="45.43" font-family="cmmi10" font-size="10" transform="translate(121.514 -89.824)">x</text><text x="-66.105" y="41.801" font-family="cmr7" font-size="7" transform="translate(121.514 -89.824)">1</text></g></g><g fill="#ececec" stroke="#1f2933" stroke-width=".9"><path fill="#ececec" d="M-31.702 11.287c0-6.443-5.222-11.666-11.665-11.666s-11.666 5.223-11.666 11.666c0 6.442 5.223 11.665 11.666 11.665s11.665-5.223 11.665-11.665Zm-11.665 0"/><g fill="#000" stroke="none"><text x="-71.82" y="45.43" font-family="cmmi10" font-size="10" transform="translate(21.214 -32.075)">x</text><text x="-66.105" y="40.985" font-family="cmmi7" font-size="7" transform="translate(21.214 -32.075)">n</text><text x="-61.161" y="41.985" font-family="cmmi5" font-size="5" transform="translate(21.214 -32.075)">t</text><text x="-66.105" y="47.919" font-family="cmsy7" font-size="7" transform="translate(21.214 -32.075)">¡</text></g></g><g fill="#ececec" stroke="#1f2933" stroke-width=".9"><path fill="#ececec" d="M66.46 11.287C66.46 4.844 61.237-.38 54.795-.38c-6.443 0-11.666 5.223-11.666 11.666 0 6.442 5.223 11.665 11.666 11.665 6.442 0 11.665-5.223 11.665-11.665Zm-11.665 0"/><g fill="#000" stroke="none"><text x="-71.82" y="45.43" font-family="cmmi10" font-size="10" transform="translate(119.376 -30.822)">x</text><text x="-66.105" y="41.801" font-family="cmmi7" font-size="7" transform="translate(119.376 -30.822)">n</text><text x="-61.161" y="42.801" font-family="cmmi5" font-size="5" transform="translate(119.376 -30.822)">t</text></g></g><g fill="#ececec" stroke="#1f2933" stroke-width=".9"><path fill="#ececec" d="M177.426-20.012c0-6.442-5.223-11.665-11.665-11.665-6.443 0-11.666 5.223-11.666 11.665 0 6.443 5.223 11.666 11.666 11.666 6.442 0 11.665-5.223 11.665-11.666Zm-11.665 0"/><text x="-71.82" y="45.43" fill="#000" stroke="none" font-family="cmmi10" font-size="10" transform="translate(234.938 -63.289)">a</text></g><g fill="#cfc" stroke="#cfc"><path fill="#cfc" stroke="#cfc" d="M9.555-38.79h19.348v-19.348H9.555Z"/><g fill="#000" stroke="none"><text x="-71.82" y="45.43" font-family="cmmi7" font-size="7" transform="translate(86.755 -91.455)">f</text><text x="-67.136" y="42.412" font-family="cmr5" font-size="5" transform="translate(86.755 -91.455)">1</text></g></g><g fill="#fcc" stroke="#fcc"><path fill="#fcc" stroke="#fcc" d="M99.181-23.141h19.348V-42.49H99.181Z"/><g fill="#000" stroke="none"><text x="-71.82" y="45.43" font-family="cmmi7" font-size="7" transform="translate(176.647 -75.806)">g</text><text x="-67.668" y="42.412" font-family="cmr5" font-size="5" transform="translate(176.647 -75.806)">1</text></g></g><g fill="#cfc" stroke="#cfc"><path fill="#cfc" stroke="#cfc" d="M9.555 20.96h19.348V1.614H9.555Z"/><g fill="#000" stroke="none"><text x="-71.82" y="45.43" font-family="cmmi7" font-size="7" transform="translate(84.33 -32.238)">f</text><text x="-67.136" y="42.412" font-family="cmmi5" font-size="5" transform="translate(84.33 -32.238)">n</text><text x="-62.732" y="43.412" font-family="cmmi5" font-size="5" transform="translate(84.33 -32.238)">s</text></g></g><g fill="#fcc" stroke="#fcc"><path fill="#fcc" stroke="#fcc" d="M99.181 5.311h19.348v-19.347H99.181Z"/><g fill="#000" stroke="none"><text x="-71.82" y="45.43" font-family="cmmi7" font-size="7" transform="translate(174.222 -47.888)">g</text><text x="-67.668" y="42.412" font-family="cmmi5" font-size="5" transform="translate(174.222 -47.888)">n</text><text x="-63.264" y="43.412" font-family="cmmi5" font-size="5" transform="translate(174.222 -47.888)">s</text></g></g><g fill="#fcc" stroke="#fcc"><path fill="#fcc" stroke="#fcc" d="M156.656 16.123h18.21v-18.21h-18.21Z"/><text x="-71.82" y="45.43" fill="#000" stroke="none" font-family="cmmi7" font-size="7" transform="translate(234.81 -36.661)">Ã</text></g></g></svg>
