<svg xmlns="http://www.w3.org/2000/svg" width="321.768" height="171.187" viewBox="-72 -72 241.326 128.39"><g stroke="#000" stroke-miterlimit="10" stroke-width=".4"><path fill="none" stroke="gray" stroke-dasharray="3.0,3.0" stroke-width=".9" d="M-.688 22.668v-93.895"/><path fill="none" stroke="#1f2933" stroke-width=".9" d="M-71.82-48.464h28.453M-43.367-48.464h62.596M19.229-48.464h34.143M53.372-48.464l51.215 14.226M104.587-34.238l51.215 14.226M-71.82 11.287h28.453M-43.367 11.287h62.596M19.229 11.287h34.143M53.372 11.287 104.587-2.94M104.587-2.94l51.215-17.072M155.802-20.012v27.03"/><g stroke="none" font-size="10"><text x="-71.82" y="45.43" font-family="cmmi10" transform="translate(31.308 -110.755)">k</text><text x="-64.077" y="45.43" font-family="cmsy10" transform="translate(31.308 -110.755)">¡</text><text x="-54.077" y="45.43" font-family="cmr10" transform="translate(31.308 -110.755)">1</text></g><text x="-71.82" y="45.43" stroke="none" font-family="cmmi10" font-size="10" transform="translate(190.718 -110.339)">k</text><g stroke="none" font-family="cmr10" font-size="10"><text x="-71.82" y="37.43" transform="translate(35.6 -55.068)">.</text><text x="-71.82" y="41.43" transform="translate(35.6 -55.068)">.</text><text x="-71.82" y="45.43" transform="translate(35.6 -55.068)">.</text></g><g stroke="none" font-family="cmr10" font-size="10"><text x="-71.82" y="37.43" transform="translate(135.184 -55.068)">.</text><text x="-71.82" y="41.43" transform="translate(135.184 -55.068)">.</text><text x="-71.82" y="45.43" transform="translate(135.184 -55.068)">.</text></g><g stroke="none" font-size="10"><text x="-71.82" y="45.43" font-family="cmr10" transform="translate(193.134 8.19)">(</text><text x="-67.931" y="45.43" font-family="cmmi10" transform="translate(193.134 8.19)">b</text><text x="-63.639" y="45.43" font-family="cmr10" transform="translate(193.134 8.19)">)</text></g><g fill="#ececec" stroke="#1f2933" stroke-width=".9"><path fill="#ececec" d="M-30.564-48.464c0-7.072-5.732-12.804-12.803-12.804s-12.804 5.732-12.804 12.804c0 7.071 5.732 12.803 12.804 12.803 7.071 0 12.803-5.732 12.803-12.803Zm-12.803 0"/><g fill="#000" stroke="none"><text x="-71.82" y="45.43" font-family="cmmi7" font-size="7" transform="translate(23.227 -92.19)">x</text><text x="-67.285" y="42.412" font-family="cmr5" font-size="5" transform="translate(23.227 -92.19)">1</text><text x="-67.285" y="47.43" font-family="cmsy5" font-size="5" transform="translate(23.227 -92.19)">¡</text></g></g><g fill="#cfc" stroke="#1f2933" stroke-width=".9"><path fill="#cfc" d="M6.425-35.66h25.607v-25.608H6.425Z"/><g fill="#000" stroke="none"><text x="-71.82" y="45.43" font-family="cmmi7" font-size="7" transform="translate(86.755 -91.455)">f</text><text x="-67.136" y="42.412" font-family="cmr5" font-size="5" transform="translate(86.755 -91.455)">1</text></g></g><g fill="#ececec" stroke="#1f2933" stroke-width=".9"><path fill="#ececec" d="M66.176-48.464c0-7.072-5.733-12.804-12.804-12.804s-12.804 5.732-12.804 12.804c0 7.071 5.733 12.803 12.804 12.803s12.804-5.732 12.804-12.803Zm-12.804 0"/><g fill="#000" stroke="none"><text x="-71.82" y="45.43" font-family="cmmi7" font-size="7" transform="translate(120.973 -90.774)">x</text><text x="-67.285" y="42.412" font-family="cmr5" font-size="5" transform="translate(120.973 -90.774)">1</text></g></g><g fill="#fcc" stroke="#1f2933" stroke-width=".9"><path fill="#fcc" d="M91.783-21.434h25.608v-25.608H91.783Z"/><g fill="#000" stroke="none"><text x="-71.82" y="45.43" font-family="cmmi7" font-size="7" transform="translate(172.38 -77.228)">g</text><text x="-67.668" y="42.412" font-family="cmr5" font-size="5" transform="translate(172.38 -77.228)">1</text></g></g><g fill="#ececec" stroke="#1f2933" stroke-width=".9"><path fill="#ececec" d="M-30.564 11.287c0-7.072-5.732-12.804-12.803-12.804s-12.804 5.732-12.804 12.804c0 7.071 5.732 12.803 12.804 12.803 7.071 0 12.803-5.732 12.803-12.803Zm-12.803 0"/><g fill="#000" stroke="none"><text x="-71.82" y="45.43" font-family="cmmi7" font-size="7" transform="translate(21.808 -33.04)">x</text><text x="-67.285" y="42.019" font-family="cmmi5" font-size="5" transform="translate(21.808 -33.04)">n</text><text x="-62.881" y="43.019" font-family="cmmi5" font-size="5" transform="translate(21.808 -33.04)">s</text><text x="-67.285" y="47.952" font-family="cmsy5" font-size="5" transform="translate(21.808 -33.04)">¡</text></g></g><g fill="#cfc" stroke="#1f2933" stroke-width=".9"><path fill="#cfc" d="M6.425 24.09h25.607V-1.517H6.425Z"/><g fill="#000" stroke="none"><text x="-71.82" y="45.43" font-family="cmmi7" font-size="7" transform="translate(84.33 -32.238)">f</text><text x="-67.136" y="42.412" font-family="cmmi5" font-size="5" transform="translate(84.33 -32.238)">n</text><text x="-62.732" y="43.412" font-family="cmmi5" font-size="5" transform="translate(84.33 -32.238)">s</text></g></g><g fill="#ececec" stroke="#1f2933" stroke-width=".9"><path fill="#ececec" d="M66.176 11.287c0-7.072-5.733-12.804-12.804-12.804S40.568 4.215 40.568 11.287c0 7.071 5.733 12.803 12.804 12.803s12.804-5.732 12.804-12.803Zm-12.804 0"/><g fill="#000" stroke="none"><text x="-71.82" y="45.43" font-family="cmmi7" font-size="7" transform="translate(118.547 -31.558)">x</text><text x="-67.285" y="42.412" font-family="cmmi5" font-size="5" transform="translate(118.547 -31.558)">n</text><text x="-62.881" y="43.412" font-family="cmmi5" font-size="5" transform="translate(118.547 -31.558)">s</text></g></g><g fill="#fcc" stroke="#1f2933" stroke-width=".9"><path fill="#fcc" d="M91.783 9.864h25.608v-25.607H91.783Z"/><g fill="#000" stroke="none"><text x="-71.82" y="45.43" font-family="cmmi7" font-size="7" transform="translate(169.953 -46.465)">g</text><text x="-67.668" y="42.412" font-family="cmmi5" font-size="5" transform="translate(169.953 -46.465)">n</text><text x="-63.264" y="43.412" font-family="cmmi5" font-size="5" transform="translate(169.953 -46.465)">s</text></g></g><g fill="#ececec" stroke="#1f2933" stroke-width=".9"><path fill="#ececec" d="M168.606-20.012c0-7.07-5.733-12.803-12.804-12.803s-12.804 5.732-12.804 12.803 5.733 12.804 12.804 12.804 12.804-5.732 12.804-12.804Zm-12.804 0"/><text x="-71.82" y="45.43" fill="#000" stroke="none" font-family="cmmi7" font-size="7" transform="translate(225.453 -63.934)">a</text></g><g fill="#fcc" stroke="#1f2933" stroke-width=".9"><path fill="#fcc" d="M142.998 19.822h25.608V-5.785h-25.608Z"/><text x="-71.82" y="45.43" fill="#000" stroke="none" font-family="cmmi7" font-size="7" transform="translate(224.85 -36.661)">Ã</text></g></g></svg>
