<svg xmlns="http://www.w3.org/2000/svg" width="149.154" height="35.343" viewBox="-72 -72 111.866 26.507"><g stroke="#000" stroke-miterlimit="10" stroke-width=".4"><path fill="none" stroke="#1f2933" stroke-width=".9" d="M-22.228-59.016h-23.535M-10.447-59.016h23.535"/><g fill="#fff" stroke="#1f2933" stroke-width=".9"><path d="M-46.213-59.016c0-7.072-5.732-12.804-12.803-12.804S-71.82-66.088-71.82-59.016c0 7.071 5.732 12.803 12.804 12.803 7.071 0 12.803-5.732 12.803-12.803Zm-12.803 0"/><g fill="#000" stroke="none"><text x="-59.016" y="-59.016" font-family="cmmi9" font-size="9" transform="translate(-4.302 1.438)">x</text><text x="-53.773" y="-58.016" font-family="cmmi6" font-size="6" transform="translate(-4.302 1.438)">t</text></g></g><g fill="#fff" stroke="#1f2933" stroke-width=".9"><path d="M39.146-59.016c0-7.072-5.733-12.804-12.804-12.804s-12.804 5.732-12.804 12.804c0 7.071 5.733 12.803 12.804 12.803s12.804-5.732 12.804-12.803Zm-12.804 0"/><g fill="#000" stroke="none"><text x="-59.016" y="-59.016" font-family="cmmi9" font-size="9" transform="translate(76.417 1.02)">x</text><text x="-53.773" y="-58.016" font-family="cmmi6" font-size="6" transform="translate(76.417 1.02)">t</text><text x="-50.912" y="-58.016" font-family="cmr6" font-size="6" transform="translate(76.417 1.02)">+1</text></g></g><g fill="#111827" stroke="#111827"><path d="M-10.647-59.016a5.69 5.69 0 1 0-11.38 0 5.69 5.69 0 0 0 11.38 0Zm-5.69 0"/></g></g></svg>
