<svg xmlns="http://www.w3.org/2000/svg" width="111.217" height="187.091" viewBox="-72 -72 83.413 140.318"><g stroke="#000" stroke-miterlimit="10" stroke-width=".4"><g stroke="#1f2933" stroke-width=".9"><path fill="none" d="M-15.365-59.016h-26.522"/><path fill="#1f2933" d="m-44.574-59.016 3.693 1.526-1.231-1.526 1.231-1.527Z"/></g><g stroke="#1f2933" stroke-width=".9"><path fill="none" d="M-45.763-2.11h26.523"/><path fill="#1f2933" d="m-16.553-2.11-3.693-1.528 1.23 1.527-1.23 1.527Z"/></g><g stroke="#1f2933" stroke-width=".9"><path fill="none" d="M-2.11-45.763v26.523"/><path fill="#1f2933" d="m-2.11-16.553 1.526-3.693-1.527 1.23-1.527-1.23Z"/></g><g stroke="#1f2933" stroke-width=".9"><path fill="none" d="M-59.016 11.143v26.522"/><path fill="#1f2933" d="m-59.016 40.353 1.526-3.694-1.526 1.231-1.527-1.231Z"/></g><g stroke="#1f2933" stroke-width=".9"><path fill="none" d="M-2.11 11.143v26.522"/><path fill="#1f2933" d="m-2.11 40.353 1.526-3.694-1.527 1.231-1.527-1.231Z"/></g><g fill="#d9d9d9" stroke="#1f2933" stroke-width=".9"><path fill="#d9d9d9" d="M-46.213-59.016c0-7.072-5.732-12.804-12.803-12.804S-71.82-66.088-71.82-59.016c0 7.071 5.732 12.803 12.804 12.803 7.071 0 12.803-5.732 12.803-12.803Zm-12.803 0"/><g fill="#000" stroke="none"><text x="-59.016" y="-2.111" font-family="cmmi9" font-size="9" transform="translate(-4.15 -55.843)">q</text><text x="-54.883" y="-1.111" font-family="cmr6" font-size="6" transform="translate(-4.15 -55.843)">0</text></g></g><g fill="#fff" stroke="#1f2933" stroke-width=".9"><path d="M-14.915-46.213h25.608V-71.82h-25.608Z"/><g fill="#000" stroke="none"><text x="-59.016" y="-2.111" font-family="cmmi9" font-size="9" transform="translate(50.748 -55.468)">m</text><text x="-50.867" y="-1.111" font-family="cmr6" font-size="6" transform="translate(50.748 -55.468)">1</text></g></g><g fill="#fff" stroke="#1f2933" stroke-width=".9"><path d="M-46.213-2.11c0-7.072-5.732-12.805-12.803-12.805S-71.82-9.182-71.82-2.11s5.732 12.804 12.804 12.804c7.071 0 12.803-5.732 12.803-12.804Zm-12.803 0"/><g fill="#000" stroke="none"><text x="-59.016" y="-2.111" font-family="cmmi9" font-size="9" transform="translate(-4.705 1.438)">x</text><text x="-53.773" y="-1.111" font-family="cmr6" font-size="6" transform="translate(-4.705 1.438)">0</text></g></g><g fill="#fff" stroke="#1f2933" stroke-width=".9"><path d="M10.693-2.11c0-7.072-5.732-12.805-12.804-12.805-7.071 0-12.804 5.733-12.804 12.804S-9.182 10.693-2.11 10.693 10.693 4.96 10.693-2.111Zm-12.804 0"/><g fill="#000" stroke="none"><text x="-59.016" y="-2.111" font-family="cmmi9" font-size="9" transform="translate(52.2 1.438)">x</text><text x="-53.773" y="-1.111" font-family="cmr6" font-size="6" transform="translate(52.2 1.438)">1</text></g></g><g fill="#d9d9d9" stroke="#1f2933" stroke-width=".9"><path fill="#d9d9d9" d="M-46.213 54.795c0-7.072-5.732-12.804-12.803-12.804S-71.82 47.723-71.82 54.795c0 7.071 5.732 12.803 12.804 12.803 7.071 0 12.803-5.732 12.803-12.803Zm-12.803 0"/><g fill="#000" stroke="none"><text x="-59.016" y="-2.111" font-family="cmmi9" font-size="9" transform="translate(-4.234 58.343)">z</text><text x="-54.714" y="-1.111" font-family="cmr6" font-size="6" transform="translate(-4.234 58.343)">0</text></g></g><g fill="#d9d9d9" stroke="#1f2933" stroke-width=".9"><path fill="#d9d9d9" d="M10.693 54.795c0-7.072-5.732-12.804-12.804-12.804-7.071 0-12.804 5.732-12.804 12.804 0 7.071 5.733 12.803 12.804 12.803s12.804-5.732 12.804-12.803Zm-12.804 0"/><g fill="#000" stroke="none"><text x="-59.016" y="-2.111" font-family="cmmi9" font-size="9" transform="translate(52.671 58.343)">z</text><text x="-54.714" y="-1.111" font-family="cmr6" font-size="6" transform="translate(52.671 58.343)">1</text></g></g></g></svg>
