<svg xmlns="http://www.w3.org/2000/svg" width="558.741" height="276.11" viewBox="-72 -72 419.055 207.082"><g stroke="#000" stroke-miterlimit="10" stroke-width=".4"><path fill="none" stroke="#000" stroke-width=".8" d="M-7.482-27.768h-38.38M-4.734-32.426l-5.853-10.591M3.16-27.768h9.928M106.329-27.768H39.496M109.077-32.426l-5.853-10.591M116.972-27.768h9.927M220.14-27.768h-66.833M222.888-32.426l-5.853-10.591M230.783-27.768h9.927M-7.482 23.446h-38.38M3.16 23.446h44.071M.424 18.795 19.88-16.226M-3.222 18.232l-12.466-61.25M-5.044 18.974l-3.278-5.086M106.329 23.446h-32.69M116.972 23.446h44.07M114.234 18.795l19.457-35.021M110.59 18.232l-12.467-61.25M108.767 18.974l-3.278-5.086M220.14 23.446h-32.69M230.783 23.446h44.07M228.045 18.795l19.457-35.021M224.4 18.232l-12.466-61.25M222.578 18.974l-3.278-5.086M-7.482 66.126h-9.928M3.16 66.126h9.928M106.329 66.126H96.4M116.972 66.126h9.927M220.14 66.126h-9.928M230.783 66.126h9.927M49.423 66.126h1.454M60.066 66.126h-1.453M53.201 61.033l-23.08-76.165M55.448 60.851l3.242-24.317M54.745 71.447v31.267M163.234 66.126h1.454M173.877 66.126h-1.453M167.012 61.033l-23.08-76.165M169.259 60.851l3.242-24.317M168.556 71.447v31.267M277.045 66.126h1.454M287.688 66.126h21.309M280.823 61.033l-23.08-76.165M283.07 60.851l3.242-24.317M282.367 71.447v31.267M2.518 82.086l12.852-6.962M-2.16 89.942v-1.454M116.329 82.086l12.852-6.962M111.65 89.942v-1.454M230.14 82.086l12.852-6.962M225.461 89.942v-1.454"/><g fill="#fee2e2" stroke="#8c1d18" stroke-width=".8"><path d="M-46.263-27.768c0-7.072-5.732-12.804-12.803-12.804S-71.87-34.84-71.87-27.768c0 7.071 5.732 12.804 12.804 12.804 7.071 0 12.803-5.733 12.803-12.804Zm-12.803 0"/><g fill="#000" stroke="none"><text x="-87.519" y="140.103" font-family="cmsy7" font-size="7" transform="translate(23.982 -165.98)">V</text><text x="-82.48" y="141.103" font-family="cmr5" font-size="5" transform="translate(23.982 -165.98)">0</text></g></g><g fill="#fee2e2" stroke="#8c1d18" stroke-width=".8"><path d="M39.096-27.768c0-7.072-5.733-12.804-12.804-12.804S13.488-34.84 13.488-27.768c0 7.071 5.733 12.804 12.804 12.804s12.804-5.733 12.804-12.804Zm-12.804 0"/><g fill="#000" stroke="none"><text x="-87.519" y="140.103" font-family="cmsy7" font-size="7" transform="translate(109.105 -165.98)">V</text><text x="-82.48" y="141.103" font-family="cmmi5" font-size="5" transform="translate(109.105 -165.98)">a</text></g></g><g fill="#fee2e2" stroke="#8c1d18" stroke-width=".8"><path d="M152.907-27.768c0-7.072-5.733-12.804-12.804-12.804s-12.804 5.732-12.804 12.804c0 7.071 5.733 12.804 12.804 12.804s12.804-5.733 12.804-12.804Zm-12.804 0"/><g fill="#000" stroke="none"><text x="-87.519" y="140.103" font-family="cmsy7" font-size="7" transform="translate(223.269 -166.01)">V</text><text x="-82.48" y="141.164" font-family="cmmi5" font-size="5" transform="translate(223.269 -166.01)">b</text></g></g><g fill="#fee2e2" stroke="#8c1d18" stroke-width=".8"><path d="M266.718-27.768c0-7.072-5.733-12.804-12.804-12.804S241.11-34.84 241.11-27.768c0 7.071 5.733 12.804 12.804 12.804s12.804-5.733 12.804-12.804Zm-12.804 0"/><g fill="#000" stroke="none"><text x="-87.519" y="140.103" font-family="cmsy7" font-size="7" transform="translate(337.04 -165.98)">V</text><text x="-82.48" y="141.103" font-family="cmmi5" font-size="5" transform="translate(337.04 -165.98)">c</text></g></g><g fill="#fee2e2" stroke="#8c1d18" stroke-width=".8"><path d="M-32.89-43.417h28.453V-71.87H-32.89Z"/><g fill="#000" stroke="none"><text x="-86.047" y="140.103" font-family="cmr7" font-size="7" transform="translate(65.072 -196.073)">_</text><text x="-87.519" y="140.103" font-family="cmmi7" font-size="7" transform="translate(65.072 -196.073)">q</text><text x="-83.854" y="141.103" font-family="cmr5" font-size="5" transform="translate(65.072 -196.073)">1</text></g></g><g fill="#fee2e2" stroke="#8c1d18" stroke-width=".8"><path d="M80.921-43.417h28.453V-71.87H80.92Z"/><g fill="#000" stroke="none"><text x="-86.047" y="140.103" font-family="cmr7" font-size="7" transform="translate(178.883 -196.073)">_</text><text x="-87.519" y="140.103" font-family="cmmi7" font-size="7" transform="translate(178.883 -196.073)">q</text><text x="-83.854" y="141.103" font-family="cmr5" font-size="5" transform="translate(178.883 -196.073)">2</text></g></g><g fill="#fee2e2" stroke="#8c1d18" stroke-width=".8"><path d="M194.732-43.417h28.453V-71.87h-28.453Z"/><g fill="#000" stroke="none"><text x="-86.047" y="140.103" font-family="cmr7" font-size="7" transform="translate(292.694 -196.073)">_</text><text x="-87.519" y="140.103" font-family="cmmi7" font-size="7" transform="translate(292.694 -196.073)">q</text><text x="-83.854" y="141.103" font-family="cmr5" font-size="5" transform="translate(292.694 -196.073)">3</text></g></g><g fill="#fee2e2" stroke="#8c1d18" stroke-width=".8"><path d="M-46.263 23.446c0-7.071-5.732-12.803-12.803-12.803S-71.87 16.375-71.87 23.446s5.732 12.804 12.804 12.804c7.071 0 12.803-5.732 12.803-12.804Zm-12.803 0"/><g fill="#000" stroke="none"><text x="-85.623" y="138.333" font-family="cmr7" font-size="7" transform="translate(23.982 -113.918)">_</text><text x="-87.519" y="140.103" font-family="cmsy7" font-size="7" transform="translate(23.982 -113.918)">V</text><text x="-82.48" y="141.103" font-family="cmr5" font-size="5" transform="translate(23.982 -113.918)">0</text></g></g><g fill="#fee2e2" stroke="#8c1d18" stroke-width=".8"><path d="M73.239 23.446c0-7.071-5.732-12.803-12.804-12.803-7.071 0-12.804 5.732-12.804 12.803S53.364 36.25 60.435 36.25 73.24 30.518 73.24 23.446Zm-12.804 0"/><g fill="#000" stroke="none"><text x="-85.623" y="138.333" font-family="cmr7" font-size="7" transform="translate(143.248 -113.918)">_</text><text x="-87.519" y="140.103" font-family="cmsy7" font-size="7" transform="translate(143.248 -113.918)">V</text><text x="-82.48" y="141.103" font-family="cmmi5" font-size="5" transform="translate(143.248 -113.918)">a</text></g></g><g fill="#fee2e2" stroke="#8c1d18" stroke-width=".8"><path d="M187.05 23.446c0-7.071-5.732-12.803-12.804-12.803-7.071 0-12.804 5.732-12.804 12.803s5.733 12.804 12.804 12.804 12.804-5.732 12.804-12.804Zm-12.804 0"/><g fill="#000" stroke="none"><text x="-85.623" y="138.333" font-family="cmr7" font-size="7" transform="translate(257.412 -113.948)">_</text><text x="-87.519" y="140.103" font-family="cmsy7" font-size="7" transform="translate(257.412 -113.948)">V</text><text x="-82.48" y="141.164" font-family="cmmi5" font-size="5" transform="translate(257.412 -113.948)">b</text></g></g><g fill="#fee2e2" stroke="#8c1d18" stroke-width=".8"><path d="M300.86 23.446c0-7.071-5.732-12.803-12.803-12.803s-12.804 5.732-12.804 12.803 5.733 12.804 12.804 12.804 12.804-5.732 12.804-12.804Zm-12.803 0"/><g fill="#000" stroke="none"><text x="-85.623" y="138.333" font-family="cmr7" font-size="7" transform="translate(371.183 -113.918)">_</text><text x="-87.519" y="140.103" font-family="cmsy7" font-size="7" transform="translate(371.183 -113.918)">V</text><text x="-82.48" y="141.103" font-family="cmmi5" font-size="5" transform="translate(371.183 -113.918)">c</text></g></g><g fill="#fee2e2" stroke="#8c1d18" stroke-width=".8"><path d="M-34.312 13.488h31.298V-17.81h-31.298Z"/><g fill="#000" stroke="none"><text x="-86.908" y="140.103" font-family="cmr7" font-size="7" transform="translate(65.072 -140.59)">Ä</text><text x="-87.519" y="140.103" font-family="cmmi7" font-size="7" transform="translate(65.072 -140.59)">q</text><text x="-83.854" y="141.103" font-family="cmr5" font-size="5" transform="translate(65.072 -140.59)">1</text></g></g><g fill="#fee2e2" stroke="#8c1d18" stroke-width=".8"><path d="M79.499 13.488h31.298V-17.81H79.499Z"/><g fill="#000" stroke="none"><text x="-86.908" y="140.103" font-family="cmr7" font-size="7" transform="translate(178.883 -140.59)">Ä</text><text x="-87.519" y="140.103" font-family="cmmi7" font-size="7" transform="translate(178.883 -140.59)">q</text><text x="-83.854" y="141.103" font-family="cmr5" font-size="5" transform="translate(178.883 -140.59)">2</text></g></g><g fill="#fee2e2" stroke="#8c1d18" stroke-width=".8"><path d="M193.31 13.488h31.297V-17.81H193.31Z"/><g fill="#000" stroke="none"><text x="-86.908" y="140.103" font-family="cmr7" font-size="7" transform="translate(292.694 -140.59)">Ä</text><text x="-87.519" y="140.103" font-family="cmmi7" font-size="7" transform="translate(292.694 -140.59)">q</text><text x="-83.854" y="141.103" font-family="cmr5" font-size="5" transform="translate(292.694 -140.59)">3</text></g></g><g fill="#fee2e2" stroke="#8c1d18" stroke-width=".8"><path d="M-17.81 66.126c0-10.215-8.28-18.495-18.494-18.495s-18.494 8.28-18.494 18.495c0 10.214 8.28 18.494 18.494 18.494s18.494-8.28 18.494-18.494Zm-18.494 0"/><g fill="#000" stroke="none"><text x="-87.519" y="140.103" font-family="cmsy7" font-size="7" transform="translate(43.552 -72.572)">F</text><text x="-81.791" y="141.103" font-family="cmr5" font-size="5" transform="translate(43.552 -72.572)">0</text><text x="-78.388" y="141.103" font-family="cmmi5" font-size="5" transform="translate(43.552 -72.572)">;</text><text x="-76.096" y="141.103" font-family="cmr5" font-size="5" transform="translate(43.552 -72.572)">1</text></g></g><g fill="#fee2e2" stroke="#8c1d18" stroke-width=".8"><path d="M50.477 66.126c0-10.215-8.28-18.495-18.495-18.495-10.214 0-18.494 8.28-18.494 18.495 0 10.214 8.28 18.494 18.494 18.494s18.495-8.28 18.495-18.494Zm-18.495 0"/><g fill="#000" stroke="none"><text x="-87.519" y="140.103" font-family="cmsy7" font-size="7" transform="translate(111.604 -72.572)">F</text><text x="-81.791" y="141.103" font-family="cmmi5" font-size="5" transform="translate(111.604 -72.572)">a;</text><text x="-75.627" y="141.103" font-family="cmr5" font-size="5" transform="translate(111.604 -72.572)">1</text></g></g><g fill="#fee2e2" stroke="#8c1d18" stroke-width=".8"><path d="M96.001 66.126c0-10.215-8.28-18.495-18.494-18.495s-18.494 8.28-18.494 18.495c0 10.214 8.28 18.494 18.494 18.494s18.494-8.28 18.494-18.494Zm-18.494 0"/><g fill="#000" stroke="none"><text x="-87.519" y="140.103" font-family="cmsy7" font-size="7" transform="translate(157.128 -72.572)">F</text><text x="-81.791" y="141.103" font-family="cmmi5" font-size="5" transform="translate(157.128 -72.572)">a;</text><text x="-75.627" y="141.103" font-family="cmr5" font-size="5" transform="translate(157.128 -72.572)">2</text></g></g><g fill="#fee2e2" stroke="#8c1d18" stroke-width=".8"><path d="M164.288 66.126c0-10.215-8.28-18.495-18.495-18.495-10.214 0-18.494 8.28-18.494 18.495 0 10.214 8.28 18.494 18.494 18.494s18.495-8.28 18.495-18.494Zm-18.495 0"/><g fill="#000" stroke="none"><text x="-87.519" y="140.103" font-family="cmsy7" font-size="7" transform="translate(225.768 -72.602)">F</text><text x="-81.791" y="141.164" font-family="cmmi5" font-size="5" transform="translate(225.768 -72.602)">b;</text><text x="-76.332" y="141.164" font-family="cmr5" font-size="5" transform="translate(225.768 -72.602)">2</text></g></g><g fill="#fee2e2" stroke="#8c1d18" stroke-width=".8"><path d="M209.812 66.126c0-10.215-8.28-18.495-18.494-18.495s-18.494 8.28-18.494 18.495c0 10.214 8.28 18.494 18.494 18.494s18.494-8.28 18.494-18.494Zm-18.494 0"/><g fill="#000" stroke="none"><text x="-87.519" y="140.103" font-family="cmsy7" font-size="7" transform="translate(271.292 -72.602)">F</text><text x="-81.791" y="141.164" font-family="cmmi5" font-size="5" transform="translate(271.292 -72.602)">b;</text><text x="-76.332" y="141.164" font-family="cmr5" font-size="5" transform="translate(271.292 -72.602)">3</text></g></g><g fill="#fee2e2" stroke="#8c1d18" stroke-width=".8"><path d="M278.099 66.126c0-10.215-8.28-18.495-18.495-18.495-10.214 0-18.494 8.28-18.494 18.495 0 10.214 8.28 18.494 18.494 18.494S278.1 76.34 278.1 66.126Zm-18.495 0"/><g fill="#000" stroke="none"><text x="-87.519" y="140.103" font-family="cmsy7" font-size="7" transform="translate(339.538 -72.572)">F</text><text x="-81.791" y="141.103" font-family="cmmi5" font-size="5" transform="translate(339.538 -72.572)">c;</text><text x="-76.252" y="141.103" font-family="cmr5" font-size="5" transform="translate(339.538 -72.572)">3</text></g></g><g fill="#fee2e2" stroke="#8c1d18" stroke-width=".8"><path d="M309.397 84.62h36.988V47.63h-36.988Z"/><g fill="#000" stroke="none"><text x="-87.519" y="140.103" font-family="cmsy7" font-size="7" transform="translate(408.117 -72.572)">F</text><text x="-81.791" y="141.103" font-family="cmmi5" font-size="5" transform="translate(408.117 -72.572)">c;t</text></g></g><g fill="#fee2e2" stroke="#8c1d18" stroke-width=".8"><path d="M-14.965 114.495h25.608V88.888h-25.608Z"/><g fill="#000" stroke="none"><text x="-87.519" y="140.103" font-family="cmmi7" font-size="7" transform="translate(81.563 -37.404)">¿</text><text x="-83.831" y="141.103" font-family="cmr5" font-size="5" transform="translate(81.563 -37.404)">1</text></g></g><g fill="#fee2e2" stroke="#8c1d18" stroke-width=".8"><path d="M98.846 114.495h25.608V88.888H98.846Z"/><g fill="#000" stroke="none"><text x="-87.519" y="140.103" font-family="cmmi7" font-size="7" transform="translate(195.374 -37.404)">¿</text><text x="-83.831" y="141.103" font-family="cmr5" font-size="5" transform="translate(195.374 -37.404)">2</text></g></g><g fill="#fee2e2" stroke="#8c1d18" stroke-width=".8"><path d="M212.657 114.495h25.608V88.888h-25.608Z"/><g fill="#000" stroke="none"><text x="-87.519" y="140.103" font-family="cmmi7" font-size="7" transform="translate(309.185 -37.404)">¿</text><text x="-83.831" y="141.103" font-family="cmr5" font-size="5" transform="translate(309.185 -37.404)">3</text></g></g><g fill="#fee2e2" stroke="#8c1d18" stroke-width=".8"><path d="M39.096 134.412h31.298v-31.298H39.096Z"/><g fill="#000" stroke="none"><text x="-87.519" y="140.103" font-family="cmmi7" font-size="7" transform="translate(132.528 -19.435)">m</text><text x="-80.423" y="141.103" font-family="cmmi5" font-size="5" transform="translate(132.528 -19.435)">a</text><text x="-76.051" y="140.103" font-family="cmmi7" font-size="7" transform="translate(132.528 -19.435)">g</text><text x="-71.898" y="137.085" font-family="cmmi5" font-size="5" transform="translate(132.528 -19.435)">s</text></g></g><g fill="#fee2e2" stroke="#8c1d18" stroke-width=".8"><path d="M152.907 134.412h31.298v-31.298h-31.298Z"/><g fill="#000" stroke="none"><text x="-87.519" y="140.103" font-family="cmmi7" font-size="7" transform="translate(246.692 -19.435)">m</text><text x="-80.423" y="141.164" font-family="cmmi5" font-size="5" transform="translate(246.692 -19.435)">b</text><text x="-76.756" y="140.103" font-family="cmmi7" font-size="7" transform="translate(246.692 -19.435)">g</text><text x="-72.604" y="137.085" font-family="cmmi5" font-size="5" transform="translate(246.692 -19.435)">s</text></g></g><g fill="#fee2e2" stroke="#8c1d18" stroke-width=".8"><path d="M266.718 134.412h31.298v-31.298h-31.298Z"/><g fill="#000" stroke="none"><text x="-87.519" y="140.103" font-family="cmmi7" font-size="7" transform="translate(360.462 -19.435)">m</text><text x="-80.423" y="141.103" font-family="cmmi5" font-size="5" transform="translate(360.462 -19.435)">c</text><text x="-76.676" y="140.103" font-family="cmmi7" font-size="7" transform="translate(360.462 -19.435)">g</text><text x="-72.523" y="137.085" font-family="cmmi5" font-size="5" transform="translate(360.462 -19.435)">s</text></g></g><g fill="#000" stroke="#000"><path fill="#000" stroke="#000" d="M2.96-27.768a5.121 5.121 0 1 0-10.242 0 5.121 5.121 0 0 0 10.243 0Zm-5.12 0"/></g><g fill="#000" stroke="#000"><path fill="#000" stroke="#000" d="M116.772-27.768a5.121 5.121 0 1 0-10.243 0 5.121 5.121 0 0 0 10.243 0Zm-5.122 0"/></g><g fill="#000" stroke="#000"><path fill="#000" stroke="#000" d="M230.583-27.768a5.121 5.121 0 1 0-10.243 0 5.121 5.121 0 0 0 10.243 0Zm-5.122 0"/></g><g fill="#000" stroke="#000"><path fill="#000" stroke="#000" d="M2.96 23.446a5.121 5.121 0 1 0-10.242 0 5.121 5.121 0 0 0 10.243 0Zm-5.12 0"/></g><g fill="#000" stroke="#000"><path fill="#000" stroke="#000" d="M116.772 23.446a5.121 5.121 0 1 0-10.243 0 5.121 5.121 0 0 0 10.243 0Zm-5.122 0"/></g><g fill="#000" stroke="#000"><path fill="#000" stroke="#000" d="M230.583 23.446a5.121 5.121 0 1 0-10.243 0 5.121 5.121 0 0 0 10.243 0Zm-5.122 0"/></g><g fill="#000" stroke="#000"><path fill="#000" stroke="#000" d="M2.96 66.126a5.121 5.121 0 1 0-10.242 0 5.121 5.121 0 0 0 10.243 0Zm-5.12 0"/></g><g fill="#000" stroke="#000"><path fill="#000" stroke="#000" d="M116.772 66.126a5.121 5.121 0 1 0-10.243 0 5.121 5.121 0 0 0 10.243 0Zm-5.122 0"/></g><g fill="#000" stroke="#000"><path fill="#000" stroke="#000" d="M230.583 66.126a5.121 5.121 0 1 0-10.243 0 5.121 5.121 0 0 0 10.243 0Zm-5.122 0"/></g><g fill="#000" stroke="#000"><path fill="#000" stroke="#000" d="M59.866 66.126a5.121 5.121 0 1 0-10.243 0 5.121 5.121 0 0 0 10.243 0Zm-5.121 0"/></g><g fill="#000" stroke="#000"><path fill="#000" stroke="#000" d="M173.677 66.126a5.121 5.121 0 1 0-10.243 0 5.121 5.121 0 0 0 10.243 0Zm-5.121 0"/></g><g fill="#000" stroke="#000"><path fill="#000" stroke="#000" d="M287.488 66.126a5.121 5.121 0 1 0-10.243 0 5.121 5.121 0 0 0 10.243 0Zm-5.121 0"/></g><g fill="#000" stroke="#000"><path fill="#000" stroke="#000" d="M2.96 84.62a5.121 5.121 0 1 0-10.242 0 5.121 5.121 0 0 0 10.243 0Zm-5.12 0"/></g><g fill="#000" stroke="#000"><path fill="#000" stroke="#000" d="M116.772 84.62a5.121 5.121 0 1 0-10.243 0 5.121 5.121 0 0 0 10.243 0Zm-5.122 0"/></g><g fill="#000" stroke="#000"><path fill="#000" stroke="#000" d="M230.583 84.62a5.121 5.121 0 1 0-10.243 0 5.121 5.121 0 0 0 10.243 0Zm-5.122 0"/></g></g></svg>
