<svg xmlns="http://www.w3.org/2000/svg" width="149.154" height="92.249" viewBox="-72 -72 111.866 69.187"><g stroke="#000" stroke-miterlimit="10" stroke-width=".4"><g stroke="#1f2933" stroke-width=".9"><path fill="none" d="M-3.088-45.763 14.23-28.449"/><path fill="#1f2933" stroke-width=".899982" d="m16.13-26.55-1.533-3.69-.208 1.95-1.95.21Z"/></g><g stroke="#1f2933" stroke-width=".9"><path fill="none" d="m-29.587-45.763-17.317 17.314"/><path fill="#1f2933" stroke-width=".899982" d="m-48.804-26.55 3.691-1.53-1.95-.21-.209-1.95Z"/></g><g stroke="#1f2933" stroke-width=".9"><path fill="none" d="M13.088-16.337h-54.975"/><path fill="#1f2933" d="m-44.574-16.337 3.693 1.527-1.231-1.527 1.231-1.527Z"/></g><g fill="#fff" stroke="#1f2933" stroke-width=".9"><path d="M-29.14-46.213h25.607V-71.82h-25.608Z"/><g fill="#000" stroke="none"><text x="-59.016" y="-16.337" font-family="cmmi9" font-size="9" transform="translate(36.521 -41.242)">m</text><text x="-50.867" y="-15.337" font-family="cmr6" font-size="6" transform="translate(36.521 -41.242)">1</text></g></g><g fill="#fff" stroke="#1f2933" stroke-width=".9"><path d="M39.146-16.337c0-7.072-5.733-12.804-12.804-12.804s-12.804 5.732-12.804 12.804c0 7.071 5.733 12.804 12.804 12.804s12.804-5.733 12.804-12.804Zm-12.804 0"/><g fill="#000" stroke="none"><text x="-59.016" y="-16.337" font-family="cmmi9" font-size="9" transform="translate(80.653 1.438)">x</text><text x="-53.773" y="-15.337" font-family="cmr6" font-size="6" transform="translate(80.653 1.438)">1</text></g></g><g fill="#fff" stroke="#1f2933" stroke-width=".9"><path d="M-46.213-16.337c0-7.072-5.732-12.804-12.803-12.804S-71.82-23.409-71.82-16.337c0 7.071 5.732 12.804 12.804 12.804 7.071 0 12.803-5.733 12.803-12.804Zm-12.803 0"/><g fill="#000" stroke="none"><text x="-59.016" y="-16.337" font-family="cmmi9" font-size="9" transform="translate(-4.705 1.438)">x</text><text x="-53.773" y="-15.337" font-family="cmr6" font-size="6" transform="translate(-4.705 1.438)">0</text></g></g></g></svg>
