<svg xmlns="http://www.w3.org/2000/svg" width="343.012" height="127.183" viewBox="-72 -72 257.259 95.388"><g stroke="#000" stroke-miterlimit="10" stroke-width=".4"><path fill="none" stroke="gray" stroke-dasharray="3.0,3.0" stroke-width=".9" d="M-23.45 22.668v-93.895zM78.98 22.668v-93.895zm0-93.895"/><path fill="none" stroke="#1f2933" stroke-width=".9" d="M-71.82-20.012h28.453Zm28.453 0"/><path fill="none" stroke="#cfc" stroke-width=".9" d="M.819-20.012h-32.07M20.567-20.012h26.38"/><path fill="none" stroke="#fcc" stroke-width=".9" d="M59.063-2.855v-5.04"/><path fill="none" stroke="#cfc" stroke-width=".9" d="M108.94-20.012H71.177M128.687-20.012h32.071"/><path fill="none" stroke="#fcc" stroke-width=".9" d="M172.874-2.855v-5.04"/><g stroke="none" font-size="10"><text x="-71.82" y="45.43" font-family="cmmi10" transform="translate(5.7 -110.755)">k</text><text x="-64.077" y="45.43" font-family="cmsy10" transform="translate(5.7 -110.755)">¡</text><text x="-54.077" y="45.43" font-family="cmr10" transform="translate(5.7 -110.755)">2</text></g><g stroke="none" font-size="10"><text x="-71.82" y="45.43" font-family="cmmi10" transform="translate(91.059 -110.755)">k</text><text x="-64.077" y="45.43" font-family="cmsy10" transform="translate(91.059 -110.755)">¡</text><text x="-54.077" y="45.43" font-family="cmr10" transform="translate(91.059 -110.755)">1</text></g><text x="-71.82" y="45.43" stroke="none" font-family="cmmi10" font-size="10" transform="translate(202.1 -110.339)">k</text><g fill="#ececec" stroke="#1f2933" stroke-width=".9"><path fill="#ececec" d="M-31.702-20.012c0-6.442-5.222-11.665-11.665-11.665s-11.666 5.223-11.666 11.665c0 6.443 5.223 11.666 11.666 11.666s11.665-5.223 11.665-11.666Zm-11.665 0"/><g fill="#000" stroke="none"><text x="-71.82" y="45.43" font-family="cmmi10" font-size="10" transform="translate(22.276 -64.039)">x</text><text x="-66.105" y="46.93" font-family="cmr7" font-size="7" transform="translate(22.276 -64.039)">=</text></g></g><g fill="#ececec" stroke="#1f2933" stroke-width=".9"><path fill="#ececec" d="M70.728-20.012c0-6.442-5.222-11.665-11.665-11.665s-11.666 5.223-11.666 11.665c0 6.443 5.223 11.666 11.666 11.666s11.665-5.223 11.665-11.666Zm-11.665 0"/><g fill="#000" stroke="none"><text x="-71.82" y="45.43" font-family="cmmi10" font-size="10" transform="translate(124.65 -64.455)">x</text><text x="-66.105" y="46.93" font-family="cmsy7" font-size="7" transform="translate(124.65 -64.455)">¡</text></g></g><g fill="#ececec" stroke="#1f2933" stroke-width=".9"><path fill="#ececec" d="M184.54-20.012c0-6.442-5.223-11.665-11.666-11.665s-11.666 5.223-11.666 11.665c0 6.443 5.223 11.666 11.666 11.666s11.665-5.223 11.665-11.666Zm-11.666 0"/><text x="-71.82" y="45.43" fill="#000" stroke="none" font-family="cmmi10" font-size="10" transform="translate(241.836 -63.289)">x</text></g><g fill="#cfc" stroke="#cfc"><path fill="#cfc" stroke="#cfc" d="M1.019-10.338h19.348v-19.347H1.019Z"/><g fill="#000" stroke="none"><text x="-71.82" y="45.43" font-family="cmmi7" font-size="7" transform="translate(77.605 -63.928)">f</text><text x="-67.921" y="46.43" font-family="cmsy5" font-size="5" transform="translate(77.605 -63.928)">¡</text></g></g><g fill="#fcc" stroke="#fcc"><path fill="#fcc" stroke="#fcc" d="M49.389 16.692h19.348V-2.655H49.389Z"/><g fill="#000" stroke="none"><text x="-71.82" y="45.43" font-family="cmmi7" font-size="7" transform="translate(126.477 -36.507)">f</text><text x="-67.136" y="42.412" font-family="cmmi5" font-size="5" transform="translate(126.477 -36.507)">z</text></g></g><g fill="#cfc" stroke="#cfc"><path fill="#cfc" stroke="#cfc" d="M109.14-10.338h19.347v-19.347H109.14Z"/><text x="-71.82" y="45.43" fill="#000" stroke="none" font-family="cmmi7" font-size="7" transform="translate(188.291 -63.691)">f</text></g><g fill="#fcc" stroke="#fcc"><path fill="#fcc" stroke="#fcc" d="M163.2 16.692h19.348V-2.655H163.2Z"/><g fill="#000" stroke="none"><text x="-71.82" y="45.43" font-family="cmmi7" font-size="7" transform="translate(240.287 -36.507)">f</text><text x="-67.136" y="42.412" font-family="cmmi5" font-size="5" transform="translate(240.287 -36.507)">z</text></g></g></g></svg>
