<svg xmlns="http://www.w3.org/2000/svg" width="164.329" height="31.55" viewBox="-72 -72 123.247 23.662"><g stroke="#000" stroke-miterlimit="10" stroke-width=".4"><path fill="none" stroke="#1f2933" stroke-width=".9" d="M-15.399-60.439h-33.209M-5.894-60.439h33.209"/><g fill="#fff" stroke="#1f2933" stroke-width=".9"><path d="M-49.058-60.439c0-6.286-5.095-11.381-11.38-11.381-6.287 0-11.382 5.095-11.382 11.381s5.095 11.381 11.381 11.381 11.381-5.095 11.381-11.38Zm-11.38 0"/><text x="-60.439" y="-60.439" fill="#000" stroke="none" font-family="cmmi10" font-size="10" transform="translate(-2.858 2.153)">x</text></g><g fill="#fff" stroke="#1f2933" stroke-width=".9"><path d="M50.527-60.439c0-6.286-5.096-11.381-11.381-11.381s-11.381 5.095-11.381 11.381 5.095 11.381 11.38 11.381 11.382-5.095 11.382-11.38Zm-11.381 0"/><text x="-60.439" y="-60.439" fill="#000" stroke="none" font-family="cmmi10" font-size="10" transform="translate(96.954 1.18)">y</text></g><g fill="#111827" stroke="#111827"><path d="M-6.094-60.439a4.552 4.552 0 1 0-9.105 0 4.552 4.552 0 0 0 9.105 0Zm-4.553 0"/></g></g></svg>
