<svg xmlns="http://www.w3.org/2000/svg" width="440.556" height="135.15" viewBox="-72 -72 330.417 101.363"><g stroke="#000" stroke-miterlimit="10" stroke-width=".4"><path fill="none" stroke="gray" stroke-dasharray="3.0,3.0" stroke-width=".9" d="M-20.605 28.358v-99.585zm0-99.585"/><path fill="none" stroke="#1f2933" stroke-width=".9" d="M-71.82-45.619h28.453ZM-71.82 16.977h28.453Zm28.453 0"/><path fill="none" stroke="#cfc" stroke-width=".9" d="M-4.872-45.619h-26.38M14.876-45.619H27.03"/><path fill="none" stroke="#fcc" stroke-width=".9" d="m73.373-31.265-23.055-9.669M93.121-26.544l26.402 1.554"/><path fill="none" stroke="#cfc" stroke-width=".9" d="M-4.872 16.977h-26.38M14.876 16.977H27.03"/><path fill="none" stroke="#fcc" stroke-width=".9" d="m73.373 2.623-23.055 9.669M93.121 1.096l26.784 7.09M161.862-31.84l-18.491 4.623M169.66-31.84l18.49 4.623M161.862-17.978l-18.385-3.83M169.66-13.918l20.937 17.449M161.862 2.465l-18.615 5.43M169.66-1.596l20.552-15.414M161.862 17.588l-18.385-3.83M169.66 17.588l18.383-3.83M238.4-24.28h-26.38M238.4 11.287h-26.38"/><g stroke="none" font-size="10"><text x="-71.82" y="45.43" font-family="cmmi10" transform="translate(19.927 -110.755)">k</text><text x="-64.077" y="45.43" font-family="cmsy10" transform="translate(19.927 -110.755)">¡</text><text x="-54.077" y="45.43" font-family="cmr10" transform="translate(19.927 -110.755)">1</text></g><text x="-71.82" y="45.43" stroke="none" font-family="cmmi10" font-size="10" transform="translate(130.967 -110.339)">k</text><g stroke="none" font-family="cmr10" font-size="10"><text x="-71.82" y="37.43" transform="translate(24.218 -53.645)">.</text><text x="-71.82" y="41.43" transform="translate(24.218 -53.645)">.</text><text x="-71.82" y="45.43" transform="translate(24.218 -53.645)">.</text></g><g stroke="none" font-family="cmr10" font-size="10"><text x="-71.82" y="37.43" transform="translate(92.505 -53.645)">.</text><text x="-71.82" y="41.43" transform="translate(92.505 -53.645)">.</text><text x="-71.82" y="45.43" transform="translate(92.505 -53.645)">.</text></g><g stroke="none" font-family="cmr10" font-size="10"><text x="-71.82" y="37.43" transform="translate(226.233 -53.645)">.</text><text x="-71.82" y="41.43" transform="translate(226.233 -53.645)">.</text><text x="-71.82" y="45.43" transform="translate(226.233 -53.645)">.</text></g><g stroke="none" font-family="cmr10" font-size="10"><text x="-71.82" y="37.43" transform="translate(317.282 -53.645)">.</text><text x="-71.82" y="41.43" transform="translate(317.282 -53.645)">.</text><text x="-71.82" y="45.43" transform="translate(317.282 -53.645)">.</text></g><g stroke="none" font-family="cmr10" font-size="10"><text x="-71.82" y="37.43" transform="translate(271.758 -29.46)">.</text><text x="-71.82" y="41.43" transform="translate(271.758 -29.46)">.</text><text x="-71.82" y="45.43" transform="translate(271.758 -29.46)">.</text></g><g stroke="none" font-family="cmr10" font-size="10"><text x="-71.82" y="37.43" transform="translate(271.758 -76.408)">.</text><text x="-71.82" y="41.43" transform="translate(271.758 -76.408)">.</text><text x="-71.82" y="45.43" transform="translate(271.758 -76.408)">.</text></g><g fill="#ececec" stroke="#1f2933" stroke-width=".9"><path fill="#ececec" d="M-31.702-45.619c0-6.443-5.222-11.665-11.665-11.665s-11.666 5.222-11.666 11.665 5.223 11.666 11.666 11.666 11.665-5.223 11.665-11.666Zm-11.665 0"/><g fill="#000" stroke="none"><text x="-71.82" y="45.43" font-family="cmmi10" font-size="10" transform="translate(22.22 -88.631)">x</text><text x="-66.105" y="41.801" font-family="cmr7" font-size="7" transform="translate(22.22 -88.631)">1</text><text x="-66.105" y="47.902" font-family="cmsy7" font-size="7" transform="translate(22.22 -88.631)">¡</text></g></g><g fill="#ececec" stroke="#1f2933" stroke-width=".9"><path fill="#ececec" d="M50.811-45.619c0-6.443-5.223-11.665-11.665-11.665-6.443 0-11.666 5.222-11.666 11.665s5.223 11.666 11.666 11.666c6.442 0 11.665-5.223 11.665-11.666Zm-11.665 0"/><g fill="#000" stroke="none"><text x="-71.82" y="45.43" font-family="cmmi10" font-size="10" transform="translate(105.865 -86.979)">x</text><text x="-66.105" y="41.801" font-family="cmr7" font-size="7" transform="translate(105.865 -86.979)">1</text></g></g><g fill="#ececec" stroke="#1f2933" stroke-width=".9"><path fill="#ececec" d="M-31.702 16.977c0-6.443-5.222-11.666-11.665-11.666s-11.666 5.223-11.666 11.666 5.223 11.666 11.666 11.666 11.665-5.223 11.665-11.666Zm-11.665 0"/><g fill="#000" stroke="none"><text x="-71.82" y="45.43" font-family="cmmi10" font-size="10" transform="translate(21.214 -26.385)">x</text><text x="-66.105" y="40.985" font-family="cmmi7" font-size="7" transform="translate(21.214 -26.385)">n</text><text x="-61.161" y="41.985" font-family="cmmi5" font-size="5" transform="translate(21.214 -26.385)">t</text><text x="-66.105" y="47.919" font-family="cmsy7" font-size="7" transform="translate(21.214 -26.385)">¡</text></g></g><g fill="#ececec" stroke="#1f2933" stroke-width=".9"><path fill="#ececec" d="M50.811 16.977c0-6.443-5.223-11.666-11.665-11.666-6.443 0-11.666 5.223-11.666 11.666s5.223 11.666 11.666 11.666c6.442 0 11.665-5.223 11.665-11.666Zm-11.665 0"/><g fill="#000" stroke="none"><text x="-71.82" y="45.43" font-family="cmmi10" font-size="10" transform="translate(103.727 -25.131)">x</text><text x="-66.105" y="41.801" font-family="cmmi7" font-size="7" transform="translate(103.727 -25.131)">n</text><text x="-61.161" y="42.801" font-family="cmmi5" font-size="5" transform="translate(103.727 -25.131)">t</text></g></g><g fill="#ececec" stroke="#1f2933" stroke-width=".9"><path fill="#ececec" d="M143.283-24.28c0-6.442-5.223-11.665-11.666-11.665s-11.666 5.223-11.666 11.666 5.223 11.665 11.666 11.665 11.666-5.222 11.666-11.665Zm-11.666 0"/><g fill="#000" stroke="none"><text x="-71.82" y="45.43" font-family="cmmi10" font-size="10" transform="translate(198.55 -65.64)">a</text><text x="-66.534" y="41.801" font-family="cmr7" font-size="7" transform="translate(198.55 -65.64)">1</text></g></g><g fill="#ececec" stroke="#1f2933" stroke-width=".9"><path fill="#ececec" d="M211.57-24.28c0-6.442-5.223-11.665-11.666-11.665s-11.666 5.223-11.666 11.666 5.223 11.665 11.666 11.665 11.665-5.222 11.665-11.665Zm-11.666 0"/><g fill="#000" stroke="none"><text x="-71.82" y="45.43" font-family="cmmi10" font-size="10" transform="translate(267.335 -65.64)">b</text><text x="-67.528" y="41.801" font-family="cmr7" font-size="7" transform="translate(267.335 -65.64)">1</text></g></g><g fill="#ececec" stroke="#1f2933" stroke-width=".9"><path fill="#ececec" d="M143.283 11.287c0-6.443-5.223-11.666-11.666-11.666S119.95 4.844 119.95 11.287c0 6.442 5.223 11.665 11.666 11.665s11.666-5.223 11.666-11.665Zm-11.666 0"/><g fill="#000" stroke="none"><text x="-71.82" y="45.43" font-family="cmmi10" font-size="10" transform="translate(194.752 -30.822)">a</text><text x="-66.534" y="41.801" font-family="cmmi7" font-size="7" transform="translate(194.752 -30.822)">n</text><text x="-61.591" y="42.801" font-family="cmmi5" font-size="5" transform="translate(194.752 -30.822)">m</text></g></g><g fill="#ececec" stroke="#1f2933" stroke-width=".9"><path fill="#ececec" d="M211.57 11.287c0-6.443-5.223-11.666-11.666-11.666s-11.666 5.223-11.666 11.666c0 6.442 5.223 11.665 11.666 11.665s11.665-5.223 11.665-11.665Zm-11.666 0"/><g fill="#000" stroke="none"><text x="-71.82" y="45.43" font-family="cmmi10" font-size="10" transform="translate(263.536 -30.671)">b</text><text x="-67.528" y="41.801" font-family="cmmi7" font-size="7" transform="translate(263.536 -30.671)">n</text><text x="-62.585" y="42.801" font-family="cmmi5" font-size="5" transform="translate(263.536 -30.671)">m</text></g></g><g fill="#cfc" stroke="#cfc"><path fill="#cfc" stroke="#cfc" d="M-4.672-35.945h19.348v-19.348H-4.672Z"/><g fill="#000" stroke="none"><text x="-71.82" y="45.43" font-family="cmmi7" font-size="7" transform="translate(72.529 -88.61)">f</text><text x="-67.136" y="42.412" font-family="cmr5" font-size="5" transform="translate(72.529 -88.61)">1</text></g></g><g fill="#fcc" stroke="#fcc"><path fill="#fcc" stroke="#fcc" d="M73.573-17.45h19.348V-36.8H73.573Z"/><g fill="#000" stroke="none"><text x="-71.82" y="45.43" font-family="cmmi7" font-size="7" transform="translate(151.04 -70.115)">g</text><text x="-67.668" y="42.412" font-family="cmr5" font-size="5" transform="translate(151.04 -70.115)">1</text></g></g><g fill="#cfc" stroke="#cfc"><path fill="#cfc" stroke="#cfc" d="M-4.672 26.651h19.348V7.303H-4.672Z"/><g fill="#000" stroke="none"><text x="-71.82" y="45.43" font-family="cmmi7" font-size="7" transform="translate(70.103 -26.548)">f</text><text x="-67.136" y="42.412" font-family="cmmi5" font-size="5" transform="translate(70.103 -26.548)">n</text><text x="-62.732" y="43.412" font-family="cmmi5" font-size="5" transform="translate(70.103 -26.548)">s</text></g></g><g fill="#fcc" stroke="#fcc"><path fill="#fcc" stroke="#fcc" d="M73.573 8.157h19.348v-19.348H73.573Z"/><g fill="#000" stroke="none"><text x="-71.82" y="45.43" font-family="cmmi7" font-size="7" transform="translate(148.614 -45.042)">g</text><text x="-67.668" y="42.412" font-family="cmmi5" font-size="5" transform="translate(148.614 -45.042)">n</text><text x="-63.264" y="43.412" font-family="cmmi5" font-size="5" transform="translate(148.614 -45.042)">s</text></g></g><g fill="#fcc" stroke="#fcc"><path fill="#fcc" stroke="#fcc" d="M162.062-29.116h7.397v-7.398h-7.397Z"/></g><g fill="#fcc" stroke="#fcc"><path fill="#fcc" stroke="#fcc" d="M162.062-13.467h7.397v-7.398h-7.397Z"/></g><g fill="#fcc" stroke="#fcc"><path fill="#fcc" stroke="#fcc" d="M162.062 5.027h7.397v-7.398h-7.397Z"/></g><g fill="#fcc" stroke="#fcc"><path fill="#fcc" stroke="#fcc" d="M162.062 22.099h7.397V14.7h-7.397Z"/></g><g fill="#fcc" stroke="#fcc"><path fill="#fcc" stroke="#fcc" d="M238.6-14.605h19.347v-19.348H238.6Z"/><g fill="#000" stroke="none"><text x="-71.82" y="45.43" font-family="cmmi7" font-size="7" transform="translate(315.801 -66.59)">h</text><text x="-67.138" y="42.412" font-family="cmr5" font-size="5" transform="translate(315.801 -66.59)">1</text></g></g><g fill="#fcc" stroke="#fcc"><path fill="#fcc" stroke="#fcc" d="M238.6 20.96h19.347V1.614H238.6Z"/><g fill="#000" stroke="none"><text x="-71.82" y="45.43" font-family="cmmi7" font-size="7" transform="translate(311.98 -31.558)">h</text><text x="-67.138" y="42.412" font-family="cmmi5" font-size="5" transform="translate(311.98 -31.558)">n</text><text x="-62.734" y="43.412" font-family="cmmi5" font-size="5" transform="translate(311.98 -31.558)">m</text></g></g></g></svg>
