<svg xmlns="http://www.w3.org/2000/svg" width="221.281" height="51.783" viewBox="-72 -72 165.96 38.837"><g stroke="#000" stroke-miterlimit="10" stroke-width=".4"><path fill="none" stroke="red" stroke-width=".9" d="M-17.725-60.439c49.792 26.556 49.792 26.556 99.584 0"/><path fill="none" stroke="#b9b9b9" stroke-width=".9" d="M-62.765-60.439h33.209"/><g fill="#fff" stroke="#1f2933" stroke-width=".9"><path d="M-6.344-60.439c0-6.286-5.096-11.381-11.381-11.381s-11.381 5.095-11.381 11.381 5.095 11.381 11.38 11.381 11.382-5.095 11.382-11.38Zm-11.381 0"/><g fill="#000" stroke="none"><text x="-17.725" y="-60.439" font-family="cmmi10" font-size="10" transform="translate(-5.1 1.403)">x</text><text x="-12.01" y="-58.939" font-family="cmr7" font-size="7" transform="translate(-5.1 1.403)">1</text></g></g><g fill="#fff" stroke="#1f2933" stroke-width=".9"><path d="M93.24-60.439c0-6.286-5.095-11.381-11.38-11.381s-11.382 5.095-11.382 11.381 5.096 11.381 11.381 11.381 11.381-5.095 11.381-11.38Zm-11.38 0"/><g fill="#000" stroke="none"><text x="-17.725" y="-60.439" font-family="cmmi10" font-size="10" transform="translate(94.484 1.403)">x</text><text x="-12.01" y="-58.939" font-family="cmr7" font-size="7" transform="translate(94.484 1.403)">2</text></g></g><g fill="red" stroke="red"><path fill="red" stroke="red" d="M36.62-40.522a4.552 4.552 0 1 0-9.105 0 4.552 4.552 0 0 0 9.104 0Zm-4.553 0"/></g><g fill="#b9b9b9" stroke="#b9b9b9"><path fill="#b9b9b9" stroke="#b9b9b9" d="M-62.965-60.439a4.552 4.552 0 1 0-9.105 0 4.552 4.552 0 0 0 9.105 0Zm-4.553 0"/></g></g></svg>
