<svg xmlns="http://www.w3.org/2000/svg" width="319.871" height="177.607" viewBox="-72 -72 239.903 133.205"><g stroke="#000" stroke-miterlimit="10" stroke-width=".4"><path fill="none" stroke="red" stroke-width=".9" d="M-13.292-59.016h26.38M65.976-59.016h-26.38M72.066-59.016h26.38"/><path fill="none" stroke="#00b3ff" stroke-width=".9" d="M23.297-16.337h-26.38M29.387-16.337h26.38M26.342-19.382v-26.38M108.655-16.337h-26.38M114.745-16.337h26.38M111.7-19.382v-26.38"/><path fill="none" stroke="#00a600" stroke-width=".9" d="M-16.337 12.627v-15.71M-16.337 18.717v15.71M-19.382 15.672h-26.38M69.021 12.627v-15.71M69.021 18.717v15.71M65.976 15.672h-26.38M154.38 12.627v-15.71M154.38 18.717v15.71M151.334 15.672h-26.38"/><g fill="#fff" stroke="#1f2933" stroke-width=".9"><path d="M-3.533-16.337c0-7.072-5.733-12.804-12.804-12.804s-12.804 5.732-12.804 12.804c0 7.071 5.732 12.804 12.804 12.804 7.071 0 12.804-5.733 12.804-12.804Zm-12.804 0"/><g fill="#000" stroke="none"><text x="-16.337" y="-16.337" font-family="cmmi9" font-size="9" transform="translate(-4.302 1.438)">x</text><text x="-11.094" y="-15.337" font-family="cmmi6" font-size="6" transform="translate(-4.302 1.438)">t</text></g></g><g fill="#fff" stroke="#1f2933" stroke-width=".9"><path d="M81.825-16.337c0-7.072-5.733-12.804-12.804-12.804s-12.804 5.732-12.804 12.804c0 7.071 5.733 12.804 12.804 12.804s12.804-5.733 12.804-12.804Zm-12.804 0"/><g fill="#000" stroke="none"><text x="-16.337" y="-16.337" font-family="cmmi9" font-size="9" transform="translate(76.417 1.02)">x</text><text x="-11.094" y="-15.337" font-family="cmmi6" font-size="6" transform="translate(76.417 1.02)">t</text><text x="-8.233" y="-15.337" font-family="cmr6" font-size="6" transform="translate(76.417 1.02)">+1</text></g></g><g fill="#fff" stroke="#1f2933" stroke-width=".9"><path d="M167.183-16.337c0-7.072-5.732-12.804-12.804-12.804-7.071 0-12.803 5.732-12.803 12.804 0 7.071 5.732 12.804 12.803 12.804s12.804-5.733 12.804-12.804Zm-12.804 0"/><g fill="#000" stroke="none"><text x="-16.337" y="-16.337" font-family="cmmi9" font-size="9" transform="translate(161.776 1.02)">x</text><text x="-11.094" y="-15.337" font-family="cmmi6" font-size="6" transform="translate(161.776 1.02)">t</text><text x="-8.233" y="-15.337" font-family="cmr6" font-size="6" transform="translate(161.776 1.02)">+2</text></g></g><g fill="#fff" stroke="#1f2933" stroke-width=".9"><path d="M-3.533 47.681c0-7.07-5.733-12.803-12.804-12.803S-29.141 40.61-29.141 47.68s5.732 12.804 12.804 12.804c7.071 0 12.804-5.732 12.804-12.804Zm-12.804 0"/><g fill="#000" stroke="none"><text x="-16.337" y="-16.337" font-family="cmmi9" font-size="9" transform="translate(-3.832 65.456)">z</text><text x="-12.035" y="-15.337" font-family="cmmi6" font-size="6" transform="translate(-3.832 65.456)">t</text></g></g><g fill="#fff" stroke="#1f2933" stroke-width=".9"><path d="M81.825 47.681c0-7.07-5.733-12.803-12.804-12.803S56.217 40.61 56.217 47.68s5.733 12.804 12.804 12.804 12.804-5.732 12.804-12.804Zm-12.804 0"/><g fill="#000" stroke="none"><text x="-16.337" y="-16.337" font-family="cmmi9" font-size="9" transform="translate(76.888 65.04)">z</text><text x="-12.035" y="-15.337" font-family="cmmi6" font-size="6" transform="translate(76.888 65.04)">t</text><text x="-9.174" y="-15.337" font-family="cmr6" font-size="6" transform="translate(76.888 65.04)">+1</text></g></g><g fill="#fff" stroke="#1f2933" stroke-width=".9"><path d="M167.183 47.681c0-7.07-5.732-12.803-12.804-12.803-7.071 0-12.803 5.732-12.803 12.803s5.732 12.804 12.803 12.804 12.804-5.732 12.804-12.804Zm-12.804 0"/><g fill="#000" stroke="none"><text x="-16.337" y="-16.337" font-family="cmmi9" font-size="9" transform="translate(162.246 65.04)">z</text><text x="-12.035" y="-15.337" font-family="cmmi6" font-size="6" transform="translate(162.246 65.04)">t</text><text x="-9.174" y="-15.337" font-family="cmr6" font-size="6" transform="translate(162.246 65.04)">+2</text></g></g><g fill="#fff" stroke="#1f2933" stroke-width=".9"><path d="M-71.82 28.476h25.607V2.868H-71.82Z"/><g fill="#000" stroke="none"><text x="-16.337" y="-16.337" font-family="cmmi9" font-size="9" transform="translate(-46.342 34.634)">b</text><text x="-12.373" y="-15.337" font-family="cmmi6" font-size="6" transform="translate(-46.342 34.634)">t</text></g></g><g fill="#fff" stroke="#1f2933" stroke-width=".9"><path d="M13.538 28.476h25.608V2.868H13.538Z"/><g fill="#000" stroke="none"><text x="-16.337" y="-16.337" font-family="cmmi9" font-size="9" transform="translate(34.378 34.218)">b</text><text x="-12.373" y="-15.337" font-family="cmmi6" font-size="6" transform="translate(34.378 34.218)">t</text><text x="-9.512" y="-15.337" font-family="cmr6" font-size="6" transform="translate(34.378 34.218)">+1</text></g></g><g fill="#fff" stroke="#1f2933" stroke-width=".9"><path d="M98.896 28.476h25.608V2.868H98.896Z"/><g fill="#000" stroke="none"><text x="-16.337" y="-16.337" font-family="cmmi9" font-size="9" transform="translate(119.736 34.218)">b</text><text x="-12.373" y="-15.337" font-family="cmmi6" font-size="6" transform="translate(119.736 34.218)">t</text><text x="-9.512" y="-15.337" font-family="cmr6" font-size="6" transform="translate(119.736 34.218)">+2</text></g></g><g fill="#fff" stroke="#1f2933" stroke-width=".9"><path d="M13.538-46.213h25.608V-71.82H13.538Z"/><g fill="#000" stroke="none"><text x="-16.337" y="-16.337" font-family="cmmi9" font-size="9" transform="translate(36.924 -41.242)">m</text><text x="-8.188" y="-15.337" font-family="cmmi6" font-size="6" transform="translate(36.924 -41.242)">t</text></g></g><g fill="#fff" stroke="#1f2933" stroke-width=".9"><path d="M98.896-46.213h25.608V-71.82H98.896Z"/><g fill="#000" stroke="none"><text x="-16.337" y="-16.337" font-family="cmmi9" font-size="9" transform="translate(117.643 -41.658)">m</text><text x="-8.188" y="-15.337" font-family="cmmi6" font-size="6" transform="translate(117.643 -41.658)">t</text><text x="-5.327" y="-15.337" font-family="cmr6" font-size="6" transform="translate(117.643 -41.658)">+1</text></g></g><g fill="red" stroke="red"><path fill="red" stroke="red" d="M-19.182-56.171h5.69v-5.69h-5.69Z"/></g><g fill="red" stroke="red"><path fill="red" stroke="red" d="M66.176-56.171h5.69v-5.69h-5.69Z"/></g><g fill="#00b3ff" stroke="#00b3ff"><path fill="#00b3ff" stroke="#00b3ff" d="M23.497-13.492h5.69v-5.69h-5.69Z"/></g><g fill="#00b3ff" stroke="#00b3ff"><path fill="#00b3ff" stroke="#00b3ff" d="M108.855-13.492h5.69v-5.69h-5.69Z"/></g><g fill="#00a600" stroke="#00a600"><path fill="#00a600" stroke="#00a600" d="M-19.182 18.517h5.69v-5.69h-5.69Z"/></g><g fill="#00a600" stroke="#00a600"><path fill="#00a600" stroke="#00a600" d="M66.176 18.517h5.69v-5.69h-5.69Z"/></g><g fill="#00a600" stroke="#00a600"><path fill="#00a600" stroke="#00a600" d="M151.534 18.517h5.69v-5.69h-5.69Z"/></g></g></svg>
