<svg xmlns="http://www.w3.org/2000/svg" width="494.381" height="135.15" viewBox="-72 -72 370.786 101.363"><g stroke="#000" stroke-miterlimit="10" stroke-width=".4"><path fill="none" stroke="gray" stroke-dasharray="3.0,3.0" stroke-width=".9" d="M-.688 28.358v-99.585zm0-99.585"/><path fill="none" stroke="#1f2933" stroke-width=".9" d="M-71.82-45.619h34.143ZM-71.82 16.977h34.143Zm34.143 0"/><path fill="none" stroke="#666" stroke-width=".9" d="M108.855 24.944v-68.287h189.21v68.287Zm189.21-68.287"/><path fill="none" stroke="#cfc" stroke-width=".9" d="M20.736-45.619H-25.56M40.484-45.619h14.999"/><path fill="none" stroke="#fcc" stroke-width=".9" d="M114.63-27.98 78.942-41.366M134.378-24.28h26.38"/><path fill="none" stroke="#cfc" stroke-width=".9" d="M20.736 16.977H-25.56M40.484 16.977h14.999"/><path fill="none" stroke="#fcc" stroke-width=".9" d="m114.63 12.274-34.977 3.498M134.378 11.287h26.38M199.419-31.864l-14.896 4.257M206.079-31.907l16.28 4.44M199.419-17.959l-14.76-3.514M206.079-14.14l19.004 17.277M199.419 2.438l-15.052 5.018M206.079-1.396l18.592-15.212M199.419 17.607l-14.76-3.514M206.079 17.643l16.154-3.672M264.007-24.28h-17.844M264.007 11.287h-17.844"/><g stroke="none" font-size="10"><text x="-71.82" y="45.43" font-family="cmmi10" transform="translate(25.617 -110.755)">k</text><text x="-64.077" y="45.43" font-family="cmsy10" transform="translate(25.617 -110.755)">¡</text><text x="-54.077" y="45.43" font-family="cmr10" transform="translate(25.617 -110.755)">1</text></g><text x="-71.82" y="45.43" stroke="none" font-family="cmmi10" font-size="10" transform="translate(190.718 -110.339)">k</text><g stroke="none" font-family="cmr10" font-size="10"><text x="-71.82" y="37.43" transform="translate(31.332 -53.645)">.</text><text x="-71.82" y="41.43" transform="translate(31.332 -53.645)">.</text><text x="-71.82" y="45.43" transform="translate(31.332 -53.645)">.</text></g><g stroke="none" font-family="cmr10" font-size="10"><text x="-71.82" y="37.43" transform="translate(135.184 -53.645)">.</text><text x="-71.82" y="41.43" transform="translate(135.184 -53.645)">.</text><text x="-71.82" y="45.43" transform="translate(135.184 -53.645)">.</text></g><g stroke="none" font-family="cmr10" font-size="10"><text x="-71.82" y="37.43" transform="translate(303.055 -53.645)">.</text><text x="-71.82" y="41.43" transform="translate(303.055 -53.645)">.</text><text x="-71.82" y="45.43" transform="translate(303.055 -53.645)">.</text></g><g stroke="none" font-family="cmr10" font-size="10"><text x="-71.82" y="37.43" transform="translate(367.074 -53.645)">.</text><text x="-71.82" y="41.43" transform="translate(367.074 -53.645)">.</text><text x="-71.82" y="45.43" transform="translate(367.074 -53.645)">.</text></g><g stroke="none" font-family="cmr10" font-size="10"><text x="-71.82" y="37.43" transform="translate(298.788 -29.46)">.</text><text x="-71.82" y="41.43" transform="translate(298.788 -29.46)">.</text><text x="-71.82" y="45.43" transform="translate(298.788 -29.46)">.</text></g><g stroke="none" font-family="cmr10" font-size="10"><text x="-71.82" y="37.43" transform="translate(298.788 -76.408)">.</text><text x="-71.82" y="41.43" transform="translate(298.788 -76.408)">.</text><text x="-71.82" y="45.43" transform="translate(298.788 -76.408)">.</text></g><g stroke="none" font-size="5"><text x="-71.82" y="45.43" font-family="cmmi5" transform="translate(268.866 -83.436)">Ã</text><text x="-67.167" y="46.93" font-family="cmr5" transform="translate(268.866 -83.436)">1</text><text x="-63.764" y="46.93" font-family="cmmi5" transform="translate(268.866 -83.436)">;</text><text x="-61.473" y="46.93" font-family="cmr5" transform="translate(268.866 -83.436)">1</text></g><g stroke="none" font-size="5"><text x="-71.82" y="45.43" font-family="cmmi5" transform="translate(263.623 -63.533)">Ã</text><text x="-67.167" y="46.93" font-family="cmr5" transform="translate(263.623 -63.533)">1</text><text x="-63.764" y="46.93" font-family="cmmi5" transform="translate(263.623 -63.533)">;n</text><text x="-57.069" y="47.93" font-family="cmmi5" transform="translate(263.623 -63.533)">m</text></g><g stroke="none" font-size="5"><text x="-71.82" y="45.43" font-family="cmmi5" transform="translate(262.2 -43.616)">Ã</text><text x="-67.167" y="46.93" font-family="cmmi5" transform="translate(262.2 -43.616)">n</text><text x="-62.763" y="47.93" font-family="cmmi5" transform="translate(262.2 -43.616)">m</text><text x="-56.123" y="46.93" font-family="cmmi5" transform="translate(262.2 -43.616)">;</text><text x="-53.831" y="46.93" font-family="cmr5" transform="translate(262.2 -43.616)">1</text></g><g stroke="none" font-family="cmmi5" font-size="5"><text x="-71.82" y="45.43" transform="translate(256.957 -24.871)">Ã</text><text x="-67.167" y="46.43" transform="translate(256.957 -24.871)">n</text><text x="-62.763" y="47.43" transform="translate(256.957 -24.871)">m</text><text x="-56.123" y="46.43" transform="translate(256.957 -24.871)">;n</text><text x="-49.427" y="47.43" transform="translate(256.957 -24.871)">m</text></g><g fill="#ececec" stroke="#1f2933" stroke-width=".9"><path fill="#ececec" d="M-26.011-45.619c0-6.443-5.223-11.665-11.666-11.665s-11.665 5.222-11.665 11.665 5.222 11.666 11.665 11.666S-26.01-39.176-26.01-45.62Zm-11.666 0"/><g fill="#000" stroke="none" font-size="5"><text x="-71.82" y="45.43" font-family="cmmi5" transform="translate(25.497 -89.438)">v</text><text x="-68.029" y="45.43" font-family="cmmi5" transform="translate(25.497 -89.438)">x</text><text x="-64.071" y="45.43" font-family="cmr5" transform="translate(25.497 -89.438)">1</text><text x="-60.668" y="45.43" font-family="cmmi5" transform="translate(25.497 -89.438)">m</text></g></g><g fill="#ececec" stroke="#1f2933" stroke-width=".9"><path fill="#ececec" d="M79.264-45.619c0-6.443-5.223-11.665-11.666-11.665S55.933-52.062 55.933-45.62s5.222 11.666 11.665 11.666 11.666-5.223 11.666-11.666Zm-11.666 0"/><g fill="#000" stroke="none" font-size="5"><text x="-71.82" y="45.43" font-family="cmmi5" transform="translate(133.842 -89.438)">v</text><text x="-68.029" y="45.43" font-family="cmmi5" transform="translate(133.842 -89.438)">x</text><text x="-64.071" y="45.43" font-family="cmr5" transform="translate(133.842 -89.438)">1</text></g></g><g fill="#ececec" stroke="#1f2933" stroke-width=".9"><path fill="#ececec" d="M-26.011 16.977c0-6.443-5.223-11.666-11.666-11.666s-11.665 5.223-11.665 11.666 5.222 11.666 11.665 11.666S-26.01 23.42-26.01 16.977Zm-11.666 0"/><g fill="#000" stroke="none" font-family="cmmi5" font-size="5"><text x="-71.82" y="45.43" transform="translate(24.997 -27.376)">v</text><text x="-68.029" y="45.43" transform="translate(24.997 -27.376)">xnm</text></g></g><g fill="#ececec" stroke="#1f2933" stroke-width=".9"><path fill="#ececec" d="M79.264 16.977c0-6.443-5.223-11.666-11.666-11.666s-11.665 5.223-11.665 11.666 5.222 11.666 11.665 11.666 11.666-5.223 11.666-11.666Zm-11.666 0"/><g fill="#000" stroke="none" font-family="cmmi5" font-size="5"><text x="-71.82" y="45.43" transform="translate(133.342 -27.376)">v</text><text x="-68.029" y="45.43" transform="translate(133.342 -27.376)">xn</text></g></g><g fill="#ececec" stroke="#1f2933" stroke-width=".9"><path fill="#ececec" d="M184.54-24.28c0-6.442-5.223-11.665-11.666-11.665s-11.666 5.223-11.666 11.666 5.223 11.665 11.666 11.665 11.665-5.222 11.665-11.665Zm-11.666 0"/><g fill="#000" stroke="none" font-size="5"><text x="-71.82" y="45.43" font-family="cmmi5" transform="translate(239.161 -68.098)">v</text><text x="-68.029" y="45.43" font-family="cmmi5" transform="translate(239.161 -68.098)">a</text><text x="-64.157" y="45.43" font-family="cmr5" transform="translate(239.161 -68.098)">1</text></g></g><g fill="#ececec" stroke="#1f2933" stroke-width=".9"><path fill="#ececec" d="M245.713-24.28c0-6.442-5.223-11.665-11.666-11.665s-11.666 5.223-11.666 11.666 5.223 11.665 11.666 11.665 11.666-5.222 11.666-11.665Zm-11.666 0"/><g fill="#000" stroke="none" font-size="5"><text x="-71.82" y="45.43" font-family="cmmi5" transform="translate(300.687 -67.973)">v</text><text x="-68.029" y="45.43" font-family="cmmi5" transform="translate(300.687 -67.973)">b</text><text x="-64.863" y="45.43" font-family="cmr5" transform="translate(300.687 -67.973)">1</text></g></g><g fill="#ececec" stroke="#1f2933" stroke-width=".9"><path fill="#ececec" d="M184.54 11.287c0-6.443-5.223-11.666-11.666-11.666s-11.666 5.223-11.666 11.666c0 6.442 5.223 11.665 11.666 11.665s11.665-5.223 11.665-11.665Zm-11.666 0"/><g fill="#000" stroke="none" font-family="cmmi5" font-size="5"><text x="-71.82" y="45.43" transform="translate(238.66 -33.067)">v</text><text x="-68.029" y="45.43" transform="translate(238.66 -33.067)">an</text></g></g><g fill="#ececec" stroke="#1f2933" stroke-width=".9"><path fill="#ececec" d="M245.713 11.287c0-6.443-5.223-11.666-11.666-11.666s-11.666 5.223-11.666 11.666c0 6.442 5.223 11.665 11.666 11.665s11.666-5.223 11.666-11.665Zm-11.666 0"/><g fill="#000" stroke="none" font-family="cmmi5" font-size="5"><text x="-71.82" y="45.43" transform="translate(300.186 -32.407)">v</text><text x="-68.029" y="45.43" transform="translate(300.186 -32.407)">bn</text></g></g><g stroke="none"><text x="-71.82" y="45.43" font-family="cmmi9" font-size="9" transform="translate(329.71 -80.496)">s</text><text x="-64.942" y="45.43" font-family="cmr9" font-size="9" transform="translate(329.71 -80.496)">=</text><text x="-55.178" y="45.43" font-family="cmr9" font-size="9" transform="translate(329.71 -80.496)">1</text><text x="-50.553" y="45.43" font-family="cmmi9" font-size="9" transform="translate(329.71 -80.496)">::n</text><text x="-39.834" y="46.43" font-family="cmmi6" font-size="6" transform="translate(329.71 -80.496)">s</text></g><g fill="#cfc" stroke="#cfc"><path fill="#cfc" stroke="#cfc" d="M20.936-35.945h19.348v-19.348H20.936Z"/><g fill="#000" stroke="none"><text x="-71.82" y="45.43" font-family="cmmi7" font-size="7" transform="translate(98.137 -88.61)">f</text><text x="-67.136" y="42.412" font-family="cmr5" font-size="5" transform="translate(98.137 -88.61)">1</text></g></g><g fill="#fcc" stroke="#fcc"><path fill="#fcc" stroke="#fcc" d="M114.83-14.605h19.348v-19.348H114.83Z"/><g fill="#000" stroke="none"><text x="-71.82" y="45.43" font-family="cmmi7" font-size="7" transform="translate(192.296 -67.27)">g</text><text x="-67.668" y="42.412" font-family="cmr5" font-size="5" transform="translate(192.296 -67.27)">1</text></g></g><g fill="#cfc" stroke="#cfc"><path fill="#cfc" stroke="#cfc" d="M20.936 26.651h19.348V7.303H20.936Z"/><g fill="#000" stroke="none"><text x="-71.82" y="45.43" font-family="cmmi7" font-size="7" transform="translate(95.71 -26.548)">f</text><text x="-67.136" y="42.412" font-family="cmmi5" font-size="5" transform="translate(95.71 -26.548)">n</text><text x="-62.732" y="43.412" font-family="cmmi5" font-size="5" transform="translate(95.71 -26.548)">s</text></g></g><g fill="#fcc" stroke="#fcc"><path fill="#fcc" stroke="#fcc" d="M114.83 20.96h19.348V1.614H114.83Z"/><g fill="#000" stroke="none"><text x="-71.82" y="45.43" font-family="cmmi7" font-size="7" transform="translate(189.87 -32.238)">g</text><text x="-67.668" y="42.412" font-family="cmmi5" font-size="5" transform="translate(189.87 -32.238)">n</text><text x="-63.264" y="43.412" font-family="cmmi5" font-size="5" transform="translate(189.87 -32.238)">s</text></g></g><g fill="#fcc" stroke="#fcc"><path fill="#fcc" stroke="#fcc" d="M199.619-29.685h6.26v-6.26h-6.26Z"/></g><g fill="#fcc" stroke="#fcc"><path fill="#fcc" stroke="#fcc" d="M199.619-14.036h6.26v-6.26h-6.26Z"/></g><g fill="#fcc" stroke="#fcc"><path fill="#fcc" stroke="#fcc" d="M199.619 4.458h6.26v-6.26h-6.26Z"/></g><g fill="#fcc" stroke="#fcc"><path fill="#fcc" stroke="#fcc" d="M199.619 21.53h6.26v-6.26h-6.26Z"/></g><g fill="#fcc" stroke="#fcc"><path fill="#fcc" stroke="#fcc" d="M264.207-14.605h19.348v-19.348h-19.348Z"/><g fill="#000" stroke="none"><text x="-71.82" y="45.43" font-family="cmmi7" font-size="7" transform="translate(341.408 -66.59)">h</text><text x="-67.138" y="42.412" font-family="cmr5" font-size="5" transform="translate(341.408 -66.59)">1</text></g></g><g fill="#fcc" stroke="#fcc"><path fill="#fcc" stroke="#fcc" d="M264.207 20.96h19.348V1.614h-19.348Z"/><g fill="#000" stroke="none"><text x="-71.82" y="45.43" font-family="cmmi7" font-size="7" transform="translate(337.588 -31.558)">h</text><text x="-67.138" y="42.412" font-family="cmmi5" font-size="5" transform="translate(337.588 -31.558)">n</text><text x="-62.734" y="43.412" font-family="cmmi5" font-size="5" transform="translate(337.588 -31.558)">m</text></g></g></g></svg>
