<svg xmlns="http://www.w3.org/2000/svg" width="555.326" height="274.592" viewBox="-72 -72 416.495 205.944"><g stroke="#000" stroke-miterlimit="10" stroke-width=".4"><path fill="none" stroke="#000" stroke-width=".8" d="M-7.482-28.337H-47.57M-5.175-32.248l-6.58-11.907M1.454-28.337h11.634M106.329-28.337h-68.54M108.636-32.248l-6.58-11.907M115.264-28.337H126.9M220.14-28.337H151.6M222.447-32.248l-6.58-11.907M229.075-28.337h11.635M-7.482 22.877H-47.57M1.454 22.877H47.23M-.845 18.972l20.286-36.513M-3.905 18.5l-12.752-62.655M-5.435 19.122l-4.84-7.51M106.329 22.877H71.932M115.264 22.877h45.778M112.966 18.972l20.286-36.513M109.906 18.5 97.154-44.156M108.376 19.122l-4.84-7.51M220.14 22.877h-34.397M229.075 22.877h45.778M226.777 18.972l20.286-36.513M223.717 18.5l-12.752-62.655M222.187 19.122l-4.84-7.51M-7.482 65.556h-12.773M1.454 65.556h12.772M106.329 65.556H93.556M115.264 65.556h12.773M220.14 65.556h-12.773M229.075 65.556h12.773M49.423 65.556h-1.392M58.359 65.556h1.392M52.595 61.28 29.02-16.517M54.481 61.128l3.469-26.01M53.891 70.024v32.69M163.234 65.556h-1.392M172.17 65.556h1.392M166.406 61.28l-23.575-77.798M168.292 61.128l3.469-26.01M167.702 70.024v32.69M277.045 65.556h-1.392M285.98 65.556h23.87M280.217 61.28l-23.575-77.798M282.103 61.128l3.469-26.01M281.513 70.024v32.69M.914 81.923l15.353-8.317M-3.014 88.519v-.316M114.725 81.923l15.353-8.317M110.797 88.519v-.316M228.536 81.923l15.353-8.317M224.608 88.519v-.316"/><g fill="#fee2e2" stroke="#8c1d18" stroke-width=".8"><path d="M-47.97-28.337c0-6.6-5.35-11.95-11.95-11.95s-11.95 5.35-11.95 11.95 5.35 11.95 11.95 11.95 11.95-5.35 11.95-11.95Zm-11.95 0"/><g fill="#000" stroke="none"><text x="-88.373" y="139.534" font-family="cmsy9" font-size="9" transform="translate(23.525 -165.296)">V</text><text x="-82.684" y="140.534" font-family="cmr6" font-size="6" transform="translate(23.525 -165.296)">0</text></g></g><g fill="#fee2e2" stroke="#8c1d18" stroke-width=".8"><path d="M37.388-28.337c0-6.6-5.35-11.95-11.95-11.95s-11.95 5.35-11.95 11.95 5.35 11.95 11.95 11.95 11.95-5.35 11.95-11.95Zm-11.95 0"/><g fill="#000" stroke="none"><text x="-88.373" y="139.534" font-family="cmsy9" font-size="9" transform="translate(108.692 -165.296)">V</text><text x="-82.684" y="140.534" font-family="cmmi6" font-size="6" transform="translate(108.692 -165.296)">a</text></g></g><g fill="#fee2e2" stroke="#8c1d18" stroke-width=".8"><path d="M151.2-28.337c0-6.6-5.35-11.95-11.95-11.95s-11.95 5.35-11.95 11.95 5.35 11.95 11.95 11.95 11.95-5.35 11.95-11.95Zm-11.95 0"/><g fill="#000" stroke="none"><text x="-88.373" y="139.534" font-family="cmsy9" font-size="9" transform="translate(222.885 -165.33)">V</text><text x="-82.684" y="140.6" font-family="cmmi6" font-size="6" transform="translate(222.885 -165.33)">b</text></g></g><g fill="#fee2e2" stroke="#8c1d18" stroke-width=".8"><path d="M265.01-28.337c0-6.6-5.35-11.95-11.95-11.95s-11.95 5.35-11.95 11.95 5.35 11.95 11.95 11.95 11.95-5.35 11.95-11.95Zm-11.95 0"/><g fill="#000" stroke="none"><text x="-88.373" y="139.534" font-family="cmsy9" font-size="9" transform="translate(336.661 -165.296)">V</text><text x="-82.684" y="140.534" font-family="cmmi6" font-size="6" transform="translate(336.661 -165.296)">c</text></g></g><g fill="#fee2e2" stroke="#8c1d18" stroke-width=".8"><path d="M-33.174-44.555H-5.86V-71.87h-27.314Z"/><g fill="#000" stroke="none"><text x="-86.901" y="139.534" font-family="cmr7" font-size="7" transform="translate(65.072 -196.073)">_</text><text x="-88.373" y="139.534" font-family="cmmi7" font-size="7" transform="translate(65.072 -196.073)">q</text><text x="-84.707" y="140.534" font-family="cmr5" font-size="5" transform="translate(65.072 -196.073)">1</text></g></g><g fill="#fee2e2" stroke="#8c1d18" stroke-width=".8"><path d="M80.637-44.555h27.314V-71.87H80.637Z"/><g fill="#000" stroke="none"><text x="-86.901" y="139.534" font-family="cmr7" font-size="7" transform="translate(178.883 -196.073)">_</text><text x="-88.373" y="139.534" font-family="cmmi7" font-size="7" transform="translate(178.883 -196.073)">q</text><text x="-84.707" y="140.534" font-family="cmr5" font-size="5" transform="translate(178.883 -196.073)">2</text></g></g><g fill="#fee2e2" stroke="#8c1d18" stroke-width=".8"><path d="M194.448-44.555h27.314V-71.87h-27.314Z"/><g fill="#000" stroke="none"><text x="-86.901" y="139.534" font-family="cmr7" font-size="7" transform="translate(292.694 -196.073)">_</text><text x="-88.373" y="139.534" font-family="cmmi7" font-size="7" transform="translate(292.694 -196.073)">q</text><text x="-84.707" y="140.534" font-family="cmr5" font-size="5" transform="translate(292.694 -196.073)">3</text></g></g><g fill="#fee2e2" stroke="#8c1d18" stroke-width=".8"><path d="M-47.97 22.877c0-6.6-5.35-11.95-11.95-11.95s-11.95 5.35-11.95 11.95 5.35 11.95 11.95 11.95 11.95-5.35 11.95-11.95Zm-11.95 0"/><g fill="#000" stroke="none"><text x="-86.184" y="137.259" font-family="cmr9" font-size="9" transform="translate(23.525 -113.008)">_</text><text x="-88.373" y="139.534" font-family="cmsy9" font-size="9" transform="translate(23.525 -113.008)">V</text><text x="-82.684" y="140.534" font-family="cmr6" font-size="6" transform="translate(23.525 -113.008)">0</text></g></g><g fill="#fee2e2" stroke="#8c1d18" stroke-width=".8"><path d="M71.532 22.877c0-6.6-5.35-11.95-11.95-11.95s-11.95 5.35-11.95 11.95 5.35 11.95 11.95 11.95 11.95-5.35 11.95-11.95Zm-11.95 0"/><g fill="#000" stroke="none"><text x="-86.184" y="137.259" font-family="cmr9" font-size="9" transform="translate(142.835 -113.008)">_</text><text x="-88.373" y="139.534" font-family="cmsy9" font-size="9" transform="translate(142.835 -113.008)">V</text><text x="-82.684" y="140.534" font-family="cmmi6" font-size="6" transform="translate(142.835 -113.008)">a</text></g></g><g fill="#fee2e2" stroke="#8c1d18" stroke-width=".8"><path d="M185.343 22.877c0-6.6-5.35-11.95-11.95-11.95s-11.95 5.35-11.95 11.95 5.35 11.95 11.95 11.95 11.95-5.35 11.95-11.95Zm-11.95 0"/><g fill="#000" stroke="none"><text x="-86.184" y="137.259" font-family="cmr9" font-size="9" transform="translate(257.028 -113.041)">_</text><text x="-88.373" y="139.534" font-family="cmsy9" font-size="9" transform="translate(257.028 -113.041)">V</text><text x="-82.684" y="140.6" font-family="cmmi6" font-size="6" transform="translate(257.028 -113.041)">b</text></g></g><g fill="#fee2e2" stroke="#8c1d18" stroke-width=".8"><path d="M299.154 22.877c0-6.6-5.35-11.95-11.95-11.95s-11.95 5.35-11.95 11.95 5.35 11.95 11.95 11.95 11.95-5.35 11.95-11.95Zm-11.95 0"/><g fill="#000" stroke="none"><text x="-86.184" y="137.259" font-family="cmr9" font-size="9" transform="translate(370.804 -113.008)">_</text><text x="-88.373" y="139.534" font-family="cmsy9" font-size="9" transform="translate(370.804 -113.008)">V</text><text x="-82.684" y="140.534" font-family="cmmi6" font-size="6" transform="translate(370.804 -113.008)">c</text></g></g><g fill="#fee2e2" stroke="#8c1d18" stroke-width=".8"><path d="M-33.459 11.212h27.884v-27.884H-33.46Z"/><g fill="#000" stroke="none"><text x="-87.762" y="139.534" font-family="cmr7" font-size="7" transform="translate(65.072 -140.59)">Ä</text><text x="-88.373" y="139.534" font-family="cmmi7" font-size="7" transform="translate(65.072 -140.59)">q</text><text x="-84.707" y="140.534" font-family="cmr5" font-size="5" transform="translate(65.072 -140.59)">1</text></g></g><g fill="#fee2e2" stroke="#8c1d18" stroke-width=".8"><path d="M80.352 11.212h27.884v-27.884H80.352Z"/><g fill="#000" stroke="none"><text x="-87.762" y="139.534" font-family="cmr7" font-size="7" transform="translate(178.883 -140.59)">Ä</text><text x="-88.373" y="139.534" font-family="cmmi7" font-size="7" transform="translate(178.883 -140.59)">q</text><text x="-84.707" y="140.534" font-family="cmr5" font-size="5" transform="translate(178.883 -140.59)">2</text></g></g><g fill="#fee2e2" stroke="#8c1d18" stroke-width=".8"><path d="M194.163 11.212h27.884v-27.884h-27.884Z"/><g fill="#000" stroke="none"><text x="-87.762" y="139.534" font-family="cmr7" font-size="7" transform="translate(292.694 -140.59)">Ä</text><text x="-88.373" y="139.534" font-family="cmmi7" font-size="7" transform="translate(292.694 -140.59)">q</text><text x="-84.707" y="140.534" font-family="cmr5" font-size="5" transform="translate(292.694 -140.59)">3</text></g></g><g fill="#fee2e2" stroke="#8c1d18" stroke-width=".8"><path d="M-20.655 65.556c0-9.114-7.388-16.502-16.503-16.502S-53.66 56.442-53.66 65.556c0 9.115 7.388 16.503 16.502 16.503 9.115 0 16.503-7.388 16.503-16.503Zm-16.503 0"/><g fill="#000" stroke="none"><text x="-88.373" y="139.534" font-family="cmsy8" font-size="8" transform="translate(43.126 -72.383)">F</text><text x="-82.306" y="140.645" font-family="cmr6" font-size="6" transform="translate(43.126 -72.383)">0</text><text x="-78.639" y="140.645" font-family="cmmi6" font-size="6" transform="translate(43.126 -72.383)">;</text><text x="-76.362" y="140.645" font-family="cmr6" font-size="6" transform="translate(43.126 -72.383)">1</text></g></g><g fill="#fee2e2" stroke="#8c1d18" stroke-width=".8"><path d="M47.631 65.556c0-9.114-7.388-16.502-16.502-16.502s-16.503 7.388-16.503 16.502c0 9.115 7.389 16.503 16.503 16.503S47.63 74.671 47.63 65.556Zm-16.502 0"/><g fill="#000" stroke="none"><text x="-88.373" y="139.534" font-family="cmsy8" font-size="8" transform="translate(111.221 -72.383)">F</text><text x="-82.306" y="140.645" font-family="cmmi6" font-size="6" transform="translate(111.221 -72.383)">a;</text><text x="-75.979" y="140.645" font-family="cmr6" font-size="6" transform="translate(111.221 -72.383)">1</text></g></g><g fill="#fee2e2" stroke="#8c1d18" stroke-width=".8"><path d="M93.156 65.556c0-9.114-7.388-16.502-16.503-16.502s-16.502 7.388-16.502 16.502c0 9.115 7.388 16.503 16.502 16.503 9.115 0 16.503-7.388 16.503-16.503Zm-16.503 0"/><g fill="#000" stroke="none"><text x="-88.373" y="139.534" font-family="cmsy8" font-size="8" transform="translate(156.746 -72.383)">F</text><text x="-82.306" y="140.645" font-family="cmmi6" font-size="6" transform="translate(156.746 -72.383)">a;</text><text x="-75.979" y="140.645" font-family="cmr6" font-size="6" transform="translate(156.746 -72.383)">2</text></g></g><g fill="#fee2e2" stroke="#8c1d18" stroke-width=".8"><path d="M161.442 65.556c0-9.114-7.388-16.502-16.502-16.502s-16.503 7.388-16.503 16.502c0 9.115 7.389 16.503 16.503 16.503s16.502-7.388 16.502-16.503Zm-16.502 0"/><g fill="#000" stroke="none"><text x="-88.373" y="139.534" font-family="cmsy8" font-size="8" transform="translate(225.414 -72.533)">F</text><text x="-82.306" y="140.945" font-family="cmmi6" font-size="6" transform="translate(225.414 -72.533)">b;</text><text x="-76.742" y="140.945" font-family="cmr6" font-size="6" transform="translate(225.414 -72.533)">2</text></g></g><g fill="#fee2e2" stroke="#8c1d18" stroke-width=".8"><path d="M206.967 65.556c0-9.114-7.388-16.502-16.503-16.502s-16.502 7.388-16.502 16.502c0 9.115 7.388 16.503 16.502 16.503 9.115 0 16.503-7.388 16.503-16.503Zm-16.503 0"/><g fill="#000" stroke="none"><text x="-88.373" y="139.534" font-family="cmsy8" font-size="8" transform="translate(270.938 -72.533)">F</text><text x="-82.306" y="140.945" font-family="cmmi6" font-size="6" transform="translate(270.938 -72.533)">b;</text><text x="-76.742" y="140.945" font-family="cmr6" font-size="6" transform="translate(270.938 -72.533)">3</text></g></g><g fill="#fee2e2" stroke="#8c1d18" stroke-width=".8"><path d="M275.253 65.556c0-9.114-7.388-16.502-16.502-16.502s-16.503 7.388-16.503 16.502c0 9.115 7.389 16.503 16.503 16.503s16.502-7.388 16.502-16.503Zm-16.502 0"/><g fill="#000" stroke="none"><text x="-88.373" y="139.534" font-family="cmsy8" font-size="8" transform="translate(339.19 -72.383)">F</text><text x="-82.306" y="140.645" font-family="cmmi6" font-size="6" transform="translate(339.19 -72.383)">c;</text><text x="-76.673" y="140.645" font-family="cmr6" font-size="6" transform="translate(339.19 -72.383)">3</text></g></g><g fill="#fee2e2" stroke="#8c1d18" stroke-width=".8"><path d="M310.25 82.344h33.575V48.769H310.25Z"/><g fill="#000" stroke="none"><text x="-88.373" y="139.534" font-family="cmsy8" font-size="8" transform="translate(407.88 -72.327)">F</text><text x="-82.306" y="140.534" font-family="cmmi6" font-size="6" transform="translate(407.88 -72.327)">c;t</text></g></g><g fill="#fee2e2" stroke="#8c1d18" stroke-width=".8"><path d="M-15.534 113.642H9.505V88.603h-25.039Z"/><g fill="#000" stroke="none"><text x="-88.373" y="139.534" font-family="cmmi7" font-size="7" transform="translate(81.563 -37.404)">¿</text><text x="-84.685" y="140.534" font-family="cmr5" font-size="5" transform="translate(81.563 -37.404)">1</text></g></g><g fill="#fee2e2" stroke="#8c1d18" stroke-width=".8"><path d="M98.277 113.642h25.039V88.603H98.277Z"/><g fill="#000" stroke="none"><text x="-88.373" y="139.534" font-family="cmmi7" font-size="7" transform="translate(195.374 -37.404)">¿</text><text x="-84.685" y="140.534" font-family="cmr5" font-size="5" transform="translate(195.374 -37.404)">2</text></g></g><g fill="#fee2e2" stroke="#8c1d18" stroke-width=".8"><path d="M212.088 113.642h25.039V88.603h-25.039Z"/><g fill="#000" stroke="none"><text x="-88.373" y="139.534" font-family="cmmi7" font-size="7" transform="translate(309.185 -37.404)">¿</text><text x="-84.685" y="140.534" font-family="cmr5" font-size="5" transform="translate(309.185 -37.404)">3</text></g></g><g fill="#fee2e2" stroke="#8c1d18" stroke-width=".8"><path d="M38.811 133.274h30.16v-30.16h-30.16Z"/><g fill="#000" stroke="none"><text x="-88.373" y="139.534" font-family="cmmi7" font-size="7" transform="translate(132.528 -19.435)">m</text><text x="-81.277" y="140.534" font-family="cmmi5" font-size="5" transform="translate(132.528 -19.435)">a</text><text x="-76.904" y="139.534" font-family="cmmi7" font-size="7" transform="translate(132.528 -19.435)">g</text><text x="-72.752" y="136.516" font-family="cmmi5" font-size="5" transform="translate(132.528 -19.435)">s</text></g></g><g fill="#fee2e2" stroke="#8c1d18" stroke-width=".8"><path d="M152.622 133.274h30.16v-30.16h-30.16Z"/><g fill="#000" stroke="none"><text x="-88.373" y="139.534" font-family="cmmi7" font-size="7" transform="translate(246.692 -19.435)">m</text><text x="-81.277" y="140.595" font-family="cmmi5" font-size="5" transform="translate(246.692 -19.435)">b</text><text x="-77.61" y="139.534" font-family="cmmi7" font-size="7" transform="translate(246.692 -19.435)">g</text><text x="-73.457" y="136.516" font-family="cmmi5" font-size="5" transform="translate(246.692 -19.435)">s</text></g></g><g fill="#fee2e2" stroke="#8c1d18" stroke-width=".8"><path d="M266.433 133.274h30.16v-30.16h-30.16Z"/><g fill="#000" stroke="none"><text x="-88.373" y="139.534" font-family="cmmi7" font-size="7" transform="translate(360.462 -19.435)">m</text><text x="-81.277" y="140.534" font-family="cmmi5" font-size="5" transform="translate(360.462 -19.435)">c</text><text x="-77.529" y="139.534" font-family="cmmi7" font-size="7" transform="translate(360.462 -19.435)">g</text><text x="-73.377" y="136.516" font-family="cmmi5" font-size="5" transform="translate(360.462 -19.435)">s</text></g></g><g fill="#000" stroke="#000"><path fill="#000" stroke="#000" d="M1.254-28.337a4.268 4.268 0 1 0-8.536 0 4.268 4.268 0 0 0 8.536 0Zm-4.268 0"/></g><g fill="#000" stroke="#000"><path fill="#000" stroke="#000" d="M115.064-28.337a4.268 4.268 0 1 0-8.535 0 4.268 4.268 0 0 0 8.535 0Zm-4.267 0"/></g><g fill="#000" stroke="#000"><path fill="#000" stroke="#000" d="M228.875-28.337a4.268 4.268 0 1 0-8.535 0 4.268 4.268 0 0 0 8.535 0Zm-4.267 0"/></g><g fill="#000" stroke="#000"><path fill="#000" stroke="#000" d="M1.254 22.877a4.268 4.268 0 1 0-8.536 0 4.268 4.268 0 0 0 8.536 0Zm-4.268 0"/></g><g fill="#000" stroke="#000"><path fill="#000" stroke="#000" d="M115.064 22.877a4.268 4.268 0 1 0-8.535 0 4.268 4.268 0 0 0 8.535 0Zm-4.267 0"/></g><g fill="#000" stroke="#000"><path fill="#000" stroke="#000" d="M228.875 22.877a4.268 4.268 0 1 0-8.535 0 4.268 4.268 0 0 0 8.535 0Zm-4.267 0"/></g><g fill="#000" stroke="#000"><path fill="#000" stroke="#000" d="M1.254 65.556a4.268 4.268 0 1 0-8.536 0 4.268 4.268 0 0 0 8.536 0Zm-4.268 0"/></g><g fill="#000" stroke="#000"><path fill="#000" stroke="#000" d="M115.064 65.556a4.268 4.268 0 1 0-8.535 0 4.268 4.268 0 0 0 8.535 0Zm-4.267 0"/></g><g fill="#000" stroke="#000"><path fill="#000" stroke="#000" d="M228.875 65.556a4.268 4.268 0 1 0-8.535 0 4.268 4.268 0 0 0 8.535 0Zm-4.267 0"/></g><g fill="#000" stroke="#000"><path fill="#000" stroke="#000" d="M58.159 65.556a4.268 4.268 0 1 0-8.536 0 4.268 4.268 0 0 0 8.536 0Zm-4.268 0"/></g><g fill="#000" stroke="#000"><path fill="#000" stroke="#000" d="M171.97 65.556a4.268 4.268 0 1 0-8.536 0 4.268 4.268 0 0 0 8.536 0Zm-4.268 0"/></g><g fill="#000" stroke="#000"><path fill="#000" stroke="#000" d="M285.78 65.556a4.268 4.268 0 1 0-8.535 0 4.268 4.268 0 0 0 8.536 0Zm-4.267 0"/></g><g fill="#000" stroke="#000"><path fill="#000" stroke="#000" d="M1.254 84.051a4.268 4.268 0 1 0-8.536 0 4.268 4.268 0 0 0 8.536 0Zm-4.268 0"/></g><g fill="#000" stroke="#000"><path fill="#000" stroke="#000" d="M115.064 84.051a4.268 4.268 0 1 0-8.535 0 4.268 4.268 0 0 0 8.535 0Zm-4.267 0"/></g><g fill="#000" stroke="#000"><path fill="#000" stroke="#000" d="M228.875 84.051a4.268 4.268 0 1 0-8.535 0 4.268 4.268 0 0 0 8.535 0Zm-4.267 0"/></g></g></svg>
