<svg xmlns="http://www.w3.org/2000/svg" width="145.361" height="183.298" viewBox="-72 -72 109.02 137.473"><g stroke="#000" stroke-miterlimit="10" stroke-width=".4"><path fill="none" stroke="#0f172a" stroke-width=".9" d="m-22.512 15.444-26.1 26.097M-13.01 15.445l29.563 29.561"/><g stroke="#0f172a" stroke-width=".9"><path fill="none" d="M-48.608-60.439h57.82"/><path fill="#0f172a" d="m11.9-60.439-3.694-1.527 1.232 1.527-1.232 1.527Z"/></g><g fill="#fff" stroke="#0f172a" stroke-width=".9"><path d="M-71.82 64.753h22.762V41.991H-71.82Z"/><text x="-60.439" y="53.372" fill="#000" stroke="none" font-family="cmmi10" font-size="10" transform="translate(-2.858 2.153)">x</text></g><g fill="#fff" stroke="#0f172a" stroke-width=".9"><path d="M36.3 53.372c0-6.286-5.095-11.381-11.38-11.381s-11.382 5.095-11.382 11.381 5.096 11.381 11.381 11.381S36.3 59.658 36.3 53.373Zm-11.38 0"/><text x="-60.439" y="53.372" fill="#000" stroke="none" font-family="cmmi10" font-size="10" transform="translate(82.727 1.18)">y</text></g><g fill="#fff" stroke="#0f172a" stroke-width=".9"><path d="M-71.82-49.058h22.762V-71.82H-71.82Z"/><text x="-60.439" y="53.372" fill="#000" stroke="none" font-family="cmmi10" font-size="10" transform="translate(-2.424 -111.658)">o</text></g><g fill="#fff" stroke="#0f172a" stroke-width=".9"><path d="M36.3-60.439c0-6.286-5.095-11.381-11.38-11.381s-11.382 5.095-11.382 11.381 5.096 11.381 11.381 11.381S36.3-54.153 36.3-60.438Zm-11.38 0"/><text x="-60.439" y="53.372" fill="#000" stroke="none" font-family="cmmi10" font-size="10" transform="translate(82.477 -110.339)">h</text></g><g fill="#334155" stroke="#334155"><path d="M-22.312 15.245h9.105V6.141h-9.105Z"/></g></g></svg>
