<svg xmlns="http://www.w3.org/2000/svg" width="145.227" height="183.164" viewBox="-72 -72 108.92 137.373"><g stroke="#000" stroke-miterlimit="10" stroke-width=".4"><path fill="none" stroke="#262626" stroke-width=".8" d="m-22.562 15.393-26.15 26.148M-13.057 15.393l29.596 29.599"/><g stroke="#262626" stroke-width=".8"><path fill="none" d="M-48.708-60.489H9.174"/><path fill="#262626" d="M12.032-60.489 8.053-62.13l1.32 1.642-1.32 1.642Z"/></g><g fill="#fee2e2" stroke="#8c1d18" stroke-width=".8"><path d="M-71.87 64.703h22.762V41.941H-71.87Z"/><text x="-60.489" y="53.322" fill="#000" stroke="none" font-family="cmmi10" font-size="10" transform="translate(-2.858 2.153)">x</text></g><g fill="#fee2e2" stroke="#8c1d18" stroke-width=".8"><path d="M36.25 53.322c0-6.286-5.095-11.381-11.38-11.381s-11.382 5.095-11.382 11.381 5.096 11.381 11.381 11.381 11.381-5.095 11.381-11.38Zm-11.38 0"/><text x="-60.489" y="53.322" fill="#000" stroke="none" font-family="cmmi10" font-size="10" transform="translate(82.727 1.18)">y</text></g><g fill="#fee2e2" stroke="#8c1d18" stroke-width=".8"><path d="M-71.87-49.108h22.762V-71.87H-71.87Z"/><text x="-60.489" y="53.322" fill="#000" stroke="none" font-family="cmmi10" font-size="10" transform="translate(-2.424 -111.658)">o</text></g><g fill="#fee2e2" stroke="#8c1d18" stroke-width=".8"><path d="M36.25-60.489c0-6.286-5.095-11.381-11.38-11.381s-11.382 5.095-11.382 11.381 5.096 11.381 11.381 11.381 11.381-5.095 11.381-11.38Zm-11.38 0"/><text x="-60.489" y="53.322" fill="#000" stroke="none" font-family="cmmi10" font-size="10" transform="translate(82.477 -110.339)">h</text></g><g fill="#dbeafe" stroke="#1d4ed8"><path d="M-22.362 15.195h9.105V6.091h-9.105Z"/></g></g></svg>
