<svg xmlns="http://www.w3.org/2000/svg" width="354.06" height="221.281" viewBox="-72 -72 265.545 165.96"><g stroke="#000" stroke-miterlimit="10" stroke-width=".4"><g stroke="#1f2933" stroke-width=".9"><path fill="none" d="m-9.36 30.78 80.113-80.113"/><path fill="#1f2933" stroke-width=".8999910000000001" d="M72.653-51.233 68.962-49.7l1.95.21.209 1.95Z"/></g><g stroke="#1f2933" stroke-width=".9"><path fill="none" d="M81.86 27.315v-72.047"/><path fill="#1f2933" d="m81.86-47.42-1.527 3.694 1.526-1.231 1.527 1.231Z"/></g><g stroke="#1f2933" stroke-width=".9"><path fill="none" d="M181.444 27.315v-72.047"/><path fill="#1f2933" d="m181.444-47.42-1.527 3.694 1.527-1.231 1.527 1.231Z"/></g><path fill="none" stroke="#b9b9b9" stroke-width=".9" d="M-62.765 39.146h33.209M-17.725 84.186v-33.21M27.315 39.146h-33.21M36.82 39.146h33.208M-17.725 39.146c49.792 26.556 49.792 26.556 99.584 0M126.9 39.146H93.69M136.404 39.146h33.209"/><path fill="none" stroke="red" stroke-width=".9" d="M181.444 84.186v-33.21"/><g fill="#fff" stroke="#1f2933" stroke-width=".9"><path d="M-6.344 39.146c0-6.286-5.096-11.381-11.381-11.381s-11.381 5.095-11.381 11.38 5.095 11.382 11.38 11.382S-6.343 45.43-6.343 39.146Zm-11.381 0"/><g fill="#000" stroke="none"><text x="-17.725" y="39.146" font-family="cmmi10" font-size="10" transform="translate(-5.1 1.403)">x</text><text x="-12.01" y="40.646" font-family="cmr7" font-size="7" transform="translate(-5.1 1.403)">1</text></g></g><g fill="#fff" stroke="#1f2933" stroke-width=".9"><path d="M93.24 39.146c0-6.286-5.095-11.381-11.38-11.381s-11.382 5.095-11.382 11.38 5.096 11.382 11.381 11.382S93.24 45.43 93.24 39.146Zm-11.38 0"/><g fill="#000" stroke="none"><text x="-17.725" y="39.146" font-family="cmmi10" font-size="10" transform="translate(94.484 1.403)">x</text><text x="-12.01" y="40.646" font-family="cmr7" font-size="7" transform="translate(94.484 1.403)">2</text></g></g><g fill="#fff" stroke="#1f2933" stroke-width=".9"><path d="M192.825 39.146c0-6.286-5.095-11.381-11.381-11.381s-11.381 5.095-11.381 11.38 5.095 11.382 11.38 11.382c6.287 0 11.382-5.096 11.382-11.381Zm-11.381 0"/><g fill="#000" stroke="none"><text x="-17.725" y="39.146" font-family="cmmi10" font-size="10" transform="translate(194.069 1.403)">x</text><text x="-12.01" y="40.646" font-family="cmr7" font-size="7" transform="translate(194.069 1.403)">3</text></g></g><g fill="#fff" stroke="#1f2933" stroke-width=".9"><path d="M93.24-60.439c0-6.286-5.095-11.381-11.38-11.381s-11.382 5.095-11.382 11.381 5.096 11.381 11.381 11.381 11.381-5.095 11.381-11.38Zm-11.38 0"/><g fill="#000" stroke="none"><text x="-17.725" y="39.146" font-family="cmmi10" font-size="10" transform="translate(95.85 -96.862)">l</text><text x="-14.741" y="40.646" font-family="cmr7" font-size="7" transform="translate(95.85 -96.862)">1</text></g></g><g fill="#e0e0e0" stroke="#1f2933" stroke-width=".9"><path fill="#e0e0e0" d="M192.825-60.439c0-6.286-5.095-11.381-11.381-11.381s-11.381 5.095-11.381 11.381 5.095 11.381 11.38 11.381c6.287 0 11.382-5.095 11.382-11.38Zm-11.381 0"/><g fill="#000" stroke="none"><text x="-17.725" y="39.146" font-family="cmmi10" font-size="10" transform="translate(195.434 -96.862)">l</text><text x="-14.741" y="40.646" font-family="cmr7" font-size="7" transform="translate(195.434 -96.862)">2</text></g></g><g fill="#b9b9b9" stroke="#b9b9b9"><path fill="#b9b9b9" stroke="#b9b9b9" d="M-62.965 39.146a4.552 4.552 0 1 0-9.105 0 4.552 4.552 0 0 0 9.105 0Zm-4.553 0"/></g><g fill="#b9b9b9" stroke="#b9b9b9"><path fill="#b9b9b9" stroke="#b9b9b9" d="M-13.173 88.938a4.552 4.552 0 1 0-9.105 0 4.552 4.552 0 0 0 9.105 0Zm-4.552 0"/></g><g fill="#b9b9b9" stroke="#b9b9b9"><path fill="#b9b9b9" stroke="#b9b9b9" d="M36.62 39.146a4.552 4.552 0 1 0-9.105 0 4.552 4.552 0 0 0 9.104 0Zm-4.553 0"/></g><g fill="#b9b9b9" stroke="#b9b9b9"><path fill="#b9b9b9" stroke="#b9b9b9" d="M36.62 59.062a4.552 4.552 0 1 0-9.105 0 4.552 4.552 0 0 0 9.104 0Zm-4.553 0"/></g><g fill="#b9b9b9" stroke="#b9b9b9"><path fill="#b9b9b9" stroke="#b9b9b9" d="M136.204 39.146a4.552 4.552 0 1 0-9.105 0 4.552 4.552 0 0 0 9.105 0Zm-4.552 0"/></g><g fill="red" stroke="red"><path fill="red" stroke="red" d="M185.996 88.938a4.552 4.552 0 1 0-9.104 0 4.552 4.552 0 0 0 9.104 0Zm-4.552 0"/></g></g></svg>
