<svg xmlns="http://www.w3.org/2000/svg" width="297.109" height="221.281" viewBox="-72 -72 222.831 165.96"><g stroke="#000" stroke-miterlimit="10" stroke-width=".4"><g stroke="#1f2933" stroke-width=".9"><path fill="none" d="M27.315 39.146h-72.047"/><path fill="#1f2933" d="m-47.42 39.146 3.694 1.526-1.231-1.526 1.231-1.527Z"/></g><g stroke="#1f2933" stroke-width=".9"><path fill="none" d="m-52.073 30.78 80.112-80.113"/><path fill="#1f2933" stroke-width=".8999910000000001" d="M29.94-51.233 26.247-49.7l1.95.21.21 1.95Z"/></g><g stroke="#1f2933" stroke-width=".9"><path fill="none" d="M39.146 27.315v-72.047"/><path fill="#1f2933" d="m39.146-47.42-1.527 3.694 1.527-1.231 1.526 1.231Z"/></g><g stroke="#1f2933" stroke-width=".9"><path fill="none" d="M138.73 27.315v-72.047"/><path fill="#1f2933" d="m138.73-47.42-1.526 3.694 1.526-1.231 1.527 1.231Z"/></g><path fill="none" stroke="red" stroke-width=".9" d="M39.146 84.186v-33.21"/><path fill="none" stroke="#b9b9b9" stroke-width=".9" d="M84.186 39.146h-33.21M93.69 39.146h33.21M138.73 84.186v-33.21"/><g fill="#e0e0e0" stroke="#1f2933" stroke-width=".9"><path fill="#e0e0e0" d="M-49.058 39.146c0-6.286-5.095-11.381-11.38-11.381-6.287 0-11.382 5.095-11.382 11.38s5.095 11.382 11.381 11.382 11.381-5.096 11.381-11.381Zm-11.38 0"/><g fill="#000" stroke="none"><text x="-60.439" y="39.146" font-family="cmmi10" font-size="10" transform="translate(-5.1 1.403)">x</text><text x="-54.724" y="40.646" font-family="cmr7" font-size="7" transform="translate(-5.1 1.403)">1</text></g></g><g fill="#fff" stroke="#1f2933" stroke-width=".9"><path d="M50.527 39.146c0-6.286-5.096-11.381-11.381-11.381s-11.381 5.095-11.381 11.38 5.095 11.382 11.38 11.382 11.382-5.096 11.382-11.381Zm-11.381 0"/><g fill="#000" stroke="none"><text x="-60.439" y="39.146" font-family="cmmi10" font-size="10" transform="translate(94.484 1.403)">x</text><text x="-54.724" y="40.646" font-family="cmr7" font-size="7" transform="translate(94.484 1.403)">2</text></g></g><g fill="#fff" stroke="#1f2933" stroke-width=".9"><path d="M150.111 39.146c0-6.286-5.095-11.381-11.38-11.381s-11.382 5.095-11.382 11.38 5.096 11.382 11.381 11.382 11.381-5.096 11.381-11.381Zm-11.38 0"/><g fill="#000" stroke="none"><text x="-60.439" y="39.146" font-family="cmmi10" font-size="10" transform="translate(194.069 1.403)">x</text><text x="-54.724" y="40.646" font-family="cmr7" font-size="7" transform="translate(194.069 1.403)">3</text></g></g><g fill="#fff" stroke="#1f2933" stroke-width=".9"><path d="M50.527-60.439c0-6.286-5.096-11.381-11.381-11.381s-11.381 5.095-11.381 11.381 5.095 11.381 11.38 11.381 11.382-5.095 11.382-11.38Zm-11.381 0"/><g fill="#000" stroke="none"><text x="-60.439" y="39.146" font-family="cmmi10" font-size="10" transform="translate(95.85 -96.862)">l</text><text x="-57.455" y="40.646" font-family="cmr7" font-size="7" transform="translate(95.85 -96.862)">1</text></g></g><g fill="#fff" stroke="#1f2933" stroke-width=".9"><path d="M150.111-60.439c0-6.286-5.095-11.381-11.38-11.381s-11.382 5.095-11.382 11.381 5.096 11.381 11.381 11.381 11.381-5.095 11.381-11.38Zm-11.38 0"/><g fill="#000" stroke="none"><text x="-60.439" y="39.146" font-family="cmmi10" font-size="10" transform="translate(195.434 -96.862)">l</text><text x="-57.455" y="40.646" font-family="cmr7" font-size="7" transform="translate(195.434 -96.862)">2</text></g></g><g fill="red" stroke="red"><path fill="red" stroke="red" d="M43.698 88.938a4.552 4.552 0 1 0-9.105 0 4.552 4.552 0 0 0 9.105 0Zm-4.552 0"/></g><g fill="#b9b9b9" stroke="#b9b9b9"><path fill="#b9b9b9" stroke="#b9b9b9" d="M93.49 39.146a4.552 4.552 0 1 0-9.104 0 4.552 4.552 0 0 0 9.104 0Zm-4.552 0"/></g><g fill="#b9b9b9" stroke="#b9b9b9"><path fill="#b9b9b9" stroke="#b9b9b9" d="M143.283 88.938a4.552 4.552 0 1 0-9.105 0 4.552 4.552 0 0 0 9.105 0Zm-4.553 0"/></g></g></svg>
