<svg xmlns="http://www.w3.org/2000/svg" width="354.06" height="278.232" viewBox="-72 -72 265.545 208.674"><g stroke="#000" stroke-miterlimit="10" stroke-width=".4"><path fill="none" stroke="#1f2933" stroke-width=".9" d="M-62.765 81.86h33.209M-17.725 126.9V93.69M27.315 81.86h-33.21M36.82 81.86h33.208M126.9 81.86H93.69M136.404 81.86h33.209M28.707 35.427-9.36 73.493M35.427 28.707 73.493-9.36M81.86 36.82v33.208M81.86 27.315v-33.21M181.444 36.82v33.208M181.444 27.315v-33.21M81.86-62.765v33.209M181.444-62.765v33.209"/><g fill="#fff" stroke="#1f2933" stroke-width=".9"><path d="M-6.344 81.86c0-6.286-5.096-11.382-11.381-11.382s-11.381 5.096-11.381 11.381 5.095 11.381 11.38 11.381 11.382-5.095 11.382-11.38Zm-11.381 0"/><g fill="#000" stroke="none"><text x="-17.725" y="81.859" font-family="cmmi10" font-size="10" transform="translate(-5.1 1.403)">x</text><text x="-12.01" y="83.359" font-family="cmr7" font-size="7" transform="translate(-5.1 1.403)">1</text></g></g><g fill="#fff" stroke="#1f2933" stroke-width=".9"><path d="M93.24 81.86c0-6.286-5.095-11.382-11.38-11.382S70.477 75.574 70.477 81.86 75.574 93.24 81.86 93.24 93.24 88.145 93.24 81.86Zm-11.38 0"/><g fill="#000" stroke="none"><text x="-17.725" y="81.859" font-family="cmmi10" font-size="10" transform="translate(94.484 1.403)">x</text><text x="-12.01" y="83.359" font-family="cmr7" font-size="7" transform="translate(94.484 1.403)">2</text></g></g><g fill="#fff" stroke="#1f2933" stroke-width=".9"><path d="M192.825 81.86c0-6.286-5.095-11.382-11.381-11.382s-11.381 5.096-11.381 11.381 5.095 11.381 11.38 11.381c6.287 0 11.382-5.095 11.382-11.38Zm-11.381 0"/><g fill="#000" stroke="none"><text x="-17.725" y="81.859" font-family="cmmi10" font-size="10" transform="translate(194.069 1.403)">x</text><text x="-12.01" y="83.359" font-family="cmr7" font-size="7" transform="translate(194.069 1.403)">3</text></g></g><g fill="#fff" stroke="#1f2933" stroke-width=".9"><path d="M93.24-17.725c0-6.286-5.095-11.381-11.38-11.381s-11.382 5.095-11.382 11.38S75.574-6.343 81.86-6.343 93.24-11.44 93.24-17.725Zm-11.38 0"/><g fill="#000" stroke="none"><text x="-17.725" y="81.859" font-family="cmmi10" font-size="10" transform="translate(95.85 -96.862)">l</text><text x="-14.741" y="83.359" font-family="cmr7" font-size="7" transform="translate(95.85 -96.862)">1</text></g></g><g fill="#fff" stroke="#1f2933" stroke-width=".9"><path d="M192.825-17.725c0-6.286-5.095-11.381-11.381-11.381s-11.381 5.095-11.381 11.38 5.095 11.382 11.38 11.382c6.287 0 11.382-5.096 11.382-11.381Zm-11.381 0"/><g fill="#000" stroke="none"><text x="-17.725" y="81.859" font-family="cmmi10" font-size="10" transform="translate(195.434 -96.862)">l</text><text x="-14.741" y="83.359" font-family="cmr7" font-size="7" transform="translate(195.434 -96.862)">2</text></g></g><g fill="#111827" stroke="#111827"><path d="M-62.965 81.86a4.552 4.552 0 1 0-9.105 0 4.552 4.552 0 0 0 9.105 0Zm-4.553 0"/></g><g fill="#111827" stroke="#111827"><path d="M-13.173 131.652a4.552 4.552 0 1 0-9.105 0 4.552 4.552 0 0 0 9.105 0Zm-4.552 0"/></g><g fill="#111827" stroke="#111827"><path d="M36.62 81.86a4.552 4.552 0 1 0-9.105 0 4.552 4.552 0 0 0 9.104 0Zm-4.553 0"/></g><g fill="#111827" stroke="#111827"><path d="M136.204 81.86a4.552 4.552 0 1 0-9.105 0 4.552 4.552 0 0 0 9.105 0Zm-4.552 0"/></g><g fill="#111827" stroke="#111827"><path d="M36.62 32.067a4.552 4.552 0 1 0-9.105 0 4.552 4.552 0 0 0 9.104 0Zm-4.553 0"/></g><g fill="#111827" stroke="#111827"><path d="M86.412 32.067a4.552 4.552 0 1 0-9.105 0 4.552 4.552 0 0 0 9.105 0Zm-4.553 0"/></g><g fill="#111827" stroke="#111827"><path d="M185.996 32.067a4.552 4.552 0 1 0-9.104 0 4.552 4.552 0 0 0 9.104 0Zm-4.552 0"/></g><g fill="#111827" stroke="#111827"><path d="M86.412-67.518a4.552 4.552 0 1 0-9.105 0 4.552 4.552 0 0 0 9.105 0Zm-4.553 0"/></g><g fill="#111827" stroke="#111827"><path d="M185.996-67.518a4.552 4.552 0 1 0-9.104 0 4.552 4.552 0 0 0 9.104 0Zm-4.552 0"/></g></g></svg>
